<?xml version="1.0" encoding="UTF-8"?> <svg xmlns="http://www.w3.org/2000/svg" width="229" height="23" viewBox="0 0 229 23" fill="none"><path d="M7.32 21.712C10.552 21.712 12.632 17.648 12.632 11.248C12.632 4.976 10.552 1.008 7.32 1.008C4.12 1.008 2.04 5.136 2.04 11.248C2.04 17.648 4.152 21.712 7.32 21.712ZM7.352 22.32C2.872 22.32 0.12 18.128 0.12 11.28C0.12 4.56 2.936 0.4 7.352 0.4C11.832 0.4 14.584 4.592 14.584 11.248C14.584 18.128 11.896 22.32 7.352 22.32ZM30.6233 17.744V22.032L17.8552 22V21.008C22.5272 18.224 28.1272 13.168 28.1272 7.44C28.1272 2.832 25.5033 1.328 23.4872 1.328C20.9272 1.328 18.7832 3.344 18.7832 6.608H18.0792C18.0792 3.12 20.2552 0.4 23.7432 0.4C28.1593 0.4 30.0153 3.856 30.0153 7.44C30.0153 12.656 25.1192 17.232 20.9912 19.92C20.6712 20.144 20.6392 20.272 21.0872 20.272H27.2633C29.6313 20.272 29.9193 20.016 29.9193 17.744H30.6233ZM48.4235 13.168H53.4475C53.9915 13.168 54.0555 13.04 53.8315 12.336L51.2715 5.04C50.9515 4.112 50.8235 3.632 50.3435 5.072L47.9435 12.432C47.7515 13.04 47.8795 13.168 48.4235 13.168ZM61.2875 21.296V22H54.8555V21.296C56.6155 21.296 56.8715 20.624 56.2955 18.992L54.7275 14.64C54.4715 13.904 54.1515 13.872 53.3515 13.872H48.3275C47.5275 13.872 47.3675 13.936 47.1755 14.512L45.7675 18.896C45.1915 20.56 45.2235 21.296 47.8155 21.296V22H41.9595V21.296C44.1035 21.296 44.4555 20.464 44.9675 19.024L51.0475 0.719999H51.7835L58.2795 18.992C58.8555 20.656 59.5275 21.296 61.2875 21.296ZM78.81 3.728V15.12C78.81 19.76 76.73 22.32 72.41 22.32C68.154 22.32 65.53 20.176 65.53 14.736V3.728C65.53 1.968 65.21 1.424 63.45 1.424V0.719999H69.37V1.424C67.61 1.424 67.354 1.968 67.354 3.728V14.672C67.354 19.728 69.114 21.68 72.826 21.68C74.17 21.68 78.042 21.104 78.042 15.12V4.08C78.042 1.872 77.082 1.424 75.258 1.424V0.719999H80.954V1.424C79.194 1.424 78.81 1.968 78.81 3.728ZM100.153 15.408V19.056C98.6812 21.136 96.4732 22.32 93.7852 22.32C88.3452 22.32 84.5692 17.616 84.5692 11.536C84.5692 6.224 87.6412 0.4 94.0412 0.4C96.6972 0.4 98.9692 1.36 100.185 2.128V6.352H99.4812V6.128C99.4812 4.72 98.0412 1.008 94.0412 1.008C88.9852 1.008 86.3292 6.448 86.3292 11.536C86.3292 18.256 90.7772 21.552 93.9132 21.552C94.7772 21.552 95.9292 21.296 96.6652 20.816C97.7852 20.208 98.3292 18.992 98.3292 17.136V15.408C98.3292 13.84 98.1052 13.104 96.8252 13.104H93.0172V12.4H101.849V13.104C100.345 13.104 100.153 13.648 100.153 15.408ZM118.809 3.728V15.12C118.809 19.76 116.729 22.32 112.409 22.32C108.153 22.32 105.529 20.176 105.529 14.736V3.728C105.529 1.968 105.209 1.424 103.449 1.424V0.719999H109.369V1.424C107.609 1.424 107.353 1.968 107.353 3.728V14.672C107.353 19.728 109.113 21.68 112.825 21.68C114.169 21.68 118.041 21.104 118.041 15.12V4.08C118.041 1.872 117.081 1.424 115.257 1.424V0.719999H120.953V1.424C119.193 1.424 118.809 1.968 118.809 3.728ZM125.528 16.4V16.688C125.784 19.792 128.056 21.712 131 21.712C133.624 21.712 135.448 19.92 135.48 17.296C135.576 11.088 124.6 11.568 124.6 5.36C124.6 2.8 126.712 0.367998 130.52 0.367998C133.176 0.367998 135.064 1.264 136.376 2.096V6.288H135.672V6C135.416 2.896 133.304 0.976 130.52 0.976C127.864 0.976 126.424 3.024 126.424 4.848C126.424 10.128 137.368 10.128 137.368 16.656C137.368 19.856 135.288 22.32 131.032 22.32C128.376 22.32 126.136 21.424 124.824 20.592V16.4H125.528ZM150.193 21.296V22H144.305V21.296C146.065 21.296 146.353 20.752 146.353 18.992V3.728C146.353 1.968 146.065 1.424 144.305 1.424H143.889C140.593 1.424 140.113 2.512 140.113 5.104V5.328H139.409V0.719999H155.121V5.328H154.417V5.104C154.417 2.512 153.905 1.424 150.577 1.424H150.161C148.401 1.424 148.177 1.968 148.177 3.728V18.992C148.177 20.752 148.433 21.296 150.193 21.296ZM179.852 17.744V22.032L167.084 22V21.008C171.756 18.224 177.356 13.168 177.356 7.44C177.356 2.832 174.732 1.328 172.716 1.328C170.156 1.328 168.012 3.344 168.012 6.608H167.308C167.308 3.12 169.484 0.4 172.972 0.4C177.388 0.4 179.244 3.856 179.244 7.44C179.244 12.656 174.348 17.232 170.22 19.92C169.9 20.144 169.868 20.272 170.316 20.272H176.492C178.86 20.272 179.148 20.016 179.148 17.744H179.852ZM189.329 21.712C192.561 21.712 194.641 17.648 194.641 11.248C194.641 4.976 192.561 1.008 189.329 1.008C186.129 1.008 184.049 5.136 184.049 11.248C184.049 17.648 186.161 21.712 189.329 21.712ZM189.361 22.32C184.881 22.32 182.129 18.128 182.129 11.28C182.129 4.56 184.945 0.4 189.361 0.4C193.841 0.4 196.593 4.592 196.593 11.248C196.593 18.128 193.905 22.32 189.361 22.32ZM212.632 17.744V22.032L199.864 22V21.008C204.536 18.224 210.136 13.168 210.136 7.44C210.136 2.832 207.512 1.328 205.496 1.328C202.936 1.328 200.792 3.344 200.792 6.608H200.088C200.088 3.12 202.264 0.4 205.752 0.4C210.168 0.4 212.024 3.856 212.024 7.44C212.024 12.656 207.128 17.232 203 19.92C202.68 20.144 202.648 20.272 203.096 20.272H209.272C211.64 20.272 211.928 20.016 211.928 17.744H212.632ZM227.933 0.719999V4.944H227.229C227.229 2.704 226.877 2.448 224.477 2.448H217.853C216.797 2.448 216.765 2.512 216.669 3.888L216.125 10.64C217.597 8.72 219.869 8.176 221.213 8.176C225.117 8.176 228.221 10.832 228.221 15.248C228.221 17.52 226.813 22.32 221.405 22.32C217.565 22.32 214.813 19.152 214.813 16.336H215.517C215.837 19.088 218.237 21.36 221.117 21.36C224.381 21.36 226.301 18.8 226.301 15.184C226.301 11.952 224.477 8.976 220.765 8.976C218.045 8.976 216.157 11.248 215.901 13.008H215.165L216.285 0.719999H227.933Z" fill="black"></path></svg> 