<?xml version="1.0" encoding="UTF-8"?> <svg xmlns="http://www.w3.org/2000/svg" width="216" height="216" viewBox="0 0 216 216" fill="none"><path d="M34.5528 158.618C33.4505 162.704 31.7302 169.081 31.7302 169.081C31.0865 171.467 29.7323 178.64 29 181C33.5 185 39.4996 189.337 39.4996 189.337C39.4996 189.337 52.0138 184.833 54.6227 184.179C54.6227 184.179 57.5668 183.441 59.4532 182.968C45 172.5 44 169.5 34.5528 158.618Z" fill="black"></path><path fill-rule="evenodd" clip-rule="evenodd" d="M42.264 22.0821C59.8231 8.9323 76.1158 2.6813 99.7275 0.0331433C100.495 -0.052785 106.144 0.0342596 112.281 0.226203C121.284 0.507981 124.824 0.865644 130.607 2.07701C174.753 11.3266 208.085 46.6844 214.988 91.5858C216.847 103.673 216.082 121.256 213.202 132.675C206.23 160.314 190.735 182.381 167.452 197.83C155.029 206.074 141.678 211.346 125.95 214.219C118.339 215.609 97.0444 215.597 89.9637 214.198C78.4324 211.919 70.8629 209.494 61.7882 205.171L56.4878 202.646C56.4878 202.646 40.5 191 39.4996 189.337C39.4996 189.337 52.0138 184.833 54.6227 184.179C54.6227 184.179 57.5668 183.441 59.4532 182.968C61.0072 183.868 63.4324 185.272 63.4324 185.272C79.0969 194.342 96.3531 198.351 114.36 197.105C122.087 196.571 126.093 195.859 133.108 193.775C161.311 185.396 183.846 163.512 193.156 135.461C197.505 122.359 198.53 106.475 195.964 91.9429C195.274 88.0321 194.885 86.5986 192.867 80.5044C183.895 53.4219 162.818 32.3132 135.779 23.3314C123.106 19.1226 107.896 17.7098 96.1009 19.6466C85.1393 21.446 77.2629 23.9234 68.4359 28.3476C52.8602 36.1543 38.8611 49.5641 30.2266 64.9497C27.1 70.5206 26.1509 72.6481 23.5359 79.9464C17.4305 96.9859 17.3289 117.916 23.2636 135.801C25.1835 141.587 30.0269 151.849 32.7814 155.969C32.7814 155.969 33.861 157.584 34.5528 158.618C33.4505 162.704 31.7302 169.081 31.7302 169.081C31.0865 171.467 29.7323 178.64 29 181C19.5 169.5 14.5409 162.028 14.5409 162.028L11.7128 156.279C6.79686 146.288 3.80859 137.196 1.75429 125.979C0.698126 120.213 0.167533 98.859 0.957005 93.8958C1.22593 92.208 1.60867 89.8226 1.80785 88.5951C4.49205 72.074 13.9099 51.6911 24.8822 38.6562C29.5766 33.0798 36.8889 26.1068 42.264 22.0821ZM57.8163 66.7849C60.274 63.0102 65.0671 58.403 66.9691 57.9884C67.6487 57.84 70.5611 57.7742 73.4411 57.8417C78.3738 57.9577 78.747 58.0509 79.8573 59.4481C80.5062 60.2638 82.0902 63.5146 83.3773 66.6728C84.6645 69.8303 86.7361 74.8834 87.9802 77.9015C91.5075 86.4569 91.0304 88.7591 84.159 96.3476C82.5951 98.0745 81.3158 99.6229 81.3158 99.7881C81.3158 100.441 83.1748 103.621 85.9293 107.681C89.7556 113.322 96.5785 120.462 102.173 124.68C107.064 128.369 119.114 134.628 121.325 134.628C122.798 134.628 123.919 133.51 130.277 125.7C133.998 121.13 134.22 120.959 136.398 121.001C138.76 121.047 139.823 121.492 153.723 128.259C163.351 132.946 163.645 133.27 163.007 138.501C162.264 144.607 160.755 148.265 157.819 151.079C154.289 154.462 151.689 156.198 147.501 157.968C144.404 159.277 143.376 159.414 136.551 159.432C129.553 159.451 128.643 159.327 123.718 157.685C110.49 153.273 102.406 149.318 93.6589 142.98C87.9602 138.85 78.1255 129.767 73.7525 124.595C66.5122 116.032 60.5473 107.601 57.6757 101.87C51.5228 89.591 51.5758 76.3709 57.8163 66.7849Z" fill="black"></path></svg> 