<?xml version="1.0" encoding="UTF-8"?> <svg xmlns="http://www.w3.org/2000/svg" width="430" height="57" viewBox="0 0 430 57" fill="none"><path d="M79.5555 20.7L75.3555 23H74.8555C82.5555 17.1 81.1555 22.6 79.5555 25.7C77.5555 29.5 72.8555 35.4 69.5555 37.8C67.4555 39.2 61.2555 41.5 61.1555 36.4C61.4555 28.9 80.0555 34.3 84.2555 31.4C86.7555 29.7 86.9555 30.8 84.0555 32.1C79.2555 34.2 60.5555 29.2 61.7555 37.4C63.0555 41.4 68.7555 35.5 69.9555 34.2C72.0555 31.8 74.7555 28.5 77.0555 24.8L79.5555 20.7ZM87.4031 33.9C86.2031 34.3 85.5031 34 85.3031 32.8C85.0031 30.6 87.3031 28.8 88.5031 27.8C91.1031 25.9 94.3031 25.7 94.4031 27.7C94.4031 27.8 94.6031 27.6 95.2031 27.1C96.1031 26.4 96.4031 25.8 97.4031 25C98.0031 24.5 99.7031 24.9 99.0031 26C95.7031 30 92.3031 33.9 90.3031 38.8C88.8031 44.1 94.3031 39.6 96.9031 37.8C99.6031 35.7 102.303 33.6 105.303 32C108.403 30.4 108.803 30.4 106.703 31.8C104.303 32.9 103.003 33.8 101.103 35.2C98.7031 36.8 96.3031 38.7 93.9031 40.3C87.8031 44.6 88.0031 37.9 89.7031 34.3C90.0031 33.7 90.3031 32.9 90.7031 32.3C89.6031 32.8 88.4031 33.6 87.4031 33.9ZM91.3031 27.3C89.8031 29 88.1031 30.8 86.8031 32.7C86.5031 33.2 86.4031 34.1 87.4031 33.6C90.4031 32.4 92.0031 30.7 93.7031 28.5C94.8031 26.7 92.6031 25.9 91.3031 27.3ZM112.678 27.6L104.978 40.2L101.578 46.9C100.978 49.7 116.478 34.3 120.578 29.7C121.478 28.7 121.878 28.4 122.178 31C122.378 32.5 125.078 32.6 128.478 30.8V31.1C126.478 32.2 121.578 34.7 121.478 29.6C118.678 33.3 102.778 48.9 101.078 47.7C100.178 47.1 100.578 44.2 100.978 42.7C101.678 40 105.878 33.5 107.578 31.1C110.578 26.9 108.778 29.7 111.278 25.9C113.278 22.7 118.078 18.9 112.678 27.6ZM139.277 21.9C142.377 22.2 139.377 26.1 135.777 26.3C131.577 26.8 126.877 38.9 130.377 38.9C131.677 39 132.377 38.2 133.477 37.4C136.877 34.7 140.877 33.1 144.977 30.9C145.477 30.6 145.977 30.8 145.277 31.2C140.977 33.5 136.277 35.5 132.777 38.4C131.977 39.1 130.977 39.3 129.977 39.2C126.777 38.6 126.977 33.7 127.977 31.7C129.977 27.6 133.877 21 139.277 21.9ZM139.077 22.7C137.777 23 136.777 24.1 135.877 25.1L135.277 25.7C134.577 26.4 137.777 25.7 138.977 24.6C139.777 24.1 141.277 22.3 139.077 22.7ZM174.546 55.2L179.646 50.7C181.546 48.8 183.346 47.2 185.046 45.4C186.846 43.8 188.546 41.9 190.446 40.2C193.346 37.6 196.146 35 199.346 32.8C200.046 31.9 201.546 31.6 202.746 31.1C203.146 30.9 203.746 31 204.346 30.8V31.1C201.546 31.6 199.446 32.9 197.446 34.4C194.646 37.2 191.546 39.8 188.746 42.7C185.546 45.6 182.646 48.3 179.646 51.2C177.846 52.6 175.546 55.6 173.246 55.8C171.946 55.7 170.646 54.6 170.546 53.1C170.346 51.4 170.746 49.7 171.246 48.3C171.946 44.2 173.946 40.9 176.046 37.3C177.446 34.4 179.446 31.6 181.146 28.6C183.146 25.1 183.946 23.3 186.846 19.3C188.646 16.5 190.646 13.7 192.646 10.8C192.546 10.8 187.446 10.9 187.246 11C183.746 11.6 179.946 11.8 176.146 12.4C174.846 12.6 173.246 13.2 172.046 13.9C171.346 14.3 170.746 14.7 169.846 15.4C169.746 14.7 170.146 14.2 170.546 13.8C171.946 13.4 173.146 12.4 174.746 12.2C179.046 11.1 183.646 10.8 188.146 10.5C188.746 10.5 193.046 10.6 193.646 9.4C195.346 7.5 196.946 5.6 198.446 3.8C199.046 3.2 199.746 2.3 200.246 2.8C200.846 3.6 200.546 4.2 200.246 4.7C198.946 6.2 198.046 7.7 196.946 9.3C196.646 9.6 196.246 10.1 196.546 10.3C201.846 10.1 211.346 8.9 216.546 8.2L216.646 8.7C216.546 8.7 211.146 9.4 210.846 9.5C206.146 10.1 201.146 10.3 196.346 10.7C195.746 10.8 195.646 10.8 195.446 11.3C190.946 16.9 187.146 23 183.746 28.8C181.246 32.9 178.846 37 176.646 41.3C175.046 44.4 173.746 47.5 172.246 50.8C171.446 53.1 171.446 56.2 174.546 55.2ZM204.058 31C204.758 30.5 205.858 29.9 206.658 29.4C207.258 29 226.458 4.5 229.358 0.799997L230.958 1.3C231.158 1.2 208.058 31 208.258 30.8C210.458 29.3 212.458 27.4 214.658 25.9C215.458 25.3 216.458 24.8 217.458 24.5C220.258 23.9 220.158 26.1 219.058 27.4C216.658 31.2 214.058 35 211.658 38.9C208.458 44.8 209.558 46.3 211.558 45.7C217.358 43.9 227.158 32 227.958 31.3C228.658 30.7 228.858 30.8 228.258 31.5C224.458 35.8 218.258 43.2 212.558 45.7C210.258 46.8 208.058 45.8 207.858 43.7C207.658 42.8 207.858 41.8 208.058 40.9C208.658 38.7 209.858 36.8 211.158 34.9L216.658 27.2L217.658 25.5C217.858 25.3 217.858 24.8 217.058 25C215.058 26 213.558 27.3 211.858 28.6C209.258 30.6 207.158 32.8 206.058 34.9C205.258 36.4 203.658 34.8 204.158 34.1C204.658 33.1 205.358 32.2 205.958 31.3C206.058 31 206.958 29.9 206.658 29.8L204.258 31.3L204.058 31ZM239.277 21.9C242.377 22.2 239.377 26.1 235.777 26.3C231.577 26.8 226.877 38.9 230.377 38.9C231.677 39 232.377 38.2 233.477 37.4C236.877 34.7 240.877 33.1 244.977 30.9C245.477 30.6 245.977 30.8 245.277 31.2C240.977 33.5 236.277 35.5 232.777 38.4C231.977 39.1 230.977 39.3 229.977 39.2C226.777 38.6 226.977 33.7 227.977 31.7C229.977 27.6 233.877 21 239.277 21.9ZM239.077 22.7C237.777 23 236.777 24.1 235.877 25.1L235.277 25.7C234.577 26.4 237.777 25.7 238.977 24.6C239.777 24.1 241.277 22.3 239.077 22.7ZM281.446 33.9C280.246 34.3 279.546 34 279.346 32.8C279.046 30.6 281.346 28.8 282.546 27.8C285.146 25.9 288.346 25.7 288.446 27.7C288.446 27.8 288.646 27.6 289.246 27.1C290.146 26.4 305.546 6.9 306.546 6.1C307.146 5.6 309.146 5.4 308.446 6.5C307.246 8 290.446 29 289.246 30.5C287.246 33 285.546 35.7 284.346 38.8C282.846 44.1 288.346 39.6 290.946 37.8C293.646 35.7 296.346 33.6 299.346 32C302.446 30.4 302.846 30.4 300.746 31.8C298.346 32.9 297.046 33.8 295.146 35.2C292.746 36.8 290.346 38.7 287.946 40.3C281.846 44.6 282.346 37.9 284.046 34.3C284.346 33.7 284.746 32.9 285.146 32.3C284.046 32.8 282.446 33.6 281.446 33.9ZM285.346 27.3C283.846 29 282.146 30.8 280.846 32.7C280.546 33.2 280.446 34.1 281.446 33.6C284.446 32.4 286.046 30.7 287.746 28.5C288.846 26.7 286.646 25.9 285.346 27.3ZM303.614 33.9C302.414 34.3 301.714 34 301.514 32.8C301.214 30.6 303.514 28.8 304.714 27.8C307.314 25.9 310.514 25.7 310.614 27.7C310.614 27.8 310.814 27.6 311.414 27.1C312.314 26.4 312.614 25.8 313.614 25C314.214 24.5 315.914 24.9 315.214 26C311.914 30 308.514 33.9 306.514 38.8C305.014 44.1 310.514 39.6 313.114 37.8C315.814 35.7 318.514 33.6 321.514 32C324.614 30.4 325.014 30.4 322.914 31.8C320.514 32.9 319.214 33.8 317.314 35.2C314.914 36.8 312.514 38.7 310.114 40.3C304.014 44.6 304.214 37.9 305.914 34.3C306.214 33.7 306.514 32.9 306.914 32.3C305.814 32.8 304.614 33.6 303.614 33.9ZM307.514 27.3C306.014 29 304.314 30.8 303.014 32.7C302.714 33.2 302.614 34.1 303.614 33.6C306.614 32.4 308.214 30.7 309.914 28.5C311.014 26.7 308.814 25.9 307.514 27.3ZM318.589 55.2L323.689 50.7C325.589 48.8 327.389 47.2 329.089 45.4C330.889 43.8 332.589 41.9 334.489 40.2C337.389 37.6 340.189 35 343.389 32.8C344.089 31.9 345.589 31.6 346.789 31.1C347.189 30.9 347.789 31 348.389 30.8V31.1C345.589 31.6 343.489 32.9 341.489 34.4C338.689 37.2 335.589 39.8 332.789 42.7C329.589 45.6 326.689 48.3 323.689 51.2C321.889 52.6 319.589 55.6 317.289 55.8C315.989 55.7 314.689 54.6 314.589 53.1C314.389 51.4 314.789 49.7 315.289 48.3C315.989 44.2 317.989 40.9 320.089 37.3C321.489 34.4 323.489 31.6 325.189 28.6C327.189 25.1 327.989 23.3 330.889 19.3C332.689 16.5 334.689 13.7 336.689 10.8C336.589 10.8 331.489 10.9 331.289 11C327.789 11.6 323.989 11.8 320.189 12.4C318.889 12.6 317.289 13.2 316.089 13.9C315.389 14.3 314.789 14.7 313.889 15.4C313.789 14.7 314.189 14.2 314.589 13.8C315.989 13.4 317.189 12.4 318.789 12.2C323.089 11.1 327.689 10.8 332.189 10.5C332.789 10.5 337.089 10.6 337.689 9.4C339.389 7.5 340.989 5.6 342.489 3.8C343.089 3.2 343.789 2.3 344.289 2.8C344.889 3.6 344.589 4.2 344.289 4.7C342.989 6.2 342.089 7.7 340.989 9.3C340.689 9.6 340.289 10.1 340.589 10.3C345.889 10.1 355.389 8.9 360.589 8.2L360.689 8.7C360.589 8.7 355.189 9.4 354.889 9.5C350.189 10.1 345.189 10.3 340.389 10.7C339.789 10.8 339.689 10.8 339.489 11.3C334.989 16.9 331.189 23 327.789 28.8C325.289 32.9 322.889 37 320.689 41.3C319.089 44.4 317.789 47.5 316.289 50.8C315.489 53.1 315.489 56.2 318.589 55.2ZM359.101 21.9C362.201 22.2 359.201 26.1 355.601 26.3C351.401 26.8 346.701 38.9 350.201 38.9C351.501 39 352.201 38.2 353.301 37.4C356.701 34.7 360.701 33.1 364.801 30.9C365.301 30.6 365.801 30.8 365.101 31.2C360.801 33.5 356.101 35.5 352.601 38.4C351.801 39.1 350.801 39.3 349.801 39.2C346.601 38.6 346.801 33.7 347.801 31.7C349.801 27.6 353.701 21 359.101 21.9ZM358.901 22.7C357.601 23 356.601 24.1 355.701 25.1L355.101 25.7C354.401 26.4 357.601 25.7 358.801 24.6C359.601 24.1 361.101 22.3 358.901 22.7Z" fill="black"></path><path d="M365 31C367.5 30 367.081 30.0964 368.267 29.5432C371.45 28.0597 374.461 26.517 378.001 26.1331C385.102 25.3631 391.985 26.4579 398.535 29.2243C405.152 32.0191 413.034 35.0782 419.854 31.236C421.463 30.3297 422.95 29.2419 424.466 28.1939C427.348 26.2026 430.403 24.4998 433.415 22.7169C436.48 20.9025 439.558 19.0938 442.523 17.1172" stroke="black" stroke-width="0.4" stroke-linecap="round"></path><path d="M-0.90625 32.3641C6.62603 31.1633 14.3052 30.7606 21.87 29.7662C28.8288 28.8514 39.1536 28.4807 44.931 23.5739C47.5593 21.3417 49.803 15.94 46.4612 13.378C45.8511 12.9102 45.132 12.8524 44.3993 12.9158C42.9345 13.0425 41.3661 13.4947 40.4076 14.6097C39.755 15.3687 39.4504 16.3658 39.4504 18.4493C39.4504 22.498 44.943 29.0008 48.5 29.7662C53.1453 30.7658 54.6222 30.2626 59 28.998C62.1487 28.0883 64.5 26.998 67.5 25.998C68.6597 25.6114 69 25.498 75 22.998C76 22.498 77.7403 20.998 78.5 20.998" stroke="black" stroke-width="0.4" stroke-linecap="round"></path></svg> 