<?xml version="1.0" encoding="UTF-8"?> <svg xmlns="http://www.w3.org/2000/svg" width="31" height="54" viewBox="0 0 31 54" fill="none"><path d="M15.7694 40.18C13.8974 40.18 12.2174 39.772 10.7294 38.956C9.26542 38.116 8.11342 36.976 7.27342 35.536C6.43342 34.072 6.01342 32.404 6.01342 30.532C6.01342 28.636 6.43342 26.968 7.27342 25.528C8.11342 24.088 9.26542 22.96 10.7294 22.144C12.2174 21.328 13.8974 20.92 15.7694 20.92C17.3774 20.92 18.8294 21.232 20.1254 21.856C21.4214 22.48 22.4414 23.416 23.1854 24.664L21.2774 25.96C20.6294 25 19.8254 24.292 18.8654 23.836C17.9054 23.38 16.8614 23.152 15.7334 23.152C14.3894 23.152 13.1774 23.464 12.0974 24.088C11.0174 24.688 10.1654 25.54 9.54142 26.644C8.91742 27.748 8.60542 29.044 8.60542 30.532C8.60542 32.02 8.91742 33.316 9.54142 34.42C10.1654 35.524 11.0174 36.388 12.0974 37.012C13.1774 37.612 14.3894 37.912 15.7334 37.912C16.8614 37.912 17.9054 37.684 18.8654 37.228C19.8254 36.772 20.6294 36.076 21.2774 35.14L23.1854 36.436C22.4414 37.66 21.4214 38.596 20.1254 39.244C18.8294 39.868 17.3774 40.18 15.7694 40.18Z" fill="black"></path><circle cx="15.5" cy="30.5" r="15" stroke="black"></circle></svg> 