<?xml version="1.0" encoding="UTF-8"?> <svg xmlns="http://www.w3.org/2000/svg" width="360" height="311" viewBox="0 0 360 311" fill="none"><path d="M64.8067 40L61.8187 33.304H47.8507L44.8987 40H42.2347L53.5747 14.836H56.1667L67.5067 40H64.8067ZM48.8227 31.072H60.8467L54.7987 17.464L48.8227 31.072ZM83.9441 21.136H86.3921V40H83.9441V35.5C82.6841 38.524 80.1641 40.036 76.6721 40.072C72.2081 40.072 69.5441 37.3 69.5441 32.728V21.136H71.9921V32.152C71.9921 35.716 74.0441 37.804 77.4641 37.804C81.5321 37.732 83.9441 34.78 83.9441 30.388V21.136ZM107.291 21.136H109.703V38.02C109.703 43.564 105.995 47.056 100.307 47.056C97.3192 47.056 94.8352 46.012 92.5672 44.176L93.7192 42.448C95.5912 44.104 97.6432 45.004 100.199 45.004C104.483 45.004 107.291 42.304 107.291 38.056V34.996C105.959 37.624 103.403 39.208 100.091 39.208C95.0152 39.208 91.4512 35.428 91.4512 30.1C91.4512 24.808 94.9792 21.064 100.019 21.064C103.367 21.028 105.923 22.612 107.291 25.276V21.136ZM100.523 37.264C104.447 37.264 107.291 34.276 107.291 30.172C107.291 25.996 104.447 23.044 100.523 23.044C96.5632 23.044 93.7552 26.032 93.7192 30.172C93.7552 34.276 96.5272 37.264 100.523 37.264ZM129.999 21.136H132.447V40H129.999V35.5C128.739 38.524 126.219 40.036 122.727 40.072C118.263 40.072 115.599 37.3 115.599 32.728V21.136H118.047V32.152C118.047 35.716 120.099 37.804 123.519 37.804C127.587 37.732 129.999 34.78 129.999 30.388V21.136ZM149.206 24.484C147.766 23.584 145.93 23.044 144.166 23.044C141.898 23.044 140.17 23.872 140.17 25.852C140.17 30.388 150.862 28.084 150.826 34.852C150.826 38.452 147.586 40.072 144.022 40.072C141.322 40.072 138.622 39.136 136.858 37.444L137.83 35.716C139.45 37.228 141.862 38.128 144.13 38.128C146.47 38.128 148.414 37.192 148.45 35.104C148.558 30.244 137.83 32.62 137.83 26.032C137.83 22.54 140.89 21.028 144.31 21.028C146.506 21.028 148.594 21.676 150.142 22.648L149.206 24.484ZM164.406 36.868L165.126 38.704C163.83 39.604 162.426 40.072 160.95 40.108C158.214 40.108 156.27 38.452 156.27 34.78V23.548H153.57L153.534 21.676H156.27V16.816H158.682V21.676L164.802 21.64V23.548H158.682V34.384C158.682 36.832 159.618 37.912 161.346 37.876C162.354 37.876 163.362 37.516 164.406 36.868Z" fill="black"></path><path d="M221.616 37.768H236.34V40H218.484V37.948L228.42 27.58C230.688 25.24 232.164 22.792 232.164 21.1C232.164 18.472 230.076 16.888 226.584 16.888C224.172 16.888 221.472 18.04 219.42 19.948L218.304 18.112C220.716 15.988 223.848 14.692 226.872 14.692C231.66 14.692 234.756 17.068 234.756 20.776C234.756 23.116 232.884 26.068 230.112 28.948L221.616 37.768ZM250.967 14.692C257.627 14.692 261.299 19.228 261.299 27.4C261.299 35.572 257.627 40.144 250.967 40.144C244.343 40.144 240.635 35.572 240.635 27.4C240.635 19.228 244.343 14.692 250.967 14.692ZM250.967 16.672C245.891 16.672 243.191 20.344 243.191 27.4C243.191 34.456 245.891 38.128 250.967 38.128C256.043 38.128 258.779 34.456 258.779 27.4C258.779 20.344 256.043 16.672 250.967 16.672ZM267.882 37.768H282.606V40H264.75V37.948L274.686 27.58C276.954 25.24 278.43 22.792 278.43 21.1C278.43 18.472 276.342 16.888 272.85 16.888C270.438 16.888 267.738 18.04 265.686 19.948L264.57 18.112C266.982 15.988 270.114 14.692 273.138 14.692C277.926 14.692 281.022 17.068 281.022 20.776C281.022 23.116 279.15 26.068 276.378 28.948L267.882 37.768ZM295.397 24.484C300.941 24.484 304.469 27.544 304.469 31.828C304.469 36.868 300.833 40.144 295.217 40.144C292.301 40.144 288.881 39.064 286.361 37.444L287.405 35.5C289.637 37.012 292.517 37.948 295.001 37.948C299.177 37.948 301.841 35.608 301.841 32.008C301.841 28.768 299.285 26.716 294.893 26.716C293.309 26.716 290.177 27.04 288.197 27.544V14.8H303.461V17.032H290.537V24.916C291.977 24.664 294.029 24.484 295.397 24.484Z" fill="black"></path><path d="M224.347 113.4H228.631V126H227.389V114.516H224.347V113.4Z" fill="black"></path><path d="M228.012 156.346C230.496 156.346 232.008 157.516 232.008 159.478C232.008 160.81 231.234 161.764 229.92 162.25C231.594 162.736 232.62 163.87 232.62 165.472C232.62 167.722 230.856 169.072 228.03 169.072C225.186 169.072 223.422 167.722 223.422 165.508C223.422 163.87 224.466 162.736 226.176 162.25C224.826 161.746 224.016 160.792 224.016 159.442C224.016 157.516 225.564 156.346 228.012 156.346ZM228.03 157.282C226.194 157.282 225.096 158.128 225.096 159.55C225.096 160.972 226.194 161.836 228.03 161.836C229.848 161.836 230.928 160.972 230.928 159.55C230.928 158.128 229.848 157.282 228.03 157.282ZM228.012 162.826C225.888 162.826 224.592 163.78 224.592 165.364C224.592 167.074 225.87 168.064 228.03 168.064C230.154 168.064 231.45 167.074 231.45 165.382C231.45 163.798 230.154 162.826 228.012 162.826Z" fill="black"></path><path d="M219.337 201.4H223.621V214H222.379V202.516H219.337V201.4ZM231.51 206.242C234.282 206.242 236.046 207.772 236.046 209.914C236.046 212.434 234.228 214.072 231.42 214.072C229.962 214.072 228.252 213.532 226.992 212.722L227.514 211.75C228.63 212.506 230.07 212.974 231.312 212.974C233.4 212.974 234.732 211.804 234.732 210.004C234.732 208.384 233.454 207.358 231.258 207.358C230.466 207.358 228.9 207.52 227.91 207.772V201.4H235.542V202.516H229.08V206.458C229.8 206.332 230.826 206.242 231.51 206.242Z" fill="black"></path><path d="M219.502 257.884H226.864V259H217.936V257.974L222.904 252.79C224.038 251.62 224.776 250.396 224.776 249.55C224.776 248.236 223.732 247.444 221.986 247.444C220.78 247.444 219.43 248.02 218.404 248.974L217.846 248.056C219.052 246.994 220.618 246.346 222.13 246.346C224.524 246.346 226.072 247.534 226.072 249.388C226.072 250.558 225.136 252.034 223.75 253.474L219.502 257.884ZM229.768 257.884H237.13V259H228.202V257.974L233.17 252.79C234.304 251.62 235.042 250.396 235.042 249.55C235.042 248.236 233.998 247.444 232.252 247.444C231.046 247.444 229.696 248.02 228.67 248.974L228.112 248.056C229.318 246.994 230.884 246.346 232.396 246.346C234.79 246.346 236.338 247.534 236.338 249.388C236.338 250.558 235.402 252.034 234.016 253.474L229.768 257.884Z" fill="black"></path><path d="M219.405 302.884H226.767V304H217.839V302.974L222.807 297.79C223.941 296.62 224.679 295.396 224.679 294.55C224.679 293.236 223.635 292.444 221.889 292.444C220.683 292.444 219.333 293.02 218.307 293.974L217.749 293.056C218.955 291.994 220.521 291.346 222.033 291.346C224.427 291.346 225.975 292.534 225.975 294.388C225.975 295.558 225.039 297.034 223.653 298.474L219.405 302.884ZM229.634 302.236C230.48 302.722 231.578 303.01 232.568 303.01C235.376 303.01 236.816 300.616 236.564 296.818C236.024 298.474 234.638 299.428 232.676 299.428C230.192 299.428 228.662 297.916 228.662 295.468C228.662 292.912 230.336 291.346 232.91 291.346C235.952 291.346 237.806 293.524 237.806 297.394C237.806 301.426 235.826 304.072 232.658 304.072C231.506 304.072 230.156 303.712 229.13 303.19L229.634 302.236ZM233 292.426C231.128 292.426 229.832 293.578 229.832 295.486C229.832 297.304 231.02 298.42 232.874 298.42C234.998 298.42 236.24 296.962 236.24 295.378C236.24 294.118 235.268 292.426 233 292.426Z" fill="black"></path><path d="M279.635 124.884H286.997V126H278.069V124.974L283.037 119.79C284.171 118.62 284.909 117.396 284.909 116.55C284.909 115.236 283.865 114.444 282.119 114.444C280.913 114.444 279.563 115.02 278.537 115.974L277.979 115.056C279.185 113.994 280.751 113.346 282.263 113.346C284.657 113.346 286.205 114.534 286.205 116.388C286.205 117.558 285.269 119.034 283.883 120.474L279.635 124.884Z" fill="black"></path><path d="M279.502 167.236C280.348 167.722 281.446 168.01 282.436 168.01C285.244 168.01 286.684 165.616 286.432 161.818C285.892 163.474 284.506 164.428 282.544 164.428C280.06 164.428 278.53 162.916 278.53 160.468C278.53 157.912 280.204 156.346 282.778 156.346C285.82 156.346 287.674 158.524 287.674 162.394C287.674 166.426 285.694 169.072 282.526 169.072C281.374 169.072 280.024 168.712 278.998 168.19L279.502 167.236ZM282.868 157.426C280.996 157.426 279.7 158.578 279.7 160.486C279.7 162.304 280.888 163.42 282.742 163.42C284.866 163.42 286.108 161.962 286.108 160.378C286.108 159.118 285.136 157.426 282.868 157.426Z" fill="black"></path><path d="M273.59 201.4H277.874V214H276.632V202.516H273.59V201.4ZM289.508 203.164C288.644 202.678 287.528 202.39 286.538 202.39C283.694 202.39 282.254 204.784 282.506 208.564C283.046 206.926 284.45 205.972 286.43 205.972C288.932 205.972 290.48 207.484 290.48 209.932C290.48 212.488 288.788 214.072 286.196 214.072C283.118 214.072 281.264 211.876 281.264 207.988C281.264 203.974 283.244 201.346 286.448 201.346C287.6 201.346 288.968 201.688 290.012 202.228L289.508 203.164ZM286.232 206.98C284.09 206.98 282.83 208.438 282.83 210.022C282.83 211.282 283.802 212.992 286.106 212.992C287.996 212.992 289.31 211.822 289.31 209.896C289.31 208.096 288.104 206.98 286.232 206.98Z" fill="black"></path><path d="M274.414 257.884H281.776V259H272.848V257.974L277.816 252.79C278.95 251.62 279.688 250.396 279.688 249.55C279.688 248.236 278.644 247.444 276.898 247.444C275.692 247.444 274.342 248.02 273.316 248.974L272.758 248.056C273.964 246.994 275.53 246.346 277.042 246.346C279.436 246.346 280.984 247.534 280.984 249.388C280.984 250.558 280.048 252.034 278.662 253.474L274.414 257.884ZM287.524 251.8C290.152 251.89 291.88 253.114 291.88 255.148C291.88 257.47 290.026 259.072 287.056 259.072C285.49 259.072 283.888 258.568 282.772 257.848L283.33 256.876C284.32 257.578 285.67 258.01 286.984 258.01C289.306 258.01 290.674 256.876 290.674 255.22C290.674 253.528 289.27 252.646 286.948 252.646H285.328V251.836L289.612 247.516H283.366V246.4H291.232V247.228L286.732 251.764L287.524 251.8Z" fill="black"></path><path d="M276.458 296.8C279.086 296.89 280.814 298.114 280.814 300.148C280.814 302.47 278.96 304.072 275.99 304.072C274.424 304.072 272.822 303.568 271.706 302.848L272.264 301.876C273.254 302.578 274.604 303.01 275.918 303.01C278.24 303.01 279.608 301.876 279.608 300.22C279.608 298.528 278.204 297.646 275.882 297.646H274.262V296.836L278.546 292.516H272.3V291.4H280.166V292.228L275.666 296.764L276.458 296.8ZM288.465 291.346C291.795 291.346 293.631 293.614 293.631 297.7C293.631 301.786 291.795 304.072 288.465 304.072C285.153 304.072 283.299 301.786 283.299 297.7C283.299 293.614 285.153 291.346 288.465 291.346ZM288.465 292.336C285.927 292.336 284.577 294.172 284.577 297.7C284.577 301.228 285.927 303.064 288.465 303.064C291.003 303.064 292.371 301.228 292.371 297.7C292.371 294.172 291.003 292.336 288.465 292.336Z" fill="black"></path><path d="M337.131 296.8C339.759 296.89 341.487 298.114 341.487 300.148C341.487 302.47 339.633 304.072 336.663 304.072C335.097 304.072 333.495 303.568 332.379 302.848L332.937 301.876C333.927 302.578 335.277 303.01 336.591 303.01C338.913 303.01 340.281 301.876 340.281 300.22C340.281 298.528 338.877 297.646 336.555 297.646H334.935V296.836L339.219 292.516H332.973V291.4H340.839V292.228L336.339 296.764L337.131 296.8ZM342.568 291.4H346.852V304H345.61V292.516H342.568V291.4Z" fill="black"></path><path d="M340.391 118.8C343.019 118.89 344.747 120.114 344.747 122.148C344.747 124.47 342.893 126.072 339.923 126.072C338.357 126.072 336.755 125.568 335.639 124.848L336.197 123.876C337.187 124.578 338.537 125.01 339.851 125.01C342.173 125.01 343.541 123.876 343.541 122.22C343.541 120.528 342.137 119.646 339.815 119.646H338.195V118.836L342.479 114.516H336.233V113.4H344.099V114.228L339.599 118.764L340.391 118.8Z" fill="black"></path><path d="M331.414 156.4H335.698V169H334.456V157.516H331.414V156.4ZM344.505 156.346C347.835 156.346 349.671 158.614 349.671 162.7C349.671 166.786 347.835 169.072 344.505 169.072C341.193 169.072 339.339 166.786 339.339 162.7C339.339 158.614 341.193 156.346 344.505 156.346ZM344.505 157.336C341.967 157.336 340.617 159.172 340.617 162.7C340.617 166.228 341.967 168.064 344.505 168.064C347.043 168.064 348.411 166.228 348.411 162.7C348.411 159.172 347.043 157.336 344.505 157.336Z" fill="black"></path><path d="M332.276 201.4H336.56V214H335.318V202.516H332.276V201.4ZM339.085 201.4H348.319V202.426L342.595 214H341.263L346.969 202.516H340.237L340.219 204.406H339.085V201.4Z" fill="black"></path><path d="M332.379 257.884H339.741V259H330.813V257.974L335.781 252.79C336.915 251.62 337.653 250.396 337.653 249.55C337.653 248.236 336.609 247.444 334.863 247.444C333.657 247.444 332.307 248.02 331.281 248.974L330.723 248.056C331.929 246.994 333.495 246.346 335.007 246.346C337.401 246.346 338.949 247.534 338.949 249.388C338.949 250.558 338.013 252.034 336.627 253.474L332.379 257.884ZM350.349 254.464V255.58H348.333V259H347.163V255.58H340.791V254.572L345.561 246.4H346.785L342.123 254.464H347.163V250.936H348.333V254.464H350.349Z" fill="black"></path><path d="M22.2161 164.464V165.58H20.2001V169H19.0301V165.58H12.6581V164.572L17.4281 156.4H18.6521L13.9901 164.464H19.0301V160.936H20.2001V164.464H22.2161Z" fill="black"></path><path d="M11.0865 201.4H15.3705V214H14.1285V202.516H11.0865V201.4ZM17.608 201.4H21.892V214H20.65V202.516H17.608V201.4Z" fill="black"></path><path d="M9.08163 246.4H13.3656V259H12.1236V247.516H9.08163V246.4ZM21.2731 246.346C23.7571 246.346 25.2691 247.516 25.2691 249.478C25.2691 250.81 24.4951 251.764 23.1811 252.25C24.8551 252.736 25.8811 253.87 25.8811 255.472C25.8811 257.722 24.1171 259.072 21.2911 259.072C18.4471 259.072 16.6831 257.722 16.6831 255.508C16.6831 253.87 17.7271 252.736 19.4371 252.25C18.0871 251.746 17.2771 250.792 17.2771 249.442C17.2771 247.516 18.8251 246.346 21.2731 246.346ZM21.2911 247.282C19.4551 247.282 18.3571 248.128 18.3571 249.55C18.3571 250.972 19.4551 251.836 21.2911 251.836C23.1091 251.836 24.1891 250.972 24.1891 249.55C24.1891 248.128 23.1091 247.282 21.2911 247.282ZM21.2731 252.826C19.1491 252.826 17.8531 253.78 17.8531 255.364C17.8531 257.074 19.1311 258.064 21.2911 258.064C23.4151 258.064 24.7111 257.074 24.7111 255.382C24.7111 253.798 23.4151 252.826 21.2731 252.826Z" fill="black"></path><path d="M9.62445 302.884H16.9864V304H8.05845V302.974L13.0264 297.79C14.1604 296.62 14.8984 295.396 14.8984 294.55C14.8984 293.236 13.8544 292.444 12.1084 292.444C10.9024 292.444 9.55245 293.02 8.52645 293.974L7.96845 293.056C9.17445 291.994 10.7404 291.346 12.2524 291.346C14.6464 291.346 16.1944 292.534 16.1944 294.388C16.1944 295.558 15.2584 297.034 13.8724 298.474L9.62445 302.884ZM23.3821 296.242C26.1541 296.242 27.9181 297.772 27.9181 299.914C27.9181 302.434 26.1001 304.072 23.2921 304.072C21.8341 304.072 20.1241 303.532 18.8641 302.722L19.3861 301.75C20.5021 302.506 21.9421 302.974 23.1841 302.974C25.2721 302.974 26.6041 301.804 26.6041 300.004C26.6041 298.384 25.3261 297.358 23.1301 297.358C22.3381 297.358 20.7721 297.52 19.7821 297.772V291.4H27.4141V292.516H20.9521V296.458C21.6721 296.332 22.6981 296.242 23.3821 296.242Z" fill="black"></path><path d="M71.2493 161.242C74.0213 161.242 75.7853 162.772 75.7853 164.914C75.7853 167.434 73.9673 169.072 71.1593 169.072C69.7013 169.072 67.9913 168.532 66.7313 167.722L67.2533 166.75C68.3693 167.506 69.8093 167.974 71.0513 167.974C73.1393 167.974 74.4713 166.804 74.4713 165.004C74.4713 163.384 73.1933 162.358 70.9973 162.358C70.2053 162.358 68.6393 162.52 67.6493 162.772V156.4H75.2813V157.516H68.8193V161.458C69.5393 161.332 70.5653 161.242 71.2493 161.242Z" fill="black"></path><path d="M62.2144 201.4H66.4984V214H65.2564V202.516H62.2144V201.4ZM70.8959 212.884H78.2579V214H69.3299V212.974L74.2979 207.79C75.4319 206.62 76.1699 205.396 76.1699 204.55C76.1699 203.236 75.1259 202.444 73.3799 202.444C72.1739 202.444 70.8239 203.02 69.7979 203.974L69.2399 203.056C70.4459 201.994 72.0119 201.346 73.5239 201.346C75.9179 201.346 77.4659 202.534 77.4659 204.388C77.4659 205.558 76.5299 207.034 75.1439 208.474L70.8959 212.884Z" fill="black"></path><path d="M62.1168 246.4H66.4008V259H65.1588V247.516H62.1168V246.4ZM70.7623 257.236C71.6083 257.722 72.7063 258.01 73.6963 258.01C76.5043 258.01 77.9443 255.616 77.6923 251.818C77.1523 253.474 75.7663 254.428 73.8043 254.428C71.3203 254.428 69.7903 252.916 69.7903 250.468C69.7903 247.912 71.4643 246.346 74.0383 246.346C77.0803 246.346 78.9343 248.524 78.9343 252.394C78.9343 256.426 76.9543 259.072 73.7863 259.072C72.6343 259.072 71.2843 258.712 70.2583 258.19L70.7623 257.236ZM74.1283 247.426C72.2563 247.426 70.9603 248.578 70.9603 250.486C70.9603 252.304 72.1483 253.42 74.0023 253.42C76.1263 253.42 77.3683 251.962 77.3683 250.378C77.3683 249.118 76.3963 247.426 74.1283 247.426Z" fill="black"></path><path d="M62.3784 302.884H69.7404V304H60.8124V302.974L65.7804 297.79C66.9144 296.62 67.6524 295.396 67.6524 294.55C67.6524 293.236 66.6084 292.444 64.8624 292.444C63.6564 292.444 62.3064 293.02 61.2804 293.974L60.7224 293.056C61.9284 291.994 63.4944 291.346 65.0064 291.346C67.4004 291.346 68.9484 292.534 68.9484 294.388C68.9484 295.558 68.0124 297.034 66.6264 298.474L62.3784 302.884ZM79.88 293.164C79.016 292.678 77.9 292.39 76.91 292.39C74.066 292.39 72.626 294.784 72.878 298.564C73.418 296.926 74.822 295.972 76.802 295.972C79.304 295.972 80.852 297.484 80.852 299.932C80.852 302.488 79.16 304.072 76.568 304.072C73.49 304.072 71.636 301.876 71.636 297.988C71.636 293.974 73.616 291.346 76.82 291.346C77.972 291.346 79.34 291.688 80.384 292.228L79.88 293.164ZM76.604 296.98C74.462 296.98 73.202 298.438 73.202 300.022C73.202 301.282 74.174 302.992 76.478 302.992C78.368 302.992 79.682 301.822 79.682 299.896C79.682 298.096 78.476 296.98 76.604 296.98Z" fill="black"></path><path d="M124.747 158.164C123.883 157.678 122.767 157.39 121.777 157.39C118.933 157.39 117.493 159.784 117.745 163.564C118.285 161.926 119.689 160.972 121.669 160.972C124.171 160.972 125.719 162.484 125.719 164.932C125.719 167.488 124.027 169.072 121.435 169.072C118.357 169.072 116.503 166.876 116.503 162.988C116.503 158.974 118.483 156.346 121.687 156.346C122.839 156.346 124.207 156.688 125.251 157.228L124.747 158.164ZM121.471 161.98C119.329 161.98 118.069 163.438 118.069 165.022C118.069 166.282 119.041 167.992 121.345 167.992C123.235 167.992 124.549 166.822 124.549 164.896C124.549 163.096 123.343 161.98 121.471 161.98Z" fill="black"></path><path d="M112.127 201.4H116.411V214H115.169V202.516H112.127V201.4ZM123.652 206.8C126.28 206.89 128.008 208.114 128.008 210.148C128.008 212.47 126.154 214.072 123.184 214.072C121.618 214.072 120.016 213.568 118.9 212.848L119.458 211.876C120.448 212.578 121.798 213.01 123.112 213.01C125.434 213.01 126.802 211.876 126.802 210.22C126.802 208.528 125.398 207.646 123.076 207.646H121.456V206.836L125.74 202.516H119.494V201.4H127.36V202.228L122.86 206.764L123.652 206.8Z" fill="black"></path><path d="M111.702 257.884H119.064V259H110.136V257.974L115.104 252.79C116.238 251.62 116.976 250.396 116.976 249.55C116.976 248.236 115.932 247.444 114.186 247.444C112.98 247.444 111.63 248.02 110.604 248.974L110.046 248.056C111.252 246.994 112.818 246.346 114.33 246.346C116.724 246.346 118.272 247.534 118.272 249.388C118.272 250.558 117.336 252.034 115.95 253.474L111.702 257.884ZM126.377 246.346C129.707 246.346 131.543 248.614 131.543 252.7C131.543 256.786 129.707 259.072 126.377 259.072C123.065 259.072 121.211 256.786 121.211 252.7C121.211 248.614 123.065 246.346 126.377 246.346ZM126.377 247.336C123.839 247.336 122.489 249.172 122.489 252.7C122.489 256.228 123.839 258.064 126.377 258.064C128.915 258.064 130.283 256.228 130.283 252.7C130.283 249.172 128.915 247.336 126.377 247.336Z" fill="black"></path><path d="M112.564 302.884H119.926V304H110.998V302.974L115.966 297.79C117.1 296.62 117.838 295.396 117.838 294.55C117.838 293.236 116.794 292.444 115.048 292.444C113.842 292.444 112.492 293.02 111.466 293.974L110.908 293.056C112.114 291.994 113.68 291.346 115.192 291.346C117.586 291.346 119.134 292.534 119.134 294.388C119.134 295.558 118.198 297.034 116.812 298.474L112.564 302.884ZM120.958 291.4H130.192V292.426L124.468 304H123.136L128.842 292.516H122.11L122.092 294.406H120.958V291.4Z" fill="black"></path><path d="M169.825 156.4H179.059V157.426L173.335 169H172.003L177.709 157.516H170.977L170.959 159.406H169.825V156.4Z" fill="black"></path><path d="M166.591 201.4H170.875V214H169.633V202.516H166.591V201.4ZM182.977 209.464V210.58H180.961V214H179.791V210.58H173.419V209.572L178.189 201.4H179.413L174.751 209.464H179.791V205.936H180.961V209.464H182.977Z" fill="black"></path><path d="M168.374 257.884H175.736V259H166.808V257.974L171.776 252.79C172.91 251.62 173.648 250.396 173.648 249.55C173.648 248.236 172.604 247.444 170.858 247.444C169.652 247.444 168.302 248.02 167.276 248.974L166.718 248.056C167.924 246.994 169.49 246.346 171.002 246.346C173.396 246.346 174.944 247.534 174.944 249.388C174.944 250.558 174.008 252.034 172.622 253.474L168.374 257.884ZM176.48 246.4H180.764V259H179.522V247.516H176.48V246.4Z" fill="black"></path><path d="M166.37 302.884H173.732V304H164.804V302.974L169.772 297.79C170.906 296.62 171.644 295.396 171.644 294.55C171.644 293.236 170.6 292.444 168.854 292.444C167.648 292.444 166.298 293.02 165.272 293.974L164.714 293.056C165.92 291.994 167.486 291.346 168.998 291.346C171.392 291.346 172.94 292.534 172.94 294.388C172.94 295.558 172.004 297.034 170.618 298.474L166.37 302.884ZM180.145 291.346C182.629 291.346 184.141 292.516 184.141 294.478C184.141 295.81 183.367 296.764 182.053 297.25C183.727 297.736 184.753 298.87 184.753 300.472C184.753 302.722 182.989 304.072 180.163 304.072C177.319 304.072 175.555 302.722 175.555 300.508C175.555 298.87 176.599 297.736 178.309 297.25C176.959 296.746 176.149 295.792 176.149 294.442C176.149 292.516 177.697 291.346 180.145 291.346ZM180.163 292.282C178.327 292.282 177.229 293.128 177.229 294.55C177.229 295.972 178.327 296.836 180.163 296.836C181.981 296.836 183.061 295.972 183.061 294.55C183.061 293.128 181.981 292.282 180.163 292.282ZM180.145 297.826C178.021 297.826 176.725 298.78 176.725 300.364C176.725 302.074 178.003 303.064 180.163 303.064C182.287 303.064 183.583 302.074 183.583 300.382C183.583 298.798 182.287 297.826 180.145 297.826Z" fill="black"></path><path d="M333.101 79.64C332.141 79.032 330.973 78.744 330.061 78.744C328.525 78.744 327.517 79.4 327.517 80.44C327.517 83.576 333.901 81.96 333.885 86.072C333.885 87.896 332.253 89.08 329.869 89.08C328.285 89.08 326.717 88.392 325.677 87.384L326.189 86.472C327.197 87.464 328.621 88.04 329.885 88.04C331.597 88.04 332.669 87.304 332.669 86.12C332.685 82.904 326.301 84.584 326.301 80.52C326.301 78.808 327.837 77.704 330.125 77.704C331.373 77.704 332.669 78.104 333.581 78.696L333.101 79.64ZM337.475 84.456C337.475 86.76 338.803 88.104 341.011 88.104C343.219 88.104 344.531 86.76 344.531 84.456V77.8H345.635V84.456C345.635 87.368 343.907 89.096 341.011 89.096C338.099 89.096 336.371 87.368 336.371 84.456V77.8H337.475V84.456ZM357.005 77.816H358.093V89H356.925L349.997 79.528V89H348.893V77.816H350.061L357.005 87.288V77.816Z" fill="black"></path><path d="M1.885 77.8H3.261L7.645 86.2L11.981 77.8H13.357V89H12.333L12.317 79.336L7.933 87.8H7.325L2.925 79.336V89H1.885V77.8ZM21.6214 77.72C24.8694 77.72 27.4614 80.232 27.4614 83.384C27.4614 86.552 24.8694 89.096 21.6214 89.096C18.3734 89.096 15.7814 86.552 15.7814 83.384C15.7814 80.232 18.3734 77.72 21.6214 77.72ZM21.6374 78.712C19.0454 78.712 16.9014 80.792 16.9014 83.384C16.9014 85.992 19.0454 88.104 21.6374 88.104C24.2134 88.104 26.3414 85.992 26.3414 83.384C26.3414 80.792 24.2134 78.712 21.6374 78.712ZM38.0126 77.816H39.1006V89H37.9326L31.0046 79.528V89H29.9006V77.816H31.0686L38.0126 87.288V77.816Z" fill="black"></path><path d="M55.4182 77.8H63.9142V78.808H60.2182V89H59.1142V78.808H55.4182V77.8ZM66.6939 84.456C66.6939 86.76 68.0219 88.104 70.2299 88.104C72.4379 88.104 73.7499 86.76 73.7499 84.456V77.8H74.8539V84.456C74.8539 87.368 73.1259 89.096 70.2299 89.096C67.3179 89.096 65.5899 87.368 65.5899 84.456V77.8H66.6939V84.456ZM78.1116 77.816H85.5996V78.808H79.2156V82.808H84.9276V83.8H79.2156V88.008H85.8076V89H78.1116V77.816Z" fill="black"></path><path d="M119.386 77.8H120.554L116.762 89H115.61L112.458 79.192L109.274 89H108.138L104.362 77.8H105.562L108.746 87.832L111.914 77.8H113.034L116.218 87.832L119.386 77.8ZM122.416 77.816H129.904V78.808H123.52V82.808H129.232V83.8H123.52V88.008H130.112V89H122.416V77.816ZM137.319 77.816C140.567 77.816 143.079 80.248 143.079 83.416C143.079 86.552 140.567 89 137.287 89H132.823V77.816H137.319ZM137.351 88.008C139.911 88.008 141.959 86.008 141.959 83.416C141.959 80.808 139.895 78.808 137.303 78.808H133.927V88.008H137.351Z" fill="black"></path><path d="M160.262 77.8H168.758V78.808H165.062V89H163.958V78.808H160.262V77.8ZM170.69 77.816H171.794V82.936H178.786V77.816H179.89V89H178.786V83.928H171.794V89H170.69V77.816ZM184.256 84.456C184.256 86.76 185.584 88.104 187.792 88.104C190 88.104 191.312 86.76 191.312 84.456V77.8H192.416V84.456C192.416 87.368 190.688 89.096 187.792 89.096C184.88 89.096 183.152 87.368 183.152 84.456V77.8H184.256V84.456Z" fill="black"></path><path d="M221.19 77.816H228.198V78.808H222.294V83.112H227.558V84.104H222.294V89H221.19V77.816ZM238.799 89H237.519L235.103 85.352C234.847 85.368 234.591 85.384 234.319 85.384H231.247V89H230.143V77.816H234.319C237.103 77.816 238.703 79.16 238.703 81.528C238.703 83.384 237.775 84.648 236.111 85.144L238.799 89ZM231.247 84.392H234.319C236.431 84.392 237.647 83.4 237.647 81.56C237.647 79.752 236.431 78.808 234.319 78.808H231.247V84.392ZM241.705 77.816H242.809V89H241.705V77.816Z" fill="black"></path><path d="M283.07 79.64C282.11 79.032 280.942 78.744 280.03 78.744C278.494 78.744 277.486 79.4 277.486 80.44C277.486 83.576 283.87 81.96 283.854 86.072C283.854 87.896 282.222 89.08 279.838 89.08C278.254 89.08 276.686 88.392 275.646 87.384L276.158 86.472C277.166 87.464 278.59 88.04 279.854 88.04C281.566 88.04 282.638 87.304 282.638 86.12C282.654 82.904 276.27 84.584 276.27 80.52C276.27 78.808 277.806 77.704 280.094 77.704C281.342 77.704 282.638 78.104 283.55 78.696L283.07 79.64ZM294.823 89L293.495 86.024H287.287L285.975 89H284.791L289.831 77.816H290.983L296.023 89H294.823ZM287.719 85.032H293.063L290.375 78.984L287.719 85.032ZM295.231 77.8H303.727V78.808H300.031V89H298.927V78.808H295.231V77.8Z" fill="black"></path></svg> 