<?xml version="1.0" encoding="UTF-8"?> <svg xmlns="http://www.w3.org/2000/svg" width="97" height="100" viewBox="0 0 97 100" fill="none"><path d="M6.51828 36.12C4.46495 36.12 3.43828 35.5467 3.43828 34.4C3.43828 33.12 4.29161 32.48 5.99828 32.48C6.79828 32.48 8.70495 32.9467 11.7183 33.88C12.4383 33.2667 13.1449 32.52 13.8383 31.64C14.5583 30.7333 15.2383 29.6667 15.8783 28.44C16.4116 27.4267 16.9183 26.4 17.3983 25.36C17.8783 24.2933 18.3716 23.24 18.8783 22.2C21.1449 17.5333 23.7449 14.2 26.6783 12.2C25.8516 11.96 24.9049 11.7733 23.8383 11.64C22.7983 11.5067 21.6516 11.44 20.3983 11.44C19.0116 11.44 17.7049 11.56 16.4783 11.8C15.2516 12.0133 14.0916 12.3467 12.9983 12.8C10.4116 13.84 8.49162 15.4 7.23828 17.48C6.46495 18.7867 6.07828 20.08 6.07828 21.36C6.07828 22.72 6.50495 23.8533 7.35828 24.76C8.21161 25.6933 9.31828 26.16 10.6783 26.16C12.1983 26.16 13.5449 25.6133 14.7183 24.52C15.8916 23.4 16.4783 22.0933 16.4783 20.6C16.4783 19.56 16.1983 18.7067 15.6383 18.04C15.0516 17.3467 14.2383 17 13.1983 17C12.4249 17 11.7316 17.24 11.1183 17.72C10.5049 18.2533 10.1983 18.92 10.1983 19.72C10.1983 20.36 10.5449 20.68 11.2383 20.68C11.2916 20.68 11.3316 20.64 11.3583 20.56C11.4383 20.48 11.5049 20.44 11.5583 20.44C11.6116 20.4667 11.6383 20.5067 11.6383 20.56C11.6383 20.8267 11.4916 20.96 11.1983 20.96C10.2916 20.96 9.83828 20.5333 9.83828 19.68C9.83828 18.8267 10.2249 18.08 10.9983 17.44C11.7449 16.8267 12.5449 16.52 13.3983 16.52C14.5449 16.52 15.4783 16.8933 16.1983 17.64C16.9449 18.3867 17.3183 19.3333 17.3183 20.48C17.3183 22.24 16.6249 23.72 15.2383 24.92C13.9316 26.04 12.3849 26.6 10.5983 26.6C8.91828 26.6 7.54495 26.1067 6.47828 25.12C5.33161 24.0533 4.75828 22.7333 4.75828 21.16C4.75828 20.04 5.03828 18.9467 5.59828 17.88C6.82495 15.4533 8.98495 13.64 12.0783 12.44C14.6116 11.4533 17.4916 10.96 20.7183 10.96C23.2516 10.96 25.4783 11.2267 27.3983 11.76C28.2516 11.28 29.0649 10.92 29.8383 10.68C30.6116 10.4133 31.3716 10.28 32.1183 10.28C32.3316 10.28 32.4383 10.3067 32.4383 10.36C32.4383 10.44 32.3983 10.48 32.3183 10.48C32.2116 10.48 32.0649 10.4933 31.8783 10.52C31.7183 10.52 31.5316 10.5333 31.3183 10.56C30.1449 10.6667 28.9983 11.12 27.8783 11.92C30.6783 12.8267 32.0783 14.36 32.0783 16.52C32.0783 16.76 32.0516 17 31.9983 17.24C31.9716 17.4533 31.9316 17.6667 31.8783 17.88C31.5583 19.24 30.2783 20.3467 28.0383 21.2C26.4383 21.76 24.6383 22.12 22.6383 22.28H23.8783C28.5983 22.28 30.9583 23.8933 30.9583 27.12C30.9583 28.96 30.2516 30.5867 28.8383 32C27.6116 33.2267 26.0383 34.1467 24.1183 34.76C23.3449 35.0267 22.5316 35.2133 21.6783 35.32C20.8249 35.4533 19.9449 35.52 19.0383 35.52C17.9449 35.52 16.8116 35.4267 15.6383 35.24C14.4916 35.0533 13.3183 34.76 12.1183 34.36C9.98495 35.5333 8.11828 36.12 6.51828 36.12ZM20.8783 22.16C26.5316 21.6267 29.6116 20.1867 30.1183 17.84C30.2249 17.3333 30.2783 16.8267 30.2783 16.32C30.2783 14.4533 29.2783 13.1467 27.2783 12.4C24.9583 14.3467 22.8249 17.6 20.8783 22.16ZM17.5983 34.96C20.3449 34.96 22.7849 34.3067 24.9183 33C27.5049 31.48 28.7983 29.4667 28.7983 26.96C28.7983 23.9467 26.5983 22.44 22.1983 22.44C21.9316 22.44 21.6783 22.4533 21.4383 22.48C21.1983 22.48 20.9716 22.4933 20.7583 22.52C19.4516 25.5867 18.4116 27.76 17.6383 29.04C16.3049 31.1733 14.5983 32.8667 12.5183 34.12C14.3583 34.68 16.0516 34.96 17.5983 34.96ZM6.79828 35.8C8.39828 35.8 9.93161 35.2533 11.3983 34.16C10.2516 33.76 9.23828 33.4667 8.35828 33.28C7.50495 33.0933 6.81161 33 6.27828 33C4.65161 33 3.83828 33.48 3.83828 34.44C3.83828 35.3467 4.82495 35.8 6.79828 35.8ZM37.6827 35.4C36.376 35.4 35.4693 35.04 34.9627 34.32C34.456 33.5733 34.2027 32.5333 34.2027 31.2C34.2027 29.28 35.0027 27.28 36.6027 25.2C38.3093 23.0133 40.0827 21.92 41.9227 21.92C43.2827 21.92 43.9627 22.3867 43.9627 23.32C43.9627 24.4667 43.336 25.6667 42.0827 26.92C40.296 28.7333 38.416 29.64 36.4427 29.64C36.1227 30.4667 35.9627 31.2933 35.9627 32.12C35.9627 33.0267 36.136 33.7333 36.4827 34.24C36.8293 34.7467 37.336 35 38.0027 35C38.696 35 39.416 34.8133 40.1627 34.44C40.9093 34.04 41.5493 33.5733 42.0827 33.04C42.536 32.5867 43.0427 31.9733 43.6027 31.2C44.1893 30.4 44.776 29.4267 45.3627 28.28C45.4427 28.1467 45.5227 28.08 45.6027 28.08C45.7627 28.08 45.7627 28.2133 45.6027 28.48C45.1493 29.3867 44.656 30.2533 44.1227 31.08C43.616 31.9067 42.936 32.7067 42.0827 33.48C41.576 33.9867 40.936 34.44 40.1627 34.84C39.3893 35.2133 38.5627 35.4 37.6827 35.4ZM36.4827 29.36C37.9493 29.36 39.5893 28.5733 41.4027 27V26.96C41.9093 26.5333 42.3893 25.9467 42.8427 25.2C43.376 24.3733 43.6427 23.6667 43.6427 23.08C43.6427 22.6533 43.3227 22.44 42.6827 22.44C41.6693 22.44 40.4427 23.3467 39.0027 25.16C38.336 25.96 37.8027 26.7067 37.4027 27.4C37.0027 28.0933 36.696 28.7467 36.4827 29.36ZM47.1542 35.2C46.1942 35.2 45.5142 34.8 45.1142 34C44.7142 33.2 44.5142 32.32 44.5142 31.36C44.5142 30.3733 44.6609 29.52 44.9542 28.8C45.3276 27.8133 45.8742 26.8133 46.5942 25.8C47.3142 24.76 48.1809 23.8933 49.1942 23.2C50.2076 22.48 51.3142 22.12 52.5142 22.12C53.8476 22.12 54.5142 22.8933 54.5142 24.44C54.5142 25.2133 54.3542 26.04 54.0342 26.92L60.5542 14.12H60.6342C60.7409 14.2267 60.9276 14.28 61.1942 14.28C61.7542 14.28 62.4209 13.9733 63.1942 13.36L63.2742 13.44L57.2742 24.92C54.9542 29.3733 53.7942 32.2933 53.7942 33.68C53.7942 34.4 54.0876 34.76 54.6742 34.76C54.9942 34.76 55.3809 34.64 55.8342 34.4C56.2876 34.16 56.7676 33.76 57.2742 33.2C57.9142 32.4533 58.4609 31.7467 58.9142 31.08C59.3942 30.3867 59.9409 29.4533 60.5542 28.28C60.6342 28.1467 60.7142 28.08 60.7942 28.08C60.9542 28.08 60.9542 28.2133 60.7942 28.48C60.3142 29.3867 59.7942 30.2933 59.2342 31.2C58.7009 32.08 58.0476 32.9067 57.2742 33.68C56.3142 34.64 55.4209 35.12 54.5942 35.12C53.9276 35.12 53.3676 34.9333 52.9142 34.56C52.4876 34.1867 52.2742 33.5467 52.2742 32.64C52.2742 31.7867 52.4209 30.84 52.7142 29.8C50.8476 33.4 48.9942 35.2 47.1542 35.2ZM47.4342 34.84C48.1542 34.84 49.0076 34.3067 49.9942 33.24C50.9809 32.1733 52.0076 30.6267 53.0742 28.6C53.1809 28.3867 53.3142 28.0533 53.4742 27.6C53.6609 27.12 53.8209 26.6 53.9542 26.04C54.1142 25.4533 54.1942 24.9067 54.1942 24.4C54.1942 23.8667 54.0876 23.4267 53.8742 23.08C53.6609 22.7333 53.2876 22.56 52.7542 22.56C52.2476 22.56 51.7009 22.7467 51.1142 23.12C50.5542 23.4667 49.9676 24.0667 49.3542 24.92C48.3409 26.28 47.6076 27.6 47.1542 28.88C47.1009 29.04 47.0076 29.36 46.8742 29.84C46.7409 30.2933 46.6209 30.8133 46.5142 31.4C46.4076 31.96 46.3542 32.5067 46.3542 33.04C46.3542 33.5467 46.4342 33.9733 46.5942 34.32C46.7542 34.6667 47.0342 34.84 47.4342 34.84ZM64.3895 35.16C62.7895 35.16 61.9895 34.4533 61.9895 33.04C61.9895 31.92 62.4295 30.64 63.3095 29.2C63.6029 28.6933 64.4162 27.56 65.7495 25.8C66.6295 24.6267 67.0695 23.8 67.0695 23.32C67.0695 22.8667 66.6962 22.64 65.9495 22.64C65.4429 22.64 64.8829 22.6533 64.2695 22.68C63.6829 22.7067 63.2029 22.7333 62.8295 22.76C62.7495 23.1867 62.6295 23.68 62.4695 24.24C62.3095 24.8 62.1229 25.3867 61.9095 26C61.7762 26.3733 61.5629 26.88 61.2695 27.52C61.0029 28.16 60.6429 28.84 60.1895 29.56C60.1095 29.6667 60.0429 29.72 59.9895 29.72C59.9629 29.72 59.9495 29.6933 59.9495 29.64C59.9495 29.5067 60.0029 29.3333 60.1095 29.12C60.3229 28.7467 60.5629 28.2933 60.8295 27.76C61.0962 27.2 61.3495 26.5867 61.5895 25.92C61.8029 25.3333 61.9895 24.72 62.1495 24.08C62.3362 23.4133 62.4429 22.96 62.4695 22.72C61.8295 22.32 61.5095 21.72 61.5095 20.92C61.5095 20.0133 61.8295 19.56 62.4695 19.56C62.9229 19.56 63.1495 19.9733 63.1495 20.8C63.1495 20.9867 63.1229 21.2133 63.0695 21.48C63.0162 21.7467 62.9495 22.0667 62.8695 22.44C63.2429 22.4133 63.8295 22.3867 64.6295 22.36C65.4562 22.3067 66.2429 22.28 66.9895 22.28C68.3495 22.28 69.0295 22.6933 69.0295 23.52C69.0295 24.4 67.9762 26.2133 65.8695 28.96C65.4162 29.6267 64.9095 30.3867 64.3495 31.24C63.8162 32.0667 63.5495 32.92 63.5495 33.8C63.5495 34.04 63.6029 34.2667 63.7095 34.48C63.8162 34.6933 64.0429 34.8 64.3895 34.8C65.5362 34.8 66.8029 34.1067 68.1895 32.72C68.8829 32.0267 69.5229 31.28 70.1095 30.48C70.6962 29.68 71.2295 28.7867 71.7095 27.8C71.8162 27.5867 71.9095 27.48 71.9895 27.48C72.0429 27.48 72.0695 27.52 72.0695 27.6C72.0695 27.7333 72.0295 27.88 71.9495 28.04C71.4962 28.9733 70.9495 29.88 70.3095 30.76C69.6695 31.6133 68.9629 32.4267 68.1895 33.2C66.8829 34.5067 65.6162 35.16 64.3895 35.16ZM74.647 35.36C73.4737 35.36 72.5804 34.8533 71.967 33.84C71.407 32.9867 71.127 31.9467 71.127 30.72C71.127 28.6133 71.7937 26.6533 73.127 24.84C74.5937 22.8667 76.3537 21.88 78.407 21.88C79.447 21.88 80.247 22.24 80.807 22.96C81.3404 23.6533 81.607 24.5333 81.607 25.6C81.607 26.08 81.5537 26.5733 81.447 27.08C81.367 27.5867 81.2337 28.12 81.047 28.68C80.647 29.8533 80.1537 30.7733 79.567 31.44L79.647 31.56C79.9137 31.7467 80.2337 31.84 80.607 31.84C81.3804 31.84 82.0337 31.5867 82.567 31.08C83.1004 30.5733 83.7004 29.6667 84.367 28.36C84.3937 28.2533 84.447 28.2 84.527 28.2C84.5804 28.2 84.6204 28.24 84.647 28.32C84.6737 28.3733 84.6604 28.4533 84.607 28.56C84.047 29.7333 83.447 30.6267 82.807 31.24C82.1937 31.8533 81.4737 32.16 80.647 32.16C80.1137 32.16 79.7004 32.0133 79.407 31.72C79.1404 32.2 78.847 32.6533 78.527 33.08C78.207 33.48 77.847 33.84 77.447 34.16C76.5404 34.96 75.607 35.36 74.647 35.36ZM74.927 35.04C76.3404 35.04 77.727 33.96 79.087 31.8C79.087 31.72 79.127 31.64 79.207 31.56C78.727 30.76 78.487 30 78.487 29.28C78.487 29.2533 78.487 29.2 78.487 29.12C78.487 29.0133 78.5004 28.88 78.527 28.72C78.5537 28.4267 78.607 28.1333 78.687 27.84C78.767 27.52 78.9004 27.2267 79.087 26.96C79.487 26.32 79.967 26 80.527 26H80.887C80.9937 26.0267 81.0737 26.04 81.127 26.04C81.1804 26.04 81.2204 26.04 81.247 26.04C81.247 23.64 80.487 22.44 78.967 22.44C77.687 22.44 76.4737 23.2133 75.327 24.76C74.3937 25.9867 73.727 27.36 73.327 28.88C73.087 29.7067 72.967 30.5733 72.967 31.48C72.967 33.8533 73.6204 35.04 74.927 35.04ZM86.8167 35.48C84.1234 35.48 82.7767 34.2 82.7767 31.64C82.7767 30.92 82.8967 30.1467 83.1367 29.32V29.36C83.2701 28.88 83.5234 28.4133 83.8967 27.96C84.3501 27.4 84.7634 27.12 85.1367 27.12C85.1367 27.12 85.1767 27.12 85.2567 27.12C85.3367 27.12 85.4701 27.1467 85.6567 27.2L86.0967 26.52C86.4701 25.96 86.8034 25.4 87.0967 24.84C87.4167 24.2533 87.7501 23.68 88.0967 23.12C89.0834 21.4133 89.8301 20.4933 90.3367 20.36C90.4967 20.3067 90.6167 20.28 90.6967 20.28C91.0967 20.28 91.2967 20.4267 91.2967 20.72C91.2967 21.0667 91.0034 21.28 90.4167 21.36C89.8834 21.44 89.5501 21.5067 89.4167 21.56C89.2034 21.72 89.0967 22.0667 89.0967 22.6C89.0967 23.16 89.4567 24.1067 90.1767 25.44C90.8967 26.7467 91.2567 27.9067 91.2567 28.92C91.2567 29.1867 91.2301 29.44 91.1767 29.68C91.1501 29.92 91.1101 30.1733 91.0567 30.44C90.3367 33.4533 88.4301 34.96 85.3367 34.96C85.9501 35.0933 86.5101 35.16 87.0167 35.16C87.9501 35.16 88.8567 35 89.7367 34.68C90.6167 34.3333 91.4301 33.8667 92.1767 33.28C92.9501 32.6667 93.6567 31.9333 94.2967 31.08C94.9634 30.2 95.5367 29.2667 96.0167 28.28C96.0967 28.12 96.1767 28.04 96.2567 28.04C96.4167 28.04 96.4301 28.1733 96.2967 28.44C95.8701 29.24 95.4167 30 94.9367 30.72C94.4834 31.4133 93.9901 32.04 93.4567 32.6C92.8167 33.24 91.9501 33.88 90.8567 34.52C89.7634 35.16 88.4167 35.48 86.8167 35.48ZM85.0567 34.64C86.4167 34.64 87.5367 33.6133 88.4167 31.56C89.1367 29.96 89.4967 28.3467 89.4967 26.72C89.4967 26.5067 89.4567 26.2267 89.3767 25.88C89.3234 25.5067 89.2301 25.0667 89.0967 24.56C88.9901 24.08 88.9101 23.6667 88.8567 23.32C88.8034 22.9467 88.7901 22.6267 88.8167 22.36C88.3101 23.3733 87.8034 24.2933 87.2967 25.12C86.7901 25.9467 86.3101 26.6933 85.8567 27.36C85.9901 27.5733 86.0567 27.7867 86.0567 28C86.0567 28.3733 85.9101 28.7867 85.6167 29.24C85.4301 29.5067 85.1101 29.76 84.6567 30C84.2034 30.24 83.8834 30.4667 83.6967 30.68C83.4034 31.1067 83.2567 31.6667 83.2567 32.36C83.2567 33.88 83.8567 34.64 85.0567 34.64Z" fill="black"></path><path d="M47.7013 60.887C45.432 60.887 43.5573 60.295 42.0773 59.111C40.4493 57.8037 39.6353 56.0523 39.6353 53.857C39.6353 53.1417 39.7216 52.5127 39.8943 51.97C40.5356 49.676 41.806 47.826 43.7053 46.42C45.506 45.1127 47.652 44.3233 50.1433 44.052C49.3786 43.238 48.9963 42.3377 48.9963 41.351C48.9963 39.6983 49.761 38.3663 51.2903 37.355C52.6223 36.467 54.1516 36.023 55.8783 36.023C58.7396 36.023 60.1703 37.0097 60.1703 38.983C60.1703 39.7477 59.8743 40.426 59.2823 41.018C58.6903 41.61 58.012 41.906 57.2473 41.906C56.828 41.906 56.458 41.8197 56.1373 41.647C55.718 41.425 55.5083 41.129 55.5083 40.759C55.5083 40.685 55.533 40.574 55.5823 40.426C55.5823 40.278 55.6316 40.204 55.7303 40.204C55.8043 40.204 55.8413 40.2533 55.8413 40.352C55.8413 40.426 55.829 40.5 55.8043 40.574C55.755 40.6727 55.7303 40.7467 55.7303 40.796C55.7303 41.2647 55.977 41.499 56.4703 41.499C57.2103 41.499 57.8763 41.277 58.4683 40.833C59.1096 40.3397 59.4303 39.723 59.4303 38.983C59.4303 38.169 59.0973 37.5277 58.4313 37.059C57.864 36.6397 57.1486 36.43 56.2853 36.43C54.6326 36.43 53.2266 36.9357 52.0673 37.947C50.8586 39.0077 50.2543 40.352 50.2543 41.98C50.2543 42.794 50.4516 43.4723 50.8463 44.015C50.9943 44.015 51.1423 44.015 51.2903 44.015C51.4383 43.9903 51.5863 43.978 51.7343 43.978C54.4723 43.978 55.8413 44.3603 55.8413 45.125C55.8413 45.6183 55.3973 45.865 54.5093 45.865C53.128 45.865 51.8823 45.458 50.7723 44.644C46.0116 45.5073 43.101 47.9617 42.0403 52.007C41.8676 52.599 41.7813 53.265 41.7813 54.005C41.7813 55.8797 42.3856 57.4213 43.5943 58.63C44.803 59.7647 46.3693 60.332 48.2933 60.332C50.612 60.332 52.7456 59.592 54.6943 58.112C56.791 56.484 57.8393 54.5477 57.8393 52.303C57.8393 50.1323 56.569 49.047 54.0283 49.047C53.2636 49.047 52.499 49.1333 51.7343 49.306C50.9943 49.4787 50.242 49.75 49.4773 50.12C49.0333 50.3173 48.6263 50.564 48.2563 50.86C47.8863 51.1313 47.541 51.4397 47.2203 51.785C46.505 52.6483 46.1473 53.4993 46.1473 54.338C46.1473 55.078 46.394 55.6947 46.8873 56.188C47.3806 56.6813 47.9973 56.928 48.7373 56.928C49.5513 56.928 50.2666 56.743 50.8833 56.373C51.6233 55.9537 51.9933 55.374 51.9933 54.634C51.9933 54.412 52.0673 54.301 52.2153 54.301C52.4126 54.301 52.5113 54.486 52.5113 54.856C52.5113 55.67 52.0796 56.336 51.2163 56.854C50.5256 57.2733 49.724 57.483 48.8113 57.483C47.7013 57.483 46.801 57.0637 46.1103 56.225C45.4443 55.411 45.1113 54.4613 45.1113 53.376C45.1113 51.2053 46.1226 49.639 48.1453 48.677C49.2553 48.159 50.908 47.9 53.1033 47.9C54.386 47.9 56.2853 48.011 58.8013 48.233C61.3173 48.455 63.2043 48.566 64.4623 48.566C68.3843 48.566 70.3453 47.7027 70.3453 45.976C70.3453 45.014 69.815 44.4467 68.7543 44.274C68.5323 44.2247 68.4213 44.1137 68.4213 43.941C68.4213 43.719 68.5323 43.608 68.7543 43.608C69.3216 43.608 69.852 43.8547 70.3453 44.348C70.7646 44.8413 70.9743 45.384 70.9743 45.976C70.9743 46.0253 70.9743 46.087 70.9743 46.161C70.9743 46.235 70.962 46.2967 70.9373 46.346C70.5426 48.27 68.3966 49.232 64.4993 49.232C63.6606 49.232 62.4766 49.195 60.9473 49.121C60.1086 49.0717 59.3933 49.0347 58.8013 49.01C58.2093 48.9853 57.7283 48.973 57.3583 48.973C58.6163 49.565 59.2453 50.712 59.2453 52.414C59.2453 54.9547 57.9133 57.0637 55.2493 58.741C52.906 60.1717 50.39 60.887 47.7013 60.887ZM53.9543 45.495C54.719 45.495 55.1013 45.3347 55.1013 45.014C55.1013 44.5947 54.5463 44.385 53.4363 44.385C53.091 44.385 52.7333 44.3973 52.3633 44.422C52.018 44.4467 51.6726 44.4837 51.3273 44.533C52.092 45.1743 52.9676 45.495 53.9543 45.495Z" fill="black" fill-opacity="0.2"></path><path d="M15.297 90.88C12.8704 90.88 10.8704 90.1733 9.29703 88.76C7.67036 87.2933 6.85703 85.3467 6.85703 82.92C6.85703 80.8133 7.4837 79.0267 8.73703 77.56C10.0437 76.0133 11.7637 75.24 13.897 75.24C14.0304 75.24 14.1637 75.2533 14.297 75.28C14.457 75.28 14.5904 75.28 14.697 75.28C15.977 75.44 17.0437 76.0667 17.897 77.16C18.777 78.2267 19.217 79.4 19.217 80.68C19.217 82.12 18.6304 83.3867 17.457 84.48C16.3104 85.52 15.0037 86.04 13.537 86.04C13.2437 86.04 13.097 85.9867 13.097 85.88C13.097 85.8 13.337 85.72 13.817 85.64C14.537 85.56 15.177 85.3733 15.737 85.08C16.297 84.7867 16.7904 84.4133 17.217 83.96C18.017 83.0267 18.417 81.84 18.417 80.4C18.417 79.3067 18.097 78.32 17.457 77.44C16.7104 76.48 15.8304 75.9467 14.817 75.84C14.7104 75.84 14.577 75.84 14.417 75.84C14.2837 75.8133 14.137 75.8 13.977 75.8C12.0304 75.8 10.4304 76.4533 9.17703 77.76C8.0037 79.0667 7.41703 80.6933 7.41703 82.64C7.41703 84.9067 8.09703 86.7467 9.45703 88.16C10.8704 89.5733 12.697 90.28 14.937 90.28C15.0704 90.28 15.1904 90.2667 15.297 90.24C15.4304 90.24 15.537 90.24 15.617 90.24C17.9904 90 20.1237 88.8933 22.017 86.92C23.1104 85.7733 24.5237 83.76 26.257 80.88C26.657 80.1867 27.1504 79.3467 27.737 78.36C28.3504 77.3467 29.0837 76.1867 29.937 74.88C31.2437 72.9067 32.5904 71.1867 33.977 69.72C35.3637 68.2267 36.777 66.9867 38.217 66C35.177 64.4267 33.297 63.5067 32.577 63.24C30.3104 62.3067 28.297 61.84 26.537 61.84C25.8704 61.84 25.217 61.9067 24.577 62.04C23.937 62.1733 23.3237 62.36 22.737 62.6C21.3504 63.16 20.217 64.08 19.337 65.36C18.4304 66.64 17.977 68.0133 17.977 69.48C17.977 71.0267 18.497 72.28 19.537 73.24C20.577 74.2 21.8704 74.68 23.417 74.68C24.937 74.68 26.337 74.1867 27.617 73.2C28.897 72.16 29.537 70.8533 29.537 69.28C29.537 68.1867 29.1904 67.2267 28.497 66.4C27.777 65.5467 26.857 65.12 25.737 65.12C24.857 65.12 24.0704 65.4267 23.377 66.04C22.657 66.68 22.297 67.44 22.297 68.32C22.297 68.9067 22.4837 69.36 22.857 69.68C23.2304 70.0267 23.417 70.2533 23.417 70.36C23.417 70.3867 23.4037 70.4133 23.377 70.44C23.297 70.44 23.177 70.3867 23.017 70.28C22.297 69.7467 21.937 69.0667 21.937 68.24C21.937 67.2267 22.337 66.3867 23.137 65.72C23.8837 65.0533 24.777 64.72 25.817 64.72C26.9904 64.72 28.0304 65.1467 28.937 66C29.7904 66.9067 30.217 67.96 30.217 69.16C30.217 70.8667 29.4837 72.32 28.017 73.52C26.6037 74.6933 25.0437 75.28 23.337 75.28C21.5237 75.28 20.057 74.6933 18.937 73.52C17.7904 72.4 17.217 70.92 17.217 69.08C17.217 67.4267 17.657 65.9067 18.537 64.52C19.497 63.0267 20.7104 62.0267 22.177 61.52C23.537 61.0133 24.9504 60.76 26.417 60.76C27.4304 60.76 28.4704 60.8933 29.537 61.16C30.6304 61.4 31.737 61.8133 32.857 62.4C33.8437 62.9067 34.817 63.44 35.777 64C36.737 64.56 37.7104 65.1067 38.697 65.64C40.457 64.4933 41.9904 63.92 43.297 63.92C43.8837 63.92 44.457 64.08 45.017 64.4C45.6837 64.8 46.017 65.2667 46.017 65.8C46.017 66.4133 45.6837 66.8933 45.017 67.24C44.457 67.56 43.857 67.72 43.217 67.72C42.7637 67.72 42.1904 67.6133 41.497 67.4C41.1504 67.96 40.8304 68.64 40.537 69.44C40.2704 70.24 40.0704 71.1733 39.937 72.24C39.857 72.7467 39.777 73.44 39.697 74.32C39.6437 75.1733 39.5904 76.2133 39.537 77.44C39.297 82.32 38.5504 85.5067 37.297 87C37.777 86.9467 38.337 86.6933 38.977 86.24C41.4304 84.5067 43.777 80.76 46.017 75C50.0437 64.7333 54.497 59.6 59.377 59.6C60.5237 59.6 61.4437 59.8133 62.137 60.24C63.017 60.7467 63.457 61.5333 63.457 62.6C63.457 62.7067 63.4304 62.8533 63.377 63.04C63.3237 63.2267 63.257 63.4267 63.177 63.64C63.017 64.1733 62.8304 64.44 62.617 64.44C62.537 64.44 62.497 64.36 62.497 64.2H62.457C62.5904 63.96 62.6837 63.7333 62.737 63.52C62.817 63.28 62.857 63.0533 62.857 62.84C62.857 62.1733 62.5504 61.6133 61.937 61.16C61.377 60.76 60.737 60.56 60.017 60.56C58.497 60.56 56.9904 61.1467 55.497 62.32C54.5104 63.0667 53.577 63.9733 52.697 65.04C51.817 66.08 50.977 67.2667 50.177 68.6C49.6437 69.4533 49.0704 70.5067 48.457 71.76C47.8437 72.9867 47.177 74.4133 46.457 76.04C45.7904 77.5067 45.177 78.8 44.617 79.92C44.057 81.04 43.537 81.96 43.057 82.68C41.4304 85.1067 39.617 86.72 37.617 87.52C37.1904 87.68 36.7904 87.8 36.417 87.88C36.0437 87.9867 35.7104 88.04 35.417 88.04C35.177 88.04 35.0037 88.0133 34.897 87.96L34.817 87.92C34.817 87.8667 35.0304 87.76 35.457 87.6C36.1504 87.36 36.7237 86.92 37.177 86.28C37.3904 85.9867 37.497 85.3467 37.497 84.36C37.497 84.04 37.4837 83.64 37.457 83.16C37.4304 82.6533 37.3904 82.0667 37.337 81.4C37.2837 80.7067 37.2437 80.12 37.217 79.64C37.1904 79.16 37.177 78.7467 37.177 78.4C37.177 76.4267 37.4437 74.44 37.977 72.44C38.617 70.04 39.537 68.28 40.737 67.16C40.4437 67.0267 40.1104 66.88 39.737 66.72C39.3637 66.5333 38.9637 66.3467 38.537 66.16C37.097 67.2 35.6304 68.5867 34.137 70.32C33.417 71.1733 32.7637 72.0267 32.177 72.88C31.5904 73.7067 31.097 74.5333 30.697 75.36C30.4837 75.7867 30.2304 76.3333 29.937 77C29.6437 77.64 29.2704 78.3867 28.817 79.24C25.1904 86.36 20.9504 90.2267 16.097 90.84C15.9904 90.8667 15.8704 90.88 15.737 90.88C15.6037 90.88 15.457 90.88 15.297 90.88ZM43.297 67.44C44.5237 67.44 45.137 67.0267 45.137 66.2C45.137 65.72 44.8437 65.2933 44.257 64.92C43.7237 64.6267 43.1904 64.48 42.657 64.48C41.617 64.48 40.4037 64.9333 39.017 65.84C39.3904 66.0267 39.7504 66.2133 40.097 66.4C40.4437 66.56 40.777 66.7067 41.097 66.84C41.657 66.36 42.097 66.12 42.417 66.12C42.577 66.12 42.657 66.1733 42.657 66.28C42.657 66.36 42.6037 66.4 42.497 66.4C42.2304 66.5867 41.977 66.8133 41.737 67.08C42.377 67.32 42.897 67.44 43.297 67.44ZM51.878 87.4C50.5713 87.4 49.6646 87.04 49.158 86.32C48.6513 85.5733 48.398 84.5333 48.398 83.2C48.398 81.28 49.198 79.28 50.798 77.2C52.5046 75.0133 54.278 73.92 56.118 73.92C57.478 73.92 58.158 74.3867 58.158 75.32C58.158 76.4667 57.5313 77.6667 56.278 78.92C54.4913 80.7333 52.6113 81.64 50.638 81.64C50.318 82.4667 50.158 83.2933 50.158 84.12C50.158 85.0267 50.3313 85.7333 50.678 86.24C51.0246 86.7467 51.5313 87 52.198 87C52.8913 87 53.6113 86.8133 54.358 86.44C55.1046 86.04 55.7446 85.5733 56.278 85.04C56.7313 84.5867 57.238 83.9733 57.798 83.2C58.3846 82.4 58.9713 81.4267 59.558 80.28C59.638 80.1467 59.718 80.08 59.798 80.08C59.958 80.08 59.958 80.2133 59.798 80.48C59.3446 81.3867 58.8513 82.2533 58.318 83.08C57.8113 83.9067 57.1313 84.7067 56.278 85.48C55.7713 85.9867 55.1313 86.44 54.358 86.84C53.5846 87.2133 52.758 87.4 51.878 87.4ZM50.678 81.36C52.1446 81.36 53.7846 80.5733 55.598 79V78.96C56.1046 78.5333 56.5846 77.9467 57.038 77.2C57.5713 76.3733 57.838 75.6667 57.838 75.08C57.838 74.6533 57.518 74.44 56.878 74.44C55.8646 74.44 54.638 75.3467 53.198 77.16C52.5313 77.96 51.998 78.7067 51.598 79.4C51.198 80.0933 50.8913 80.7467 50.678 81.36ZM62.1895 87.32C60.0295 87.32 58.9495 85.8933 58.9495 83.04C58.9495 81.3333 59.3229 79.3467 60.0695 77.08C60.4162 76.04 60.7895 75.04 61.1895 74.08C61.5895 73.12 62.0162 72.2267 62.4695 71.4C63.0295 70.3867 63.6162 69.4267 64.2295 68.52C64.8429 67.5867 65.4962 66.7067 66.1895 65.88C68.1895 63.4 69.8962 62.16 71.3095 62.16C71.8962 62.16 72.1895 62.44 72.1895 63C72.1895 63.7467 71.8829 64.8933 71.2695 66.44C69.2162 71.5333 65.8829 76.1733 61.2695 80.36C60.8162 82.04 60.5895 83.3867 60.5895 84.4C60.5895 86.1333 61.1362 87 62.2295 87C62.6029 87 62.9629 86.9333 63.3095 86.8C63.6562 86.64 63.9629 86.4667 64.2295 86.28C64.9495 85.72 65.5629 85.0667 66.0695 84.32C66.5762 83.5733 67.0162 82.8267 67.3895 82.08C67.7629 81.3333 68.0962 80.7067 68.3895 80.2C68.4695 80.0667 68.5495 80.0267 68.6295 80.08C68.7095 80.1067 68.7229 80.1867 68.6695 80.32C68.1362 81.44 67.5495 82.5867 66.9095 83.76C66.2695 84.9333 65.4562 85.8667 64.4695 86.56C63.7495 87.0667 62.9895 87.32 62.1895 87.32ZM61.3895 79.96C61.9229 79.5067 62.4829 78.9467 63.0695 78.28C63.6562 77.6133 64.2829 76.8533 64.9495 76C65.6162 75.1467 66.2962 74.2 66.9895 73.16C67.6829 72.12 68.3762 71 69.0695 69.8C70.9362 66.6267 71.8695 64.4133 71.8695 63.16C71.8695 62.7067 71.7229 62.48 71.4295 62.48C70.4429 62.48 68.6829 64.6 66.1495 68.84C65.4829 70.04 64.8829 71.2 64.3495 72.32C63.7095 73.7333 63.1362 75.08 62.6295 76.36C62.1495 77.6133 61.7362 78.8133 61.3895 79.96ZM70.9786 87.32C68.8186 87.32 67.7386 85.8933 67.7386 83.04C67.7386 81.3333 68.1119 79.3467 68.8586 77.08C69.2053 76.04 69.5786 75.04 69.9786 74.08C70.3786 73.12 70.8053 72.2267 71.2586 71.4C71.8186 70.3867 72.4053 69.4267 73.0186 68.52C73.6319 67.5867 74.2853 66.7067 74.9786 65.88C76.9786 63.4 78.6853 62.16 80.0986 62.16C80.6853 62.16 80.9786 62.44 80.9786 63C80.9786 63.7467 80.6719 64.8933 80.0586 66.44C78.0053 71.5333 74.6719 76.1733 70.0586 80.36C69.6053 82.04 69.3786 83.3867 69.3786 84.4C69.3786 86.1333 69.9253 87 71.0186 87C71.3919 87 71.7519 86.9333 72.0986 86.8C72.4453 86.64 72.7519 86.4667 73.0186 86.28C73.7386 85.72 74.3519 85.0667 74.8586 84.32C75.3653 83.5733 75.8053 82.8267 76.1786 82.08C76.5519 81.3333 76.8853 80.7067 77.1786 80.2C77.2586 80.0667 77.3386 80.0267 77.4186 80.08C77.4986 80.1067 77.5119 80.1867 77.4586 80.32C76.9253 81.44 76.3386 82.5867 75.6986 83.76C75.0586 84.9333 74.2453 85.8667 73.2586 86.56C72.5386 87.0667 71.7786 87.32 70.9786 87.32ZM70.1786 79.96C70.7119 79.5067 71.2719 78.9467 71.8586 78.28C72.4453 77.6133 73.0719 76.8533 73.7386 76C74.4053 75.1467 75.0853 74.2 75.7786 73.16C76.4719 72.12 77.1653 71 77.8586 69.8C79.7253 66.6267 80.6586 64.4133 80.6586 63.16C80.6586 62.7067 80.5119 62.48 80.2186 62.48C79.2319 62.48 77.4719 64.6 74.9386 68.84C74.2719 70.04 73.6719 71.2 73.1386 72.32C72.4986 73.7333 71.9253 75.08 71.4186 76.36C70.9386 77.6133 70.5253 78.8133 70.1786 79.96ZM83.3277 71.8C82.4743 71.8 82.0477 71.3867 82.0477 70.56C82.0477 69.6533 82.461 69.2 83.2877 69.2C84.141 69.2 84.5677 69.6133 84.5677 70.44C84.5677 71.3467 84.1543 71.8 83.3277 71.8ZM78.6077 87.4C76.8477 87.4 75.9677 86.4267 75.9677 84.48C75.9677 83.0667 76.381 81.5733 77.2077 80L80.2077 74.12H80.3277C80.4077 74.2267 80.5677 74.28 80.8077 74.28C81.3143 74.28 81.981 73.9733 82.8077 73.36L82.8877 73.44L79.4877 80.04C78.0743 82.76 77.3677 84.6533 77.3677 85.72C77.3677 86.2 77.501 86.5333 77.7677 86.72C78.0343 86.9067 78.341 87 78.6877 87C79.061 87 79.421 86.92 79.7677 86.76C80.141 86.6 80.461 86.4267 80.7277 86.24C81.4477 85.68 82.0477 85.04 82.5277 84.32C83.0343 83.5733 83.4743 82.8267 83.8477 82.08C84.221 81.3333 84.5543 80.7067 84.8477 80.2C84.9277 80.0667 85.0077 80.0267 85.0877 80.08C85.1677 80.1067 85.181 80.1867 85.1277 80.32C84.5943 81.44 84.0077 82.5867 83.3677 83.76C82.7277 84.9333 81.9143 85.8667 80.9277 86.56C80.581 86.8 80.2077 87 79.8077 87.16C79.4343 87.32 79.0343 87.4 78.6077 87.4Z" fill="black"></path></svg> 