<?xml version="1.0" encoding="UTF-8"?> <svg xmlns="http://www.w3.org/2000/svg" width="743" height="522" viewBox="0 0 743 522" fill="none"><path fill-rule="evenodd" clip-rule="evenodd" d="M375.958 0.121981C374.745 0.241445 370.9 0.598742 367.414 0.915131C334.278 3.92573 301.194 17.4246 274.536 38.8119C242.584 64.447 219.938 101.952 212.822 141.022C210.208 155.371 210.045 157.261 210.045 173.269C210.045 190.298 210.786 197.105 214.17 211.181C218.688 229.972 223.398 239.904 231.107 246.896C237.404 252.606 243.944 255.076 252.797 255.087C275.786 255.115 306.003 232.946 327.882 199.998C341.274 179.832 349.213 160.243 353.862 135.902C356.782 120.609 358.947 112.773 362.167 105.833C367.361 94.6408 375.699 87.2924 387.257 83.721C390.727 82.6486 392.542 82.4473 398.557 82.4669C404.779 82.4877 406.288 82.6781 410.01 83.9141C415.786 85.8316 421.447 89.2562 425.545 93.312C429.998 97.7196 432.321 101.128 434.492 106.445C436.017 110.18 436.495 110.856 437.81 111.131C439.648 111.515 445.98 114.634 447.827 116.064C449.678 117.498 450.095 117.346 450.095 115.234C450.095 110.538 454.055 100.461 458.379 94.152C463.024 87.3737 467.275 85.357 470.24 88.5236C472.593 91.0367 472.029 93.1309 467.745 97.7949C462.611 103.382 459.307 112.477 459.251 121.174C459.181 132.154 461.756 139.424 471.192 148.477C479.192 156.919 476.655 158.521 475.81 158.547C474.966 158.573 474.692 160.891 462.191 149.967C459.191 146.987 457.721 145.58 454.691 141.028C451.691 134.573 451.691 134.573 449.823 124.561C449.396 120.309 449.64 120.366 443.718 123.123C438.894 125.37 435.578 128.487 433.441 132.785C431.678 136.329 431.63 136.614 431.658 143.257C431.683 149.376 431.848 150.509 433.241 154.176C435.06 158.963 436.076 160.766 442.3 170.245C450.89 183.328 454.714 191.729 457.085 202.726C458.649 209.975 458.509 228.689 456.83 236.926C454.1 250.32 448.545 262.697 440.544 273.218C433.539 282.429 428.234 287.757 412.337 301.548C403.905 308.863 401.292 311.705 399.472 315.548C398.192 318.251 398.011 319.3 398.05 323.826C398.098 329.432 398.635 331.182 401.512 335.098C406.58 341.998 417.25 344.634 428.873 341.857C435.381 340.303 445.277 336.797 454.451 332.796C500.452 312.736 535.806 274.95 551.398 229.182C558.338 208.812 561.765 184.236 560.396 164.677C558.002 130.517 548.481 102.652 529.966 75.6248C501.756 34.4441 455.275 6.65758 405.444 1.18406C398.024 0.369086 380.03 -0.27896 375.958 0.121981ZM453.681 61.0774C451.181 66.9988 451.17 73.4362 453.651 78.3522C455.148 81.3181 461.182 87.6257 462.523 87.6257C463.385 87.6257 464.655 84.896 465.533 81.1517C467.296 73.6446 464.113 65.4769 457.611 60.8151C456.418 59.9597 455.218 59.2599 454.945 59.2599C454.671 59.2599 454.102 60.0781 453.681 61.0774ZM487.717 66.0464C480.13 67.8651 474.452 74.3434 472.921 82.9268L472.543 85.0471L476.909 84.7967C481.902 84.5109 485.177 83.1652 489.011 79.8251C491.896 77.3125 494.634 72.0523 495.105 68.1193L495.447 65.2603L493.027 65.3067C491.697 65.3323 489.307 65.6651 487.717 66.0464ZM477.93 91.6357C474.856 92.6345 472.597 93.8624 471.375 95.1988C470.342 96.3275 470.355 96.3586 472.754 98.5837C474.085 99.8187 476.539 101.479 478.206 102.273C480.863 103.539 481.919 103.718 486.75 103.718C491.571 103.718 492.642 103.538 495.293 102.28C496.961 101.489 498.821 100.462 499.427 99.9981C500.507 99.1717 500.484 99.1068 498.325 96.9051C497.112 95.6685 494.514 93.8722 492.551 92.9137C489.559 91.4534 488.265 91.1512 484.558 91.0454C482.033 90.9734 479.189 91.2265 477.93 91.6357ZM419.221 205.049C409.965 228.295 395.21 248.26 378.019 260.8C359.077 274.617 341.265 282.425 287.765 300.364C238.697 316.816 215.014 326.217 194.887 337.232C179.59 345.604 166.619 355.026 175.687 351.179C179.094 349.734 195.82 344.96 205.41 342.695C235.591 335.569 258.491 333.468 277.108 336.117C290.753 338.059 300.743 344.143 307.67 354.733C309.271 357.18 310.826 359.332 311.125 359.515C311.423 359.698 313.914 356.58 316.66 352.586C322.349 344.311 328.728 337.099 335.252 331.568C342.447 325.467 348.716 321.536 364.107 313.472C380.983 304.63 389.225 299.189 397.732 291.268C402.176 287.13 409.678 278.339 412.464 274.004C424.899 254.652 428.803 230.453 423.566 205.186C422.943 202.183 422.261 199.544 422.048 199.321C421.836 199.099 420.564 201.677 419.221 205.049Z" fill="#252222"></path><path d="M393.008 121.939C390.179 117.686 392.307 111.955 397.251 110.514C403.253 108.763 408.76 115.328 406.018 120.965C403.547 126.044 396.108 126.601 393.008 121.939Z" fill="#252222"></path><path d="M7.61775 482.305L16.7591 480.019V382.512L7.61775 380.227V377.941H48.7536C64.1923 377.941 75.5173 380.43 82.7288 385.407C90.0419 390.282 93.6984 396.681 93.6984 404.603C93.6984 410.088 92.124 414.507 88.9754 417.858C85.8267 421.21 81.8147 423.699 76.9393 425.324C71.7592 427.152 66.1729 428.117 60.1803 428.218V428.98C67.5949 429.285 74.0446 430.402 79.5293 432.332C85.1157 434.16 89.7371 437.004 93.3937 440.864C97.1518 444.724 99.0308 449.65 99.0308 455.642C99.0308 464.682 95.3235 471.792 87.9089 476.972C80.4943 482.051 68.4582 484.59 51.8007 484.59H7.61775V482.305ZM48.7536 426.695C52.1054 426.695 55.2033 425.781 58.0473 423.953C60.9928 422.023 63.3289 419.382 65.0556 416.03C66.8839 412.577 67.798 408.768 67.798 404.603C67.798 400.134 66.8839 396.173 65.0556 392.72C63.3289 389.266 60.9928 386.575 58.0473 384.645C55.2033 382.715 52.1054 381.75 48.7536 381.75H41.8976V426.695H48.7536ZM51.8007 480.781C58.0981 480.781 63.2274 478.546 67.1886 474.077C71.1498 469.608 73.1304 463.463 73.1304 455.642C73.1304 447.821 71.1498 441.676 67.1886 437.207C63.2274 432.738 58.0981 430.504 51.8007 430.504H41.8976V480.781H51.8007ZM150.784 486.875C137.783 486.875 127.677 483.32 120.465 476.21C113.254 468.999 109.648 459.096 109.648 446.501C109.648 438.274 111.222 431.113 114.371 425.019C117.52 418.925 121.887 414.253 127.474 411.002C133.162 407.752 139.662 406.127 146.975 406.127C154.288 406.127 160.687 407.498 166.172 410.241C171.758 412.983 176.024 416.69 178.97 421.362C182.017 425.933 183.54 431.012 183.54 436.598C183.54 439.137 183.286 441.321 182.778 443.149L182.017 445.739C177.649 446.653 172.926 447.415 167.848 448.025C157.183 449.548 146.416 450.31 135.548 450.31C135.548 462.092 137.174 470.522 140.424 475.601C143.674 480.578 148.143 483.066 153.831 483.066C157.792 483.066 161.449 482.152 164.801 480.324C168.254 478.394 170.946 475.906 172.875 472.859C174.907 469.71 175.923 466.51 175.923 463.26H179.731C179.731 467.323 178.513 471.183 176.075 474.839C173.637 478.496 170.235 481.441 165.867 483.676C161.5 485.809 156.472 486.875 150.784 486.875ZM135.548 446.501C142.049 446.501 147.331 446.247 151.393 445.739C153.12 445.638 154.948 445.384 156.878 444.978C156.98 444.47 157.234 443.352 157.64 441.626C158.148 439.086 158.402 436.395 158.402 433.551C158.402 425.121 157.284 418.976 155.05 415.116C152.815 411.155 150.124 409.174 146.975 409.174C139.357 409.174 135.548 421.616 135.548 446.501ZM194.901 482.305L204.043 480.019V382.512L194.901 380.227V377.941H214.708C223.849 377.941 228.42 382.512 228.42 391.653V480.019L237.561 482.305V484.59H194.901V482.305ZM246.678 482.305L255.82 480.019V382.512L246.678 380.227V377.941H266.484C275.626 377.941 280.196 382.512 280.196 391.653V480.019L289.338 482.305V484.59H246.678V482.305ZM339.591 486.875C326.59 486.875 316.484 483.32 309.272 476.21C302.061 468.999 298.455 459.096 298.455 446.501C298.455 438.274 300.03 431.113 303.178 425.019C306.327 418.925 310.694 414.253 316.281 411.002C321.969 407.752 328.469 406.127 335.782 406.127C343.095 406.127 349.494 407.498 354.979 410.241C360.565 412.983 364.831 416.69 367.777 421.362C370.824 425.933 372.347 431.012 372.347 436.598C372.347 439.137 372.094 441.321 371.586 443.149L370.824 445.739C366.456 446.653 361.733 447.415 356.655 448.025C345.99 449.548 335.224 450.31 324.356 450.31C324.356 462.092 325.981 470.522 329.231 475.601C332.481 480.578 336.95 483.066 342.638 483.066C346.599 483.066 350.256 482.152 353.608 480.324C357.061 478.394 359.753 475.906 361.683 472.859C363.714 469.71 364.73 466.51 364.73 463.26H368.539C368.539 467.323 367.32 471.183 364.882 474.839C362.444 478.496 359.042 481.441 354.674 483.676C350.307 485.809 345.279 486.875 339.591 486.875ZM324.356 446.501C330.856 446.501 336.138 446.247 340.201 445.739C341.927 445.638 343.756 445.384 345.685 444.978C345.787 444.47 346.041 443.352 346.447 441.626C346.955 439.086 347.209 436.395 347.209 433.551C347.209 425.121 346.092 418.976 343.857 415.116C341.623 411.155 338.931 409.174 335.782 409.174C328.164 409.174 324.356 421.616 324.356 446.501ZM456.119 486.875C447.079 486.875 440.122 484.945 435.246 481.086C430.371 477.226 427.933 472.3 427.933 466.307C427.933 462.346 428.797 458.436 430.523 454.576C431.234 452.748 432.148 451.072 433.266 449.548C437.43 448.532 441.95 447.618 446.825 446.806C457.795 444.978 467.495 443.86 475.925 443.454V438.883C475.925 427.609 474.554 419.839 471.812 415.573C469.069 411.307 464.854 409.174 459.166 409.174C457.033 409.174 455.205 409.428 453.681 409.936L451.548 410.698V433.551L449.568 434.008C447.943 434.211 446.571 434.313 445.454 434.313C442.001 434.313 439.208 433.297 437.075 431.266C435.043 429.133 434.027 426.339 434.027 422.886C434.027 418.214 436.364 414.253 441.036 411.002C445.81 407.752 452.869 406.127 462.213 406.127C470.136 406.127 476.941 407.549 482.629 410.393C488.418 413.135 492.786 416.995 495.731 421.972C498.778 426.847 500.302 432.484 500.302 438.883V480.019L509.443 482.305V484.59H495.731C489.637 484.59 484.914 482.711 481.562 478.953C480.14 477.429 479.023 475.499 478.21 473.163C476.788 475.702 475.113 477.988 473.183 480.019C468.612 484.59 462.924 486.875 456.119 486.875ZM462.213 481.543C465.971 481.543 469.374 479.511 472.421 475.449C473.538 473.925 474.706 471.894 475.925 469.354V447.263C471.253 447.263 466.784 447.517 462.518 448.025C459.369 448.431 457.236 448.685 456.119 448.786C455.611 449.904 455.103 451.427 454.595 453.357C453.58 457.217 453.072 461.026 453.072 464.784C453.072 470.472 453.935 474.687 455.662 477.429C457.389 480.172 459.572 481.543 462.213 481.543ZM518.656 482.305L527.797 480.019V412.983L518.656 410.698V408.412H532.368C538.361 408.412 543.084 410.342 546.537 414.202C547.857 415.725 548.975 417.604 549.889 419.839C551.412 416.995 553.037 414.71 554.764 412.983C559.335 408.412 564.566 406.127 570.457 406.127C576.348 406.127 581.528 407.447 585.997 410.088C590.466 412.627 593.919 416.132 596.357 420.601C597.881 417.655 599.506 415.268 601.232 413.44C605.905 408.565 611.136 406.127 616.925 406.127C622.308 406.127 627.133 407.244 631.399 409.479C635.766 411.713 639.118 414.76 641.454 418.62C643.892 422.48 645.111 426.695 645.111 431.266V480.019L654.252 482.305V484.59H634.446C625.305 484.59 620.734 480.019 620.734 470.878V431.266C620.734 424.664 619.718 419.737 617.687 416.487C615.655 413.135 613.37 411.459 610.831 411.459C607.885 411.459 604.889 413.491 601.842 417.554C600.623 419.483 599.557 421.515 598.642 423.648V480.019L607.784 482.305V484.59H565.124V482.305L574.266 480.019V431.266C574.266 424.664 573.25 419.737 571.218 416.487C569.187 413.135 566.902 411.459 564.362 411.459C561.417 411.459 558.421 413.491 555.374 417.554C554.155 419.483 553.088 421.515 552.174 423.648V480.019L561.315 482.305V484.59H518.656V482.305ZM704.559 486.875C691.558 486.875 681.452 483.32 674.24 476.21C667.029 468.999 663.423 459.096 663.423 446.501C663.423 438.274 664.997 431.113 668.146 425.019C671.295 418.925 675.662 414.253 681.249 411.002C686.936 407.752 693.437 406.127 700.75 406.127C708.063 406.127 714.462 407.498 719.947 410.241C725.533 412.983 729.799 416.69 732.745 421.362C735.792 425.933 737.315 431.012 737.315 436.598C737.315 439.137 737.061 441.321 736.553 443.149L735.792 445.739C731.424 446.653 726.701 447.415 721.623 448.025C710.958 449.548 700.191 450.31 689.323 450.31C689.323 462.092 690.948 470.522 694.199 475.601C697.449 480.578 701.918 483.066 707.606 483.066C711.567 483.066 715.224 482.152 718.576 480.324C722.029 478.394 724.721 475.906 726.65 472.859C728.682 469.71 729.697 466.51 729.697 463.26H733.506C733.506 467.323 732.287 471.183 729.85 474.839C727.412 478.496 724.01 481.441 719.642 483.676C715.275 485.809 710.247 486.875 704.559 486.875ZM689.323 446.501C695.824 446.501 701.105 446.247 705.168 445.739C706.895 445.638 708.723 445.384 710.653 444.978C710.755 444.47 711.009 443.352 711.415 441.626C711.923 439.086 712.177 436.395 712.177 433.551C712.177 425.121 711.059 418.976 708.825 415.116C706.59 411.155 703.899 409.174 700.75 409.174C693.132 409.174 689.323 421.616 689.323 446.501Z" fill="#252222"></path></svg> 