<?xml version="1.0" encoding="UTF-8"?> <svg xmlns="http://www.w3.org/2000/svg" width="92" height="48" viewBox="0 0 92 48" fill="none"><path d="M9.215 37.24C7.055 37.24 5.18833 36.5867 3.615 35.28C1.855 33.92 0.975 32.2 0.975 30.12C0.975 27.9867 1.735 26.08 3.255 24.4C4.72167 22.7733 6.52167 21.76 8.655 21.36C8.60167 21.0667 8.54833 20.7733 8.495 20.48C8.46833 20.1867 8.455 19.8933 8.455 19.6C8.455 18.1867 8.775 16.7867 9.415 15.4C10.1083 13.88 11.0017 12.7733 12.095 12.08C14.2017 10.6933 16.655 10 19.455 10C21.455 10 23.7617 10.3867 26.375 11.16C26.7483 11.2667 27.4817 11.52 28.575 11.92C29.695 12.2933 31.175 12.8267 33.015 13.52C34.6417 12.4533 36.1483 11.92 37.535 11.92C38.8683 11.92 39.535 12.4 39.535 13.36C39.535 14.3467 38.6683 14.84 36.935 14.84C35.975 14.84 34.7883 14.6 33.375 14.12C31.6683 15.88 30.0017 18.6933 28.375 22.56C26.6417 26.72 24.4283 29.9733 21.735 32.32C20.8017 33.1467 19.8683 33.8533 18.935 34.44C18.0283 35.0267 17.1217 35.5067 16.215 35.88C15.3083 36.2267 14.3217 36.5333 13.255 36.8C12.1883 37.0933 11.0283 37.24 9.775 37.24H9.215ZM9.815 36.64C12.2417 36.64 14.655 35.68 17.055 33.76C18.0417 32.9867 18.975 32.1067 19.855 31.12C20.735 30.1067 21.5617 28.9867 22.335 27.76C22.7083 27.1467 23.175 26.3867 23.735 25.48C24.295 24.5467 24.9483 23.48 25.695 22.28C26.3617 21.2667 27.055 20.2533 27.775 19.24C28.5217 18.2267 29.295 17.2133 30.095 16.2C30.4683 15.7467 30.855 15.3333 31.255 14.96C31.6817 14.56 32.1217 14.1867 32.575 13.84C27.215 12.08 23.175 11.2 20.455 11.2C17.2283 11.2 14.6283 12.0933 12.655 13.88C11.8283 14.6267 11.135 15.5867 10.575 16.76C10.0683 17.88 9.815 19.0267 9.815 20.2C9.815 20.3867 9.815 20.56 9.815 20.72C9.815 20.88 9.82833 21.04 9.855 21.2C9.98833 21.1733 10.1083 21.16 10.215 21.16C10.3217 21.16 10.4283 21.16 10.535 21.16C13.3883 21.16 15.1483 22.3333 15.815 24.68C16.9883 24.1733 18.0017 23.4533 18.855 22.52C19.7617 21.48 20.335 20.3733 20.575 19.2C20.575 19.2 20.5617 19.1867 20.535 19.16C20.535 19.1333 20.535 19.0933 20.535 19.04C20.535 18.8267 20.6017 18.72 20.735 18.72C20.8417 18.72 20.895 18.7867 20.895 18.92C20.895 18.9467 20.895 18.9867 20.895 19.04C20.895 19.0933 20.8817 19.16 20.855 19.24C20.1617 22.0933 18.5083 24.04 15.895 25.08C15.9217 25.2667 15.935 25.4533 15.935 25.64C15.9617 25.8 15.975 25.9733 15.975 26.16C15.975 27.8133 15.3217 29.2133 14.015 30.36C12.7617 31.5067 11.295 32.08 9.615 32.08C9.42833 32.08 9.335 32.0133 9.335 31.88C9.335 31.6933 9.46833 31.5867 9.735 31.56C11.4417 31.3733 12.8017 30.8267 13.815 29.92C14.935 28.9067 15.495 27.5733 15.495 25.92C15.495 25.7867 15.4817 25.6667 15.455 25.56C15.455 25.4533 15.455 25.3467 15.455 25.24C14.8683 25.4267 14.2417 25.52 13.575 25.52C12.4283 25.52 11.4283 25.1867 10.575 24.52C10.1483 24.1733 9.78833 23.7867 9.495 23.36C9.20167 22.9333 8.975 22.44 8.815 21.88C6.975 22.52 5.455 23.6667 4.255 25.32C3.08167 26.9733 2.495 28.7467 2.495 30.64C2.495 32.64 3.22833 34.1867 4.695 35.28C6.00167 36.1867 7.70833 36.64 9.815 36.64ZM36.935 14.52C38.4017 14.52 39.135 14.1333 39.135 13.36C39.135 12.5333 38.575 12.12 37.455 12.12C36.175 12.12 34.935 12.68 33.735 13.8C35.095 14.28 36.1617 14.52 36.935 14.52ZM13.735 25.12C14.2683 25.12 14.815 25.0267 15.375 24.84C15.0817 23.8267 14.495 23.0133 13.615 22.4C12.735 21.8133 11.775 21.52 10.735 21.52C10.6283 21.52 10.495 21.5333 10.335 21.56C10.2017 21.56 10.0683 21.5733 9.935 21.6C10.175 22.5333 10.615 23.3467 11.255 24.04C11.975 24.76 12.8017 25.12 13.735 25.12ZM37.2222 19.8C36.3689 19.8 35.9422 19.3867 35.9422 18.56C35.9422 17.6533 36.3555 17.2 37.1822 17.2C38.0355 17.2 38.4622 17.6133 38.4622 18.44C38.4622 19.3467 38.0489 19.8 37.2222 19.8ZM32.5022 35.4C30.7422 35.4 29.8622 34.4267 29.8622 32.48C29.8622 31.0667 30.2755 29.5733 31.1022 28L34.1022 22.12H34.2222C34.3022 22.2267 34.4622 22.28 34.7022 22.28C35.2089 22.28 35.8755 21.9733 36.7022 21.36L36.7822 21.44L33.3822 28.04C31.9689 30.76 31.2622 32.6533 31.2622 33.72C31.2622 34.2 31.3955 34.5333 31.6622 34.72C31.9289 34.9067 32.2355 35 32.5822 35C32.9555 35 33.3155 34.92 33.6622 34.76C34.0355 34.6 34.3555 34.4267 34.6222 34.24C35.3422 33.68 35.9422 33.04 36.4222 32.32C36.9289 31.5733 37.3689 30.8267 37.7422 30.08C38.1155 29.3333 38.4489 28.7067 38.7422 28.2C38.8222 28.0667 38.9022 28.0267 38.9822 28.08C39.0622 28.1067 39.0755 28.1867 39.0222 28.32C38.4889 29.44 37.9022 30.5867 37.2622 31.76C36.6222 32.9333 35.8089 33.8667 34.8222 34.56C34.4755 34.8 34.1022 35 33.7022 35.16C33.3289 35.32 32.9289 35.4 32.5022 35.4ZM34.7975 35.96L34.7175 35.88C35.4908 34.5467 36.2375 33.1733 36.9575 31.76C37.6775 30.3467 38.4108 28.8933 39.1575 27.4C39.4508 26.8133 39.7975 26.08 40.1975 25.2C40.6242 24.32 41.1042 23.2933 41.6375 22.12H41.7175C41.9042 22.2533 42.1175 22.32 42.3575 22.32C42.9175 22.32 43.5308 22.0667 44.1975 21.56L44.2775 21.48L44.2375 21.56H44.1975C44.0108 21.9333 43.6642 22.5867 43.1575 23.52C42.6775 24.4267 42.0508 25.6267 41.2775 27.12C43.4642 23.6533 45.2908 21.92 46.7575 21.92C47.7442 21.92 48.2375 22.3867 48.2375 23.32C48.2375 24.0933 47.9042 25.2267 47.2375 26.72C47.7975 25.9467 48.2642 25.32 48.6375 24.84C49.0108 24.3333 49.2908 23.9867 49.4775 23.8C50.5975 22.6 51.5975 22 52.4775 22C53.6242 22 54.1975 22.56 54.1975 23.68C54.1975 24.5067 53.9842 25.3467 53.5575 26.2C53.1575 27.0267 52.6775 27.8667 52.1175 28.72C51.5575 29.5467 51.0508 30.3733 50.5975 31.2C50.3842 31.6267 50.1842 32.08 49.9975 32.56C49.8375 33.0133 49.7575 33.4267 49.7575 33.8C49.7575 34.1467 49.8642 34.44 50.0775 34.68C50.2908 34.8933 50.6508 35 51.1575 35C51.5308 35 51.8908 34.9333 52.2375 34.8C52.5842 34.64 52.8908 34.4667 53.1575 34.28C53.8775 33.72 54.4908 33.0667 54.9975 32.32C55.5042 31.5733 55.9442 30.8267 56.3175 30.08C56.6908 29.3333 57.0242 28.7067 57.3175 28.2C57.3975 28.0667 57.4775 28.0267 57.5575 28.08C57.6375 28.1067 57.6508 28.1867 57.5975 28.32C57.0642 29.44 56.4775 30.5867 55.8375 31.76C55.1975 32.9333 54.3842 33.8667 53.3975 34.56C53.0508 34.8 52.6642 35 52.2375 35.16C51.8375 35.32 51.4108 35.4 50.9575 35.4C50.0242 35.4 49.3442 35.2 48.9175 34.8C48.5175 34.3733 48.3175 33.8267 48.3175 33.16C48.3175 32.68 48.4242 32.0933 48.6375 31.4C48.7975 30.92 48.9975 30.4133 49.2375 29.88C49.5042 29.32 49.8375 28.72 50.2375 28.08C51.6508 25.7333 52.3575 24.2133 52.3575 23.52C52.3575 23.0667 52.1575 22.84 51.7575 22.84C50.6375 22.84 49.0108 24.5867 46.8775 28.08C46.2108 29.1467 45.5708 30.2667 44.9575 31.44C44.3442 32.5867 43.7308 33.7867 43.1175 35.04H43.0375C42.8508 34.9867 42.6775 34.9467 42.5175 34.92C42.3575 34.8933 42.2108 34.88 42.0775 34.88C41.2775 34.88 40.7975 35.16 40.6375 35.72L40.5175 35.64C41.5308 33.88 42.3308 32.48 42.9175 31.44C43.5042 30.4 43.8908 29.72 44.0775 29.4C45.7842 26.1467 46.6375 24.0667 46.6375 23.16C46.6375 22.76 46.4908 22.56 46.1975 22.56C45.1042 22.56 43.4642 24.3467 41.2775 27.92C39.8375 30.24 38.5442 32.6267 37.3975 35.08L37.3175 35.12C36.9708 34.9867 36.6642 34.92 36.3975 34.92C35.9442 34.92 35.5708 35.0933 35.2775 35.44C35.0108 35.7867 34.8508 35.96 34.7975 35.96ZM63.4722 19.8C62.6189 19.8 62.1922 19.3867 62.1922 18.56C62.1922 17.6533 62.6055 17.2 63.4322 17.2C64.2855 17.2 64.7122 17.6133 64.7122 18.44C64.7122 19.3467 64.2989 19.8 63.4722 19.8ZM58.7522 35.4C56.9922 35.4 56.1122 34.4267 56.1122 32.48C56.1122 31.0667 56.5255 29.5733 57.3522 28L60.3522 22.12H60.4722C60.5522 22.2267 60.7122 22.28 60.9522 22.28C61.4589 22.28 62.1255 21.9733 62.9522 21.36L63.0322 21.44L59.6322 28.04C58.2189 30.76 57.5122 32.6533 57.5122 33.72C57.5122 34.2 57.6455 34.5333 57.9122 34.72C58.1789 34.9067 58.4855 35 58.8322 35C59.2055 35 59.5655 34.92 59.9122 34.76C60.2855 34.6 60.6055 34.4267 60.8722 34.24C61.5922 33.68 62.1922 33.04 62.6722 32.32C63.1789 31.5733 63.6189 30.8267 63.9922 30.08C64.3655 29.3333 64.6989 28.7067 64.9922 28.2C65.0722 28.0667 65.1522 28.0267 65.2322 28.08C65.3122 28.1067 65.3255 28.1867 65.2722 28.32C64.7389 29.44 64.1522 30.5867 63.5122 31.76C62.8722 32.9333 62.0589 33.8667 61.0722 34.56C60.7255 34.8 60.3522 35 59.9522 35.16C59.5789 35.32 59.1789 35.4 58.7522 35.4ZM61.5675 36.36L61.5275 36.28C62.4875 34.2 63.7275 31.32 65.2475 27.64C65.4875 27.0267 65.7675 26.2667 66.0875 25.36C66.4342 24.4533 66.8208 23.4 67.2475 22.2H67.3275C67.5942 22.4133 67.8208 22.52 68.0075 22.52C68.6742 22.52 69.3008 21.9467 69.8875 20.8V20.84C69.8875 20.8933 69.3008 22.32 68.1275 25.12C67.4875 26.64 67.0075 27.8 66.6875 28.6C66.3675 29.4 66.1808 29.8533 66.1275 29.96C69.1675 24.4933 71.5942 21.76 73.4075 21.76C73.8075 21.76 74.1675 21.8933 74.4875 22.16C74.8075 22.4267 74.9675 22.7733 74.9675 23.2C74.9675 24.32 74.2075 26.16 72.6875 28.72C71.1675 31.28 70.4075 33.0267 70.4075 33.96C70.4075 34.3067 70.5408 34.5733 70.8075 34.76C71.0742 34.9467 71.3942 35.04 71.7675 35.04C72.1408 35.04 72.5275 34.96 72.9275 34.8C73.3275 34.64 73.6608 34.4667 73.9275 34.28C74.6475 33.72 75.2608 33.0667 75.7675 32.32C76.2742 31.5733 76.7142 30.8267 77.0875 30.08C77.4608 29.3333 77.7942 28.7067 78.0875 28.2C78.1675 28.0667 78.2475 28.0267 78.3275 28.08C78.4075 28.1067 78.4208 28.1867 78.3675 28.32C77.8342 29.44 77.2475 30.5867 76.6075 31.76C75.9675 32.9333 75.1542 33.8667 74.1675 34.56C73.8208 34.8 73.4342 35 73.0075 35.16C72.6075 35.32 72.1808 35.4 71.7275 35.4C70.9808 35.4 70.3675 35.2 69.8875 34.8C69.4342 34.4 69.2075 33.7867 69.2075 32.96C69.2075 31.52 69.8742 29.7067 71.2075 27.52C72.5675 25.28 73.2475 23.8667 73.2475 23.28C73.2475 22.8267 72.9942 22.6 72.4875 22.6H72.2475C71.6608 22.6 70.8608 23.28 69.8475 24.64C68.8342 25.9733 67.6075 27.9467 66.1675 30.56C65.8208 31.1467 65.4608 31.8267 65.0875 32.6C64.7408 33.3467 64.3675 34.1867 63.9675 35.12L63.8875 35.16C63.5675 35 63.2875 34.92 63.0475 34.92C62.7008 34.92 62.4075 35.1333 62.1675 35.56C61.9542 36.0133 61.7542 36.28 61.5675 36.36ZM75.7344 43.96C74.2944 43.96 73.5744 43.4667 73.5744 42.48C73.5744 41.1467 75.0144 39.52 77.8944 37.6C78.9344 36.9067 79.9744 36.2667 81.0144 35.68C82.081 35.12 83.1344 34.6267 84.1744 34.2C84.2544 33.96 84.3477 33.6667 84.4544 33.32C84.5877 32.9467 84.721 32.52 84.8544 32.04C84.9077 31.8533 85.001 31.5333 85.1344 31.08C85.2944 30.6 85.5077 29.9733 85.7744 29.2C83.7744 33.12 81.7344 35.08 79.6544 35.08C77.9477 35.08 77.0944 33.9467 77.0944 31.68C77.0944 29.5733 77.8944 27.48 79.4944 25.4C81.2277 23.16 83.081 22.04 85.0544 22.04C86.441 22.04 87.1344 22.8533 87.1344 24.48C87.1344 24.88 87.0944 25.3067 87.0144 25.76C88.3744 22.6667 89.561 21.12 90.5744 21.12C90.921 21.12 91.0944 21.28 91.0944 21.6C91.0944 21.84 90.8544 22 90.3744 22.08C89.761 22.1867 89.3077 22.3733 89.0144 22.64C88.5877 23.0933 88.161 23.76 87.7344 24.64C87.3077 25.4933 86.9077 26.5867 86.5344 27.92C86.2677 28.9067 86.0144 29.8933 85.7744 30.88C85.5344 31.84 85.2944 32.8133 85.0544 33.8C86.3077 33.3733 87.4144 32.7067 88.3744 31.8C89.361 30.8667 90.1877 29.72 90.8544 28.36C90.9077 28.28 90.961 28.24 91.0144 28.24C91.0677 28.24 91.1077 28.28 91.1344 28.36C91.161 28.4133 91.1477 28.48 91.0944 28.56C90.7477 29.28 90.2677 30.0133 89.6544 30.76C89.0677 31.5067 88.3744 32.1867 87.5744 32.8C86.801 33.3867 85.9344 33.8133 84.9744 34.08L84.4144 36.32C83.5077 40.0267 81.4544 42.4133 78.2544 43.48C77.2944 43.8 76.4544 43.96 75.7344 43.96ZM79.8544 34.76C81.001 34.76 82.2677 33.8 83.6544 31.88C84.1877 31.16 84.6677 30.44 85.0944 29.72C85.521 28.9733 85.881 28.24 86.1744 27.52C86.3877 26.96 86.5477 26.4267 86.6544 25.92C86.761 25.3867 86.8144 24.8667 86.8144 24.36C86.8144 23.08 86.3477 22.44 85.4144 22.44H85.0944C84.2677 22.6 83.3344 23.3867 82.2944 24.8C81.3877 25.9467 80.721 27.0533 80.2944 28.12C79.8677 29.1333 79.5344 30.08 79.2944 30.96C79.0544 31.84 78.9344 32.64 78.9344 33.36C78.9344 34.2933 79.241 34.76 79.8544 34.76ZM75.6544 43.64C77.7077 43.64 79.9877 41.64 82.4944 37.64C82.6544 37.3733 82.841 37.0267 83.0544 36.6C83.2944 36.2 83.5477 35.7333 83.8144 35.2C83.8944 35.0667 83.9744 34.84 84.0544 34.52C82.1077 35.4 80.361 36.3467 78.8144 37.36C77.2944 38.4 75.9877 39.5067 74.8944 40.68C74.2544 41.3467 73.9344 41.9733 73.9344 42.56C73.9344 43.28 74.5077 43.64 75.6544 43.64Z" fill="black"></path></svg> 