<?xml version="1.0" encoding="UTF-8"?> <svg xmlns="http://www.w3.org/2000/svg" width="203" height="67" viewBox="0 0 203 67" fill="none"><path d="M5.34422 6.444C5.34422 6.036 5.50022 5.568 5.81222 5.04C6.12422 4.488 6.55622 3.924 7.10822 3.348C7.85222 2.58 8.52422 1.968 9.12422 1.512C9.67622 1.032 10.0722 0.767999 10.3122 0.719999L10.5642 0.791998L10.6362 0.971998C10.5162 1.116 10.4202 1.224 10.3482 1.296C10.1322 1.512 9.82022 1.8 9.41222 2.16C8.64422 2.832 8.14022 3.492 7.90022 4.14L7.64822 5.472C7.50422 6.84 7.08422 7.524 6.38822 7.524C6.05222 7.524 5.80022 7.44 5.63222 7.272C5.48822 7.104 5.39222 6.828 5.34422 6.444ZM1.24022 6.444C1.24022 6.036 1.38422 5.58 1.67222 5.076C1.81622 4.836 1.99622 4.572 2.21222 4.284C2.42822 3.972 2.69222 3.66 3.00422 3.348C3.72422 2.604 4.38422 1.992 4.98422 1.512C5.10422 1.416 5.30822 1.272 5.59622 1.08C5.90822 0.863999 6.11222 0.743999 6.20822 0.719999L6.46022 0.791998L6.56822 0.971998C6.44822 1.116 6.35222 1.224 6.28022 1.296C6.06422 1.512 5.75222 1.8 5.34422 2.16C4.57622 2.832 4.07222 3.492 3.83222 4.14L3.58022 5.472C3.43622 6.84 3.01622 7.524 2.32022 7.524C1.98422 7.524 1.72022 7.416 1.52822 7.2C1.33622 6.984 1.24022 6.732 1.24022 6.444ZM46.434 12.276C50.25 11.148 53.286 9.816 55.542 8.28C57.822 6.744 58.962 5.256 58.962 3.816C58.962 3.312 58.842 2.94 58.602 2.7C58.386 2.46 58.038 2.34 57.558 2.34C56.262 2.34 54.618 3.228 52.626 5.004C50.73 6.66 48.666 9.084 46.434 12.276ZM36.714 15.696C34.578 19.512 31.962 22.44 28.866 24.48C25.794 26.52 22.398 27.54 18.678 27.54C15.702 27.54 13.326 26.88 11.55 25.56C9.774 24.216 8.886 22.452 8.886 20.268C8.886 17.916 9.882 15.912 11.874 14.256C13.89 12.6 16.374 11.772 19.326 11.772C21.486 11.772 23.202 12.264 24.474 13.248C25.77 14.208 26.418 15.468 26.418 17.028C26.418 18.732 25.614 20.22 24.006 21.492C22.398 22.764 20.454 23.4 18.174 23.4C17.046 23.4 15.99 23.232 15.006 22.896C14.022 22.56 13.53 22.284 13.53 22.068L13.602 21.96L13.71 21.924C13.95 21.996 14.13 22.056 14.25 22.104C15.546 22.656 16.866 22.932 18.21 22.932C20.202 22.932 21.954 22.38 23.466 21.276C25.002 20.148 25.77 18.888 25.77 17.496C25.77 16.224 25.23 15.204 24.15 14.436C23.094 13.644 21.678 13.248 19.902 13.248C17.118 13.248 14.742 14.004 12.774 15.516C10.83 17.028 9.858 18.804 9.858 20.844C9.858 22.716 10.638 24.216 12.198 25.344C13.782 26.448 15.894 27 18.534 27C21.702 27 24.39 26.232 26.598 24.696C28.83 23.16 31.038 20.52 33.222 16.776C32.622 17.016 32.046 17.292 31.494 17.604C30.942 17.916 30.33 18.288 29.658 18.72C28.554 19.44 27.906 19.824 27.714 19.872L27.642 19.764C27.642 19.524 28.218 19.032 29.37 18.288C30.522 17.544 31.914 16.812 33.546 16.092C34.242 14.844 34.698 14.04 34.914 13.68C35.298 13.056 35.814 12.276 36.462 11.34C36.942 10.62 37.494 9.852 38.118 9.036C38.742 8.196 39.414 7.332 40.134 6.444C38.646 7.236 37.506 7.764 36.714 8.028C35.946 8.268 35.358 8.388 34.95 8.388C34.182 8.388 33.558 8.136 33.078 7.632C32.646 7.128 32.43 6.384 32.43 5.4L32.502 4.428L32.61 3.564C32.61 3.204 32.562 2.94 32.466 2.772C32.394 2.604 32.262 2.52 32.07 2.52C31.398 2.52 30.51 2.928 29.406 3.744C28.878 4.128 28.35 4.596 27.822 5.148C27.294 5.676 26.706 6.336 26.058 7.128C26.034 7.152 25.842 7.404 25.482 7.884C25.122 8.34 24.786 8.796 24.474 9.252C23.922 10.02 23.598 10.404 23.502 10.404L23.394 10.368V10.224C23.394 10.08 23.598 9.672 24.006 9C24.246 8.616 24.486 8.268 24.726 7.956C24.99 7.644 25.278 7.296 25.59 6.912C27.03 5.184 28.386 3.864 29.658 2.952C30.93 2.016 31.998 1.548 32.862 1.548C33.558 1.548 34.086 1.776 34.446 2.232C34.83 2.688 35.022 3.348 35.022 4.212L34.95 5.4L34.878 6.48C34.878 6.864 34.938 7.14 35.058 7.308C35.202 7.476 35.442 7.584 35.778 7.632C36.33 7.632 37.146 7.38 38.226 6.876C38.802 6.612 39.366 6.312 39.918 5.976C40.47 5.64 41.118 5.22 41.862 4.716L44.166 3.096C45.606 2.016 46.506 1.476 46.866 1.476C47.058 1.476 47.202 1.512 47.298 1.584C47.394 1.656 47.442 1.776 47.442 1.944C47.442 2.232 46.806 2.688 45.534 3.312C44.31 3.816 43.302 4.464 42.51 5.256C41.454 6.312 39.75 9.324 37.398 14.292L37.038 15.012L40.278 14.04L43.338 13.104C45.762 9.816 48.33 7.116 51.042 5.004C53.778 2.868 55.938 1.8 57.522 1.8C58.194 1.8 58.698 1.968 59.034 2.304C59.394 2.64 59.574 3.108 59.574 3.708C59.574 5.316 58.386 6.936 56.01 8.568C53.634 10.2 50.322 11.652 46.074 12.924C44.562 15.684 43.398 18.06 42.582 20.052C41.766 22.044 41.358 23.616 41.358 24.768C41.358 25.272 41.442 25.644 41.61 25.884C41.778 26.124 42.042 26.268 42.402 26.316C42.81 26.316 43.374 26.064 44.094 25.56C44.814 25.032 45.63 24.276 46.542 23.292L47.298 22.464C47.418 22.32 47.562 22.176 47.73 22.032C47.778 22.008 47.838 21.96 47.91 21.888L48.054 21.924L48.126 22.068C48.078 22.164 48.042 22.236 48.018 22.284C47.922 22.476 47.826 22.632 47.73 22.752L46.398 24.192C45.342 25.248 44.466 26.004 43.77 26.46C43.098 26.892 42.474 27.108 41.898 27.108C41.202 27.108 40.614 26.76 40.134 26.064C39.678 25.368 39.45 24.456 39.45 23.328C39.45 22.056 39.738 20.628 40.314 19.044C40.578 18.276 40.914 17.46 41.322 16.596C41.754 15.732 42.27 14.796 42.87 13.788L39.594 14.76L36.714 15.696ZM49.3354 25.416C49.3354 25.776 49.3954 26.04 49.5154 26.208C49.6594 26.376 49.8874 26.484 50.1994 26.532C50.5834 26.532 51.0754 26.34 51.6754 25.956C52.2754 25.548 52.8994 24.984 53.5474 24.264C54.4594 23.28 55.1914 22.26 55.7434 21.204C56.3194 20.124 56.6074 19.224 56.6074 18.504C56.6074 18.192 56.4874 17.928 56.2474 17.712C56.0314 17.496 55.7554 17.388 55.4194 17.388C54.8434 17.388 54.2074 17.64 53.5114 18.144C52.8394 18.648 52.1554 19.368 51.4594 20.304C51.1714 20.712 50.8954 21.156 50.6314 21.636C50.3674 22.092 50.1274 22.572 49.9114 23.076C49.5274 24.084 49.3354 24.864 49.3354 25.416ZM57.0394 19.296L58.5154 17.136L60.8914 16.992L56.9314 23.22L55.8154 25.128C55.7194 25.344 55.6474 25.644 55.5994 26.028C55.5994 26.196 55.6234 26.328 55.6714 26.424C55.7434 26.496 55.8994 26.556 56.1394 26.604C56.4514 26.604 56.9194 26.364 57.5434 25.884C58.1674 25.404 58.9954 24.624 60.0274 23.544L60.9994 22.5C61.1914 22.308 61.3234 22.176 61.3954 22.104C61.4914 22.008 61.5874 21.936 61.6834 21.888L61.8274 21.924L61.8994 22.032C61.8514 22.128 61.8154 22.2 61.7914 22.248C61.6954 22.44 61.5994 22.596 61.5034 22.716L60.2434 24.048C58.9474 25.368 57.9994 26.22 57.3994 26.604C56.8234 26.988 56.2714 27.18 55.7434 27.18C55.2394 27.18 54.8674 27.036 54.6274 26.748C54.3874 26.46 54.2674 26.004 54.2674 25.38L54.3034 24.876L54.4474 24.012C53.6074 25.068 52.8034 25.86 52.0354 26.388C51.2914 26.916 50.5834 27.18 49.9114 27.18C49.2874 27.18 48.7714 26.856 48.3634 26.208C48.0034 25.488 47.8234 24.588 47.8234 23.508L47.8954 22.644C47.9434 22.26 48.0034 21.984 48.0754 21.816L47.6434 22.356L47.3194 22.536L47.1754 22.5L47.1034 22.392C47.1514 22.32 47.1874 22.26 47.2114 22.212C47.3314 22.02 47.4514 21.852 47.5714 21.708L48.7954 20.376C49.8754 19.296 50.9914 18.444 52.1434 17.82C53.2954 17.172 54.3394 16.848 55.2754 16.848C55.8514 16.848 56.3074 17.004 56.6434 17.316C57.0034 17.628 57.1834 18.024 57.1834 18.504L57.1474 18.864L57.0394 19.296ZM61.6673 27.036L66.3473 20.016L66.5633 19.692C67.1873 18.78 67.4993 18.168 67.4993 17.856C67.4993 17.712 67.4513 17.604 67.3553 17.532C67.2833 17.436 67.1633 17.388 66.9953 17.388C66.6593 17.388 66.1553 17.628 65.4833 18.108C64.9793 18.54 64.0793 19.428 62.7833 20.772L61.9193 21.78C61.5113 22.236 61.2353 22.488 61.0913 22.536L60.9833 22.5L60.9113 22.392L61.0913 21.996L61.7393 21.204L62.8913 19.944C64.0673 18.696 64.9433 17.868 65.5193 17.46C66.0953 17.028 66.6353 16.812 67.1393 16.812C67.5473 16.812 67.8833 16.968 68.1473 17.28C68.4113 17.592 68.5433 18 68.5433 18.504C68.5433 19.08 68.4233 19.656 68.1833 20.232C67.9433 20.928 67.5833 21.648 67.1033 22.392C69.0473 20.232 70.4513 18.792 71.3153 18.072C72.2753 17.256 73.0553 16.848 73.6553 16.848C74.0393 16.848 74.3753 17.004 74.6633 17.316C74.9033 17.676 75.0233 18.096 75.0233 18.576C75.0233 19.512 74.4233 20.772 73.2233 22.356L72.7913 22.968L71.4593 24.948C71.2433 25.38 71.1353 25.728 71.1353 25.992C71.1353 26.208 71.1713 26.376 71.2433 26.496C71.3393 26.592 71.4953 26.64 71.7113 26.64C71.9993 26.64 72.4913 26.376 73.1873 25.848C73.8833 25.32 74.6873 24.564 75.5993 23.58L76.5713 22.5C76.7633 22.308 76.8953 22.176 76.9673 22.104C77.0633 22.008 77.1593 21.936 77.2553 21.888L77.3993 21.96L77.4713 22.068C77.4713 22.26 76.9553 22.884 75.9233 23.94L75.7073 24.156C75.5873 24.276 75.2393 24.612 74.6633 25.164C74.0873 25.716 73.5953 26.136 73.1873 26.424C72.5393 26.928 72.0353 27.18 71.6753 27.18C71.1713 27.18 70.7513 26.94 70.4153 26.46C70.1033 25.98 69.9473 25.368 69.9473 24.624C69.9473 24.096 70.0913 23.52 70.3793 22.896C70.6913 22.272 71.3153 21.372 72.2513 20.196L72.7913 19.512C73.4873 18.672 73.8353 18.108 73.8353 17.82C73.8353 17.652 73.8113 17.544 73.7633 17.496L73.4393 17.424C72.8633 17.424 71.7473 18.252 70.0913 19.908C68.4593 21.564 66.4913 23.856 64.1873 26.784L61.6673 27.036ZM78.6723 25.416C78.6723 25.776 78.7323 26.04 78.8523 26.208C78.9963 26.376 79.2243 26.484 79.5363 26.532C79.9203 26.532 80.4123 26.34 81.0123 25.956C81.6123 25.548 82.2363 24.984 82.8843 24.264C83.7963 23.28 84.5283 22.26 85.0803 21.204C85.6563 20.124 85.9443 19.224 85.9443 18.504C85.9443 18.192 85.8243 17.928 85.5843 17.712C85.3683 17.496 85.0923 17.388 84.7563 17.388C84.1803 17.388 83.5443 17.64 82.8483 18.144C82.1763 18.648 81.4923 19.368 80.7963 20.304C80.5083 20.712 80.2323 21.156 79.9683 21.636C79.7043 22.092 79.4643 22.572 79.2483 23.076C78.8643 24.084 78.6723 24.864 78.6723 25.416ZM86.3763 19.296L94.3683 5.112L96.7083 5.004L86.8803 22.068C86.6643 22.428 86.4603 22.788 86.2683 23.148C86.0763 23.508 85.8363 24 85.5483 24.624C85.2603 25.224 85.1163 25.68 85.1163 25.992C85.1163 26.136 85.1643 26.256 85.2603 26.352L85.6923 26.496C85.9323 26.496 86.3883 26.232 87.0603 25.704C87.7323 25.152 88.5843 24.348 89.6163 23.292L90.3363 22.5C90.5283 22.308 90.6603 22.176 90.7323 22.104C90.8283 22.008 90.9243 21.936 91.0203 21.888L91.1643 21.924L91.2363 22.032C91.1883 22.128 91.1523 22.2 91.1283 22.248C91.0323 22.44 90.9363 22.596 90.8403 22.716L89.5803 24.048C88.2843 25.368 87.3363 26.22 86.7363 26.604C86.1603 26.988 85.6083 27.18 85.0803 27.18C84.5763 27.18 84.2043 27.036 83.9643 26.748C83.7243 26.46 83.6043 26.004 83.6043 25.38L83.6403 24.876L83.7843 24.012C82.9443 25.068 82.1403 25.86 81.3723 26.388C80.6283 26.916 79.9203 27.18 79.2483 27.18C78.6243 27.18 78.1083 26.856 77.7003 26.208C77.3403 25.488 77.1603 24.588 77.1603 23.508L77.2323 22.644C77.2803 22.26 77.3403 21.984 77.4123 21.816L76.9803 22.356L76.6563 22.536L76.5123 22.5L76.4403 22.392C76.4883 22.32 76.5243 22.26 76.5483 22.212C76.6683 22.02 76.7883 21.852 76.9083 21.708L78.1323 20.376C79.2123 19.296 80.3283 18.444 81.4803 17.82C82.6323 17.172 83.6763 16.848 84.6123 16.848C85.1883 16.848 85.6443 17.004 85.9803 17.316C86.3403 17.628 86.5203 18.024 86.5203 18.504L86.4843 18.864L86.3763 19.296ZM100.691 19.116L98.6391 21.312C97.9191 22.104 97.4991 22.5 97.3791 22.5L97.2351 22.392C97.2351 22.272 97.6311 21.744 98.4231 20.808C98.7111 20.472 99.1911 19.944 99.8631 19.224C100.391 18.672 101.039 17.988 101.807 17.172L104.399 16.992L100.835 22.608L99.3591 25.02C99.2391 25.284 99.1551 25.476 99.1071 25.596C99.0831 25.716 99.0711 25.848 99.0711 25.992C99.0711 26.184 99.1311 26.352 99.2511 26.496C99.3711 26.616 99.5151 26.676 99.6831 26.676C100.139 26.676 100.679 26.448 101.303 25.992C101.591 25.776 101.963 25.452 102.419 25.02C102.899 24.564 103.391 24.072 103.895 23.544L104.687 22.68C105.119 22.152 105.407 21.888 105.551 21.888L105.695 21.924L105.767 22.068C105.743 22.14 105.719 22.212 105.695 22.284C105.671 22.356 105.599 22.452 105.479 22.572L104.111 24.048C103.463 24.696 102.923 25.212 102.491 25.596C102.083 25.98 101.711 26.292 101.375 26.532C100.751 26.964 100.199 27.18 99.7191 27.18C99.1431 27.18 98.6631 26.976 98.2791 26.568C97.9431 26.16 97.7751 25.608 97.7751 24.912C97.7751 24 98.6031 22.284 100.259 19.764L100.691 19.116ZM105.119 11.34C105.119 10.932 105.275 10.572 105.587 10.26C105.875 9.9 106.211 9.72 106.595 9.72C106.883 9.72 107.111 9.816 107.279 10.008C107.471 10.2 107.567 10.452 107.567 10.764C107.567 11.148 107.423 11.52 107.135 11.88C106.847 12.216 106.511 12.384 106.127 12.384C105.839 12.384 105.599 12.288 105.407 12.096C105.215 11.904 105.119 11.652 105.119 11.34ZM105.505 27.036L110.185 20.016L110.401 19.692C111.025 18.78 111.337 18.168 111.337 17.856C111.337 17.712 111.289 17.604 111.193 17.532C111.121 17.436 111.001 17.388 110.833 17.388C110.497 17.388 109.993 17.628 109.321 18.108C108.817 18.54 107.917 19.428 106.621 20.772L105.757 21.78C105.349 22.236 105.073 22.488 104.929 22.536L104.821 22.5L104.749 22.392L104.929 21.996L105.577 21.204L106.729 19.944C107.905 18.696 108.781 17.868 109.357 17.46C109.933 17.028 110.473 16.812 110.977 16.812C111.385 16.812 111.721 16.968 111.985 17.28C112.249 17.592 112.381 18 112.381 18.504C112.381 19.08 112.261 19.656 112.021 20.232C111.781 20.928 111.421 21.648 110.941 22.392C112.885 20.232 114.289 18.792 115.153 18.072C116.113 17.256 116.893 16.848 117.493 16.848C117.877 16.848 118.213 17.004 118.501 17.316C118.741 17.676 118.861 18.096 118.861 18.576C118.861 19.512 118.261 20.772 117.061 22.356L116.629 22.968L115.297 24.948C115.081 25.38 114.973 25.728 114.973 25.992C114.973 26.208 115.009 26.376 115.081 26.496C115.177 26.592 115.333 26.64 115.549 26.64C115.837 26.64 116.329 26.376 117.025 25.848C117.721 25.32 118.525 24.564 119.437 23.58L120.409 22.5C120.601 22.308 120.733 22.176 120.805 22.104C120.901 22.008 120.997 21.936 121.093 21.888L121.237 21.96L121.309 22.068C121.309 22.26 120.793 22.884 119.761 23.94L119.545 24.156C119.425 24.276 119.077 24.612 118.501 25.164C117.925 25.716 117.433 26.136 117.025 26.424C116.377 26.928 115.873 27.18 115.513 27.18C115.009 27.18 114.589 26.94 114.253 26.46C113.941 25.98 113.785 25.368 113.785 24.624C113.785 24.096 113.929 23.52 114.217 22.896C114.529 22.272 115.153 21.372 116.089 20.196L116.629 19.512C117.325 18.672 117.673 18.108 117.673 17.82C117.673 17.652 117.649 17.544 117.601 17.496L117.277 17.424C116.701 17.424 115.585 18.252 113.929 19.908C112.297 21.564 110.329 23.856 108.025 26.784L105.505 27.036ZM126.041 27.036L131.225 18.756L128.345 21.852L127.841 22.356L127.517 22.536L127.373 22.5L127.301 22.392L129.785 19.584C131.465 17.688 132.989 15.564 134.357 13.212L138.965 5.328L141.305 5.004L131.117 22.392C133.181 20.16 134.633 18.696 135.473 18C136.409 17.208 137.153 16.812 137.705 16.812C138.089 16.812 138.425 16.968 138.713 17.28C138.953 17.64 139.073 18.072 139.073 18.576C139.073 19.464 138.473 20.724 137.273 22.356L136.841 22.968L135.509 24.948C135.293 25.38 135.185 25.728 135.185 25.992C135.185 26.208 135.221 26.376 135.293 26.496C135.389 26.592 135.545 26.64 135.761 26.64C136.073 26.64 136.577 26.364 137.273 25.812C137.993 25.26 138.785 24.516 139.649 23.58L140.621 22.5C140.813 22.308 140.945 22.176 141.017 22.104C141.113 22.008 141.209 21.936 141.305 21.888L141.449 21.924L141.485 22.068C141.461 22.164 141.425 22.248 141.377 22.32C141.329 22.392 141.257 22.488 141.161 22.608L139.757 24.156C138.797 25.164 137.969 25.92 137.273 26.424C136.577 26.928 136.061 27.18 135.725 27.18C135.221 27.18 134.801 26.94 134.465 26.46C134.153 25.98 133.997 25.368 133.997 24.624C133.997 24.096 134.141 23.52 134.429 22.896C134.741 22.272 135.365 21.372 136.301 20.196L136.841 19.512C137.537 18.672 137.885 18.108 137.885 17.82C137.885 17.676 137.849 17.568 137.777 17.496C137.705 17.424 137.609 17.388 137.489 17.388C136.937 17.388 135.833 18.228 134.177 19.908C132.521 21.564 130.541 23.856 128.237 26.784L126.041 27.036ZM142.671 25.416C142.671 25.776 142.731 26.04 142.851 26.208C142.995 26.376 143.223 26.484 143.535 26.532C143.919 26.532 144.411 26.34 145.011 25.956C145.611 25.548 146.235 24.984 146.883 24.264C147.795 23.28 148.527 22.26 149.079 21.204C149.655 20.124 149.943 19.224 149.943 18.504C149.943 18.192 149.823 17.928 149.583 17.712C149.367 17.496 149.091 17.388 148.755 17.388C148.179 17.388 147.543 17.64 146.847 18.144C146.175 18.648 145.491 19.368 144.795 20.304C144.507 20.712 144.231 21.156 143.967 21.636C143.703 22.092 143.463 22.572 143.247 23.076C142.863 24.084 142.671 24.864 142.671 25.416ZM150.375 19.296L151.851 17.136L154.227 16.992L150.267 23.22L149.151 25.128C149.055 25.344 148.983 25.644 148.935 26.028C148.935 26.196 148.959 26.328 149.007 26.424C149.079 26.496 149.235 26.556 149.475 26.604C149.787 26.604 150.255 26.364 150.879 25.884C151.503 25.404 152.331 24.624 153.363 23.544L154.335 22.5C154.527 22.308 154.659 22.176 154.731 22.104C154.827 22.008 154.923 21.936 155.019 21.888L155.163 21.924L155.235 22.032C155.187 22.128 155.151 22.2 155.127 22.248C155.031 22.44 154.935 22.596 154.839 22.716L153.579 24.048C152.283 25.368 151.335 26.22 150.735 26.604C150.159 26.988 149.607 27.18 149.079 27.18C148.575 27.18 148.203 27.036 147.963 26.748C147.723 26.46 147.603 26.004 147.603 25.38L147.639 24.876L147.783 24.012C146.943 25.068 146.139 25.86 145.371 26.388C144.627 26.916 143.919 27.18 143.247 27.18C142.623 27.18 142.107 26.856 141.699 26.208C141.339 25.488 141.159 24.588 141.159 23.508L141.231 22.644C141.279 22.26 141.339 21.984 141.411 21.816L140.979 22.356L140.655 22.536L140.511 22.5L140.439 22.392C140.487 22.32 140.523 22.26 140.547 22.212C140.667 22.02 140.787 21.852 140.907 21.708L142.131 20.376C143.211 19.296 144.327 18.444 145.479 17.82C146.631 17.172 147.675 16.848 148.611 16.848C149.187 16.848 149.643 17.004 149.979 17.316C150.339 17.628 150.519 18.024 150.519 18.504L150.483 18.864L150.375 19.296ZM155.003 27.036L159.683 20.016L159.899 19.692C160.523 18.78 160.835 18.168 160.835 17.856C160.835 17.712 160.787 17.604 160.691 17.532C160.619 17.436 160.499 17.388 160.331 17.388C159.995 17.388 159.491 17.628 158.819 18.108C158.315 18.54 157.415 19.428 156.119 20.772L155.255 21.78C154.847 22.236 154.571 22.488 154.427 22.536L154.319 22.5L154.247 22.392L154.427 21.996L155.075 21.204L156.227 19.944C157.403 18.696 158.279 17.868 158.855 17.46C159.431 17.028 159.971 16.812 160.475 16.812C160.883 16.812 161.219 16.968 161.483 17.28C161.747 17.592 161.879 18 161.879 18.504C161.879 19.08 161.759 19.656 161.519 20.232C161.279 20.928 160.919 21.648 160.439 22.392C162.383 20.232 163.787 18.792 164.651 18.072C165.611 17.256 166.391 16.848 166.991 16.848C167.375 16.848 167.711 17.004 167.999 17.316C168.239 17.676 168.359 18.096 168.359 18.576C168.359 19.512 167.759 20.772 166.559 22.356L166.127 22.968L164.795 24.948C164.579 25.38 164.471 25.728 164.471 25.992C164.471 26.208 164.507 26.376 164.579 26.496C164.675 26.592 164.831 26.64 165.047 26.64C165.335 26.64 165.827 26.376 166.523 25.848C167.219 25.32 168.023 24.564 168.935 23.58L169.907 22.5C170.099 22.308 170.231 22.176 170.303 22.104C170.399 22.008 170.495 21.936 170.591 21.888L170.735 21.96L170.807 22.068C170.807 22.26 170.291 22.884 169.259 23.94L169.043 24.156C168.923 24.276 168.575 24.612 167.999 25.164C167.423 25.716 166.931 26.136 166.523 26.424C165.875 26.928 165.371 27.18 165.011 27.18C164.507 27.18 164.087 26.94 163.751 26.46C163.439 25.98 163.283 25.368 163.283 24.624C163.283 24.096 163.427 23.52 163.715 22.896C164.027 22.272 164.651 21.372 165.587 20.196L166.127 19.512C166.823 18.672 167.171 18.108 167.171 17.82C167.171 17.652 167.147 17.544 167.099 17.496L166.775 17.424C166.199 17.424 165.083 18.252 163.427 19.908C161.795 21.564 159.827 23.856 157.523 26.784L155.003 27.036ZM172.008 25.416C172.008 25.776 172.068 26.04 172.188 26.208C172.332 26.376 172.56 26.484 172.872 26.532C173.256 26.532 173.748 26.34 174.348 25.956C174.948 25.548 175.572 24.984 176.22 24.264C177.132 23.28 177.864 22.26 178.416 21.204C178.992 20.124 179.28 19.224 179.28 18.504C179.28 18.192 179.16 17.928 178.92 17.712C178.704 17.496 178.428 17.388 178.092 17.388C177.516 17.388 176.88 17.64 176.184 18.144C175.512 18.648 174.828 19.368 174.132 20.304C173.844 20.712 173.568 21.156 173.304 21.636C173.04 22.092 172.8 22.572 172.584 23.076C172.2 24.084 172.008 24.864 172.008 25.416ZM179.712 19.296L187.704 5.112L190.044 5.004L180.216 22.068C180 22.428 179.796 22.788 179.604 23.148C179.412 23.508 179.172 24 178.884 24.624C178.596 25.224 178.452 25.68 178.452 25.992C178.452 26.136 178.5 26.256 178.596 26.352L179.028 26.496C179.268 26.496 179.724 26.232 180.396 25.704C181.068 25.152 181.92 24.348 182.952 23.292L183.672 22.5C183.864 22.308 183.996 22.176 184.068 22.104C184.164 22.008 184.26 21.936 184.356 21.888L184.5 21.924L184.572 22.032C184.524 22.128 184.488 22.2 184.464 22.248C184.368 22.44 184.272 22.596 184.176 22.716L182.916 24.048C181.62 25.368 180.672 26.22 180.072 26.604C179.496 26.988 178.944 27.18 178.416 27.18C177.912 27.18 177.54 27.036 177.3 26.748C177.06 26.46 176.94 26.004 176.94 25.38L176.976 24.876L177.12 24.012C176.28 25.068 175.476 25.86 174.708 26.388C173.964 26.916 173.256 27.18 172.584 27.18C171.96 27.18 171.444 26.856 171.036 26.208C170.676 25.488 170.496 24.588 170.496 23.508L170.568 22.644C170.616 22.26 170.676 21.984 170.748 21.816L170.316 22.356L169.992 22.536L169.848 22.5L169.776 22.392C169.824 22.32 169.86 22.26 169.884 22.212C170.004 22.02 170.124 21.852 170.244 21.708L171.468 20.376C172.548 19.296 173.664 18.444 174.816 17.82C175.968 17.172 177.012 16.848 177.948 16.848C178.524 16.848 178.98 17.004 179.316 17.316C179.676 17.628 179.856 18.024 179.856 18.504L179.82 18.864L179.712 19.296ZM185.636 26.136C185.636 25.728 185.78 25.356 186.068 25.02C186.38 24.66 186.728 24.48 187.112 24.48C187.352 24.48 187.592 24.576 187.832 24.768C188.024 25.008 188.12 25.26 188.12 25.524C188.12 25.932 187.964 26.304 187.652 26.64C187.388 27 187.064 27.18 186.68 27.18C186.416 27.18 186.164 27.084 185.924 26.892C185.732 26.652 185.636 26.4 185.636 26.136ZM191.036 26.136C191.036 25.728 191.18 25.356 191.468 25.02C191.78 24.66 192.128 24.48 192.512 24.48C192.752 24.48 192.992 24.576 193.232 24.768C193.424 25.008 193.52 25.26 193.52 25.524C193.52 25.932 193.364 26.304 193.052 26.64C192.788 27 192.464 27.18 192.08 27.18C191.816 27.18 191.564 27.084 191.324 26.892C191.132 26.652 191.036 26.4 191.036 26.136ZM196.436 26.136C196.436 25.728 196.58 25.356 196.868 25.02C197.18 24.66 197.528 24.48 197.912 24.48C198.152 24.48 198.392 24.576 198.632 24.768C198.824 25.008 198.92 25.26 198.92 25.524C198.92 25.932 198.764 26.304 198.452 26.64C198.188 27 197.864 27.18 197.48 27.18C197.216 27.18 196.964 27.084 196.724 26.892C196.532 26.652 196.436 26.4 196.436 26.136ZM38.0151 51.276C41.8311 50.148 44.8671 48.816 47.1231 47.28C49.4031 45.744 50.5431 44.256 50.5431 42.816C50.5431 42.312 50.4231 41.94 50.1831 41.7C49.9671 41.46 49.6191 41.34 49.1391 41.34C47.8431 41.34 46.1991 42.228 44.2071 44.004C42.3111 45.66 40.2471 48.084 38.0151 51.276ZM28.2951 54.696C26.1591 58.512 23.5431 61.44 20.4471 63.48C17.3751 65.52 13.9791 66.54 10.2591 66.54C7.28306 66.54 4.90706 65.88 3.13106 64.56C1.35506 63.216 0.467064 61.452 0.467064 59.268C0.467064 56.916 1.46306 54.912 3.45506 53.256C5.47106 51.6 7.95506 50.772 10.9071 50.772C13.0671 50.772 14.7831 51.264 16.0551 52.248C17.3511 53.208 17.9991 54.468 17.9991 56.028C17.9991 57.732 17.1951 59.22 15.5871 60.492C13.9791 61.764 12.0351 62.4 9.75506 62.4C8.62706 62.4 7.57106 62.232 6.58706 61.896C5.60306 61.56 5.11106 61.284 5.11106 61.068L5.18306 60.96L5.29106 60.924C5.53106 60.996 5.71106 61.056 5.83106 61.104C7.12706 61.656 8.44706 61.932 9.79106 61.932C11.7831 61.932 13.5351 61.38 15.0471 60.276C16.5831 59.148 17.3511 57.888 17.3511 56.496C17.3511 55.224 16.8111 54.204 15.7311 53.436C14.6751 52.644 13.2591 52.248 11.4831 52.248C8.69906 52.248 6.32306 53.004 4.35506 54.516C2.41106 56.028 1.43906 57.804 1.43906 59.844C1.43906 61.716 2.21906 63.216 3.77906 64.344C5.36306 65.448 7.47506 66 10.1151 66C13.2831 66 15.9711 65.232 18.1791 63.696C20.4111 62.16 22.6191 59.52 24.8031 55.776C24.2031 56.016 23.6271 56.292 23.0751 56.604C22.5231 56.916 21.9111 57.288 21.2391 57.72C20.1351 58.44 19.4871 58.824 19.2951 58.872L19.2231 58.764C19.2231 58.524 19.7991 58.032 20.9511 57.288C22.1031 56.544 23.4951 55.812 25.1271 55.092C25.8231 53.844 26.2791 53.04 26.4951 52.68C26.8791 52.056 27.3951 51.276 28.0431 50.34C28.5231 49.62 29.0751 48.852 29.6991 48.036C30.3231 47.196 30.9951 46.332 31.7151 45.444C30.2271 46.236 29.0871 46.764 28.2951 47.028C27.5271 47.268 26.9391 47.388 26.5311 47.388C25.7631 47.388 25.1391 47.136 24.6591 46.632C24.2271 46.128 24.0111 45.384 24.0111 44.4L24.0831 43.428L24.1911 42.564C24.1911 42.204 24.1431 41.94 24.0471 41.772C23.9751 41.604 23.8431 41.52 23.6511 41.52C22.9791 41.52 22.0911 41.928 20.9871 42.744C20.4591 43.128 19.9311 43.596 19.4031 44.148C18.8751 44.676 18.2871 45.336 17.6391 46.128C17.6151 46.152 17.4231 46.404 17.0631 46.884C16.7031 47.34 16.3671 47.796 16.0551 48.252C15.5031 49.02 15.1791 49.404 15.0831 49.404L14.9751 49.368V49.224C14.9751 49.08 15.1791 48.672 15.5871 48C15.8271 47.616 16.0671 47.268 16.3071 46.956C16.5711 46.644 16.8591 46.296 17.1711 45.912C18.6111 44.184 19.9671 42.864 21.2391 41.952C22.5111 41.016 23.5791 40.548 24.4431 40.548C25.1391 40.548 25.6671 40.776 26.0271 41.232C26.4111 41.688 26.6031 42.348 26.6031 43.212L26.5311 44.4L26.4591 45.48C26.4591 45.864 26.5191 46.14 26.6391 46.308C26.7831 46.476 27.0231 46.584 27.3591 46.632C27.9111 46.632 28.7271 46.38 29.8071 45.876C30.3831 45.612 30.9471 45.312 31.4991 44.976C32.0511 44.64 32.6991 44.22 33.4431 43.716L35.7471 42.096C37.1871 41.016 38.0871 40.476 38.4471 40.476C38.6391 40.476 38.7831 40.512 38.8791 40.584C38.9751 40.656 39.0231 40.776 39.0231 40.944C39.0231 41.232 38.3871 41.688 37.1151 42.312C35.8911 42.816 34.8831 43.464 34.0911 44.256C33.0351 45.312 31.3311 48.324 28.9791 53.292L28.6191 54.012L31.8591 53.04L34.9191 52.104C37.3431 48.816 39.9111 46.116 42.6231 44.004C45.3591 41.868 47.5191 40.8 49.1031 40.8C49.7751 40.8 50.2791 40.968 50.6151 41.304C50.9751 41.64 51.1551 42.108 51.1551 42.708C51.1551 44.316 49.9671 45.936 47.5911 47.568C45.2151 49.2 41.9031 50.652 37.6551 51.924C36.1431 54.684 34.9791 57.06 34.1631 59.052C33.3471 61.044 32.9391 62.616 32.9391 63.768C32.9391 64.272 33.0231 64.644 33.1911 64.884C33.3591 65.124 33.6231 65.268 33.9831 65.316C34.3911 65.316 34.9551 65.064 35.6751 64.56C36.3951 64.032 37.2111 63.276 38.1231 62.292L38.8791 61.464C38.9991 61.32 39.1431 61.176 39.3111 61.032C39.3591 61.008 39.4191 60.96 39.4911 60.888L39.6351 60.924L39.7071 61.068C39.6591 61.164 39.6231 61.236 39.5991 61.284C39.5031 61.476 39.4071 61.632 39.3111 61.752L37.9791 63.192C36.9231 64.248 36.0471 65.004 35.3511 65.46C34.6791 65.892 34.0551 66.108 33.4791 66.108C32.7831 66.108 32.1951 65.76 31.7151 65.064C31.2591 64.368 31.0311 63.456 31.0311 62.328C31.0311 61.056 31.3191 59.628 31.8951 58.044C32.1591 57.276 32.4951 56.46 32.9031 55.596C33.3351 54.732 33.8511 53.796 34.4511 52.788L31.1751 53.76L28.2951 54.696ZM41.6364 61.968C43.2444 61.608 44.6244 60.912 45.7764 59.88C46.9284 58.848 47.5044 57.888 47.5044 57C47.5044 56.808 47.4324 56.64 47.2884 56.496C47.2164 56.352 47.0724 56.28 46.8564 56.28C46.0644 56.28 45.1524 56.82 44.1204 57.9C43.0884 58.956 42.2604 60.312 41.6364 61.968ZM39.6924 60.78L39.1884 61.356C39.1404 61.404 39.0444 61.452 38.9004 61.5L38.7204 61.356L39.0804 60.78L40.1244 59.592C40.6764 58.992 41.2284 58.464 41.7804 58.008C42.3324 57.528 42.8964 57.132 43.4724 56.82C44.6004 56.172 45.6804 55.848 46.7124 55.848C47.3364 55.848 47.8164 56.004 48.1524 56.316C48.5124 56.604 48.6924 57 48.6924 57.504C48.6924 58.488 48.0564 59.436 46.7844 60.348C45.5124 61.26 43.7364 61.992 41.4564 62.544L41.3124 63.48L41.2764 63.984C41.2764 64.536 41.3964 64.956 41.6364 65.244C41.9004 65.508 42.2604 65.64 42.7164 65.64C43.3404 65.64 43.9884 65.448 44.6604 65.064C45.0924 64.8 45.4764 64.524 45.8124 64.236C46.1724 63.948 46.6164 63.54 47.1444 63.012C47.3364 62.82 47.5284 62.628 47.7204 62.436C47.9364 62.22 48.1644 61.968 48.4044 61.68C48.6684 61.368 48.8364 61.176 48.9084 61.104C49.0044 61.032 49.1124 60.96 49.2324 60.888L49.3764 60.924L49.4484 61.068C49.4244 61.164 49.3884 61.248 49.3404 61.32C49.2924 61.392 49.2204 61.488 49.1244 61.608L47.6124 63.228C46.5324 64.308 45.6084 65.076 44.8404 65.532C44.0724 65.964 43.3044 66.18 42.5364 66.18C41.6964 66.18 40.9644 65.82 40.3404 65.1C39.7644 64.332 39.4764 63.396 39.4764 62.292L39.5484 61.572L39.6924 60.78ZM50.6454 64.416C50.6454 64.776 50.7054 65.04 50.8254 65.208C50.9694 65.376 51.1974 65.484 51.5094 65.532C51.8934 65.532 52.3854 65.34 52.9854 64.956C53.5854 64.548 54.2094 63.984 54.8574 63.264C55.7694 62.28 56.5014 61.26 57.0534 60.204C57.6294 59.124 57.9174 58.224 57.9174 57.504C57.9174 57.192 57.7974 56.928 57.5574 56.712C57.3414 56.496 57.0654 56.388 56.7294 56.388C56.1534 56.388 55.5174 56.64 54.8214 57.144C54.1494 57.648 53.4654 58.368 52.7694 59.304C52.4814 59.712 52.2054 60.156 51.9414 60.636C51.6774 61.092 51.4374 61.572 51.2214 62.076C50.8374 63.084 50.6454 63.864 50.6454 64.416ZM58.3494 58.296L59.8254 56.136L62.2014 55.992L58.2414 62.22L57.1254 64.128C57.0294 64.344 56.9574 64.644 56.9094 65.028C56.9094 65.196 56.9334 65.328 56.9814 65.424C57.0534 65.496 57.2094 65.556 57.4494 65.604C57.7614 65.604 58.2294 65.364 58.8534 64.884C59.4774 64.404 60.3054 63.624 61.3374 62.544L62.3094 61.5C62.5014 61.308 62.6334 61.176 62.7054 61.104C62.8014 61.008 62.8974 60.936 62.9934 60.888L63.1374 60.924L63.2094 61.032C63.1614 61.128 63.1254 61.2 63.1014 61.248C63.0054 61.44 62.9094 61.596 62.8134 61.716L61.5534 63.048C60.2574 64.368 59.3094 65.22 58.7094 65.604C58.1334 65.988 57.5814 66.18 57.0534 66.18C56.5494 66.18 56.1774 66.036 55.9374 65.748C55.6974 65.46 55.5774 65.004 55.5774 64.38L55.6134 63.876L55.7574 63.012C54.9174 64.068 54.1134 64.86 53.3454 65.388C52.6014 65.916 51.8934 66.18 51.2214 66.18C50.5974 66.18 50.0814 65.856 49.6734 65.208C49.3134 64.488 49.1334 63.588 49.1334 62.508L49.2054 61.644C49.2534 61.26 49.3134 60.984 49.3854 60.816L48.9534 61.356L48.6294 61.536L48.4854 61.5L48.4134 61.392C48.4614 61.32 48.4974 61.26 48.5214 61.212C48.6414 61.02 48.7614 60.852 48.8814 60.708L50.1054 59.376C51.1854 58.296 52.3014 57.444 53.4534 56.82C54.6054 56.172 55.6494 55.848 56.5854 55.848C57.1614 55.848 57.6174 56.004 57.9534 56.316C58.3134 56.628 58.4934 57.024 58.4934 57.504L58.4574 57.864L58.3494 58.296ZM62.9774 66L67.6574 59.016L67.8014 58.8C68.4734 57.816 68.8094 57.168 68.8094 56.856C68.8094 56.712 68.7614 56.604 68.6654 56.532C68.5934 56.436 68.4734 56.388 68.3054 56.388C67.9694 56.388 67.4654 56.628 66.7934 57.108C66.2894 57.54 65.3894 58.428 64.0934 59.772L63.2294 60.78C62.8214 61.236 62.5454 61.488 62.4014 61.536L62.2934 61.5L62.2214 61.392L62.4014 60.996L63.0494 60.204L64.2014 58.944C65.3774 57.696 66.2534 56.868 66.8294 56.46C67.4054 56.028 67.9454 55.812 68.4494 55.812C68.8574 55.812 69.1934 55.968 69.4574 56.28C69.7214 56.568 69.8534 56.928 69.8534 57.36C69.8534 57.912 69.7454 58.488 69.5294 59.088C69.3134 59.688 68.8454 60.6 68.1254 61.824L71.2214 58.944C71.7014 57.744 72.1454 56.928 72.5534 56.496C72.9854 56.04 73.5254 55.812 74.1734 55.812C74.4374 55.812 74.6294 55.872 74.7494 55.992C74.9174 56.088 75.0014 56.22 75.0014 56.388C75.0014 56.796 74.3054 57.516 72.9134 58.548L72.3734 58.944C71.8694 59.328 71.4854 59.736 71.2214 60.168C71.0054 60.6 70.8974 61.08 70.8974 61.608C70.8974 61.896 70.9814 62.136 71.1494 62.328C71.3414 62.496 71.5574 62.58 71.7974 62.58C72.3734 62.58 72.9734 62.292 73.5974 61.716L74.5334 60.852L74.6774 60.924L74.7494 61.032C74.7494 61.32 74.4014 61.728 73.7054 62.256C73.0334 62.784 72.4214 63.048 71.8694 63.048C71.3654 63.048 70.9814 62.928 70.7174 62.688C70.4774 62.424 70.3574 62.076 70.3574 61.644L70.4654 60.96L70.8254 59.916C70.4174 60.276 70.0334 60.624 69.6734 60.96C69.3374 61.296 68.9294 61.728 68.4494 62.256C67.5854 63.192 66.6014 64.356 65.4974 65.748L62.9774 66ZM77.1642 58.116L75.1122 60.312C74.3922 61.104 73.9722 61.5 73.8522 61.5L73.7082 61.392C73.7082 61.128 74.3922 60.288 75.7602 58.872C77.1522 57.456 78.1722 56.28 78.8202 55.344L80.3682 53.004H78.6402L78.9282 52.5H80.6922L82.8882 49.008L85.2282 48.828L82.9242 52.5H87.0642L86.7762 53.004H82.6002L77.2362 61.608C76.6362 62.544 76.2042 63.288 75.9402 63.84C75.6762 64.392 75.5442 64.776 75.5442 64.992C75.5442 65.184 75.6042 65.352 75.7242 65.496C75.8442 65.616 75.9882 65.676 76.1562 65.676C76.5642 65.676 77.0802 65.46 77.7042 65.028C78.3522 64.524 79.2402 63.696 80.3682 62.544L81.2682 61.536C81.3882 61.392 81.5682 61.236 81.8082 61.068C81.8562 61.02 81.9282 60.96 82.0242 60.888L82.1682 60.924L82.2402 61.068C82.2162 61.14 82.1922 61.212 82.1682 61.284C82.1442 61.356 82.0722 61.452 81.9522 61.572L80.5842 63.048C79.9362 63.696 79.3962 64.212 78.9642 64.596C78.5562 64.98 78.1842 65.292 77.8482 65.532C77.2242 65.964 76.6722 66.18 76.1922 66.18C75.6162 66.18 75.1362 65.976 74.7522 65.568C74.4162 65.16 74.2482 64.608 74.2482 63.912C74.2482 63 75.0762 61.284 76.7322 58.764L77.1642 58.116ZM91.6652 58.116L89.6132 60.312C88.8932 61.104 88.4732 61.5 88.3532 61.5L88.2092 61.392C88.2092 61.128 88.8932 60.288 90.2612 58.872C91.6532 57.456 92.6732 56.28 93.3212 55.344L94.8692 53.004H93.1412L93.4292 52.5H95.1932L97.3892 49.008L99.7292 48.828L97.4252 52.5H101.565L101.277 53.004H97.1012L91.7372 61.608C91.1372 62.544 90.7052 63.288 90.4412 63.84C90.1772 64.392 90.0452 64.776 90.0452 64.992C90.0452 65.184 90.1052 65.352 90.2252 65.496C90.3452 65.616 90.4892 65.676 90.6572 65.676C91.0652 65.676 91.5812 65.46 92.2052 65.028C92.8532 64.524 93.7412 63.696 94.8692 62.544L95.7692 61.536C95.8892 61.392 96.0692 61.236 96.3092 61.068C96.3572 61.02 96.4292 60.96 96.5252 60.888L96.6692 60.924L96.7412 61.068C96.7172 61.14 96.6932 61.212 96.6692 61.284C96.6452 61.356 96.5732 61.452 96.4532 61.572L95.0852 63.048C94.4372 63.696 93.8972 64.212 93.4652 64.596C93.0572 64.98 92.6852 65.292 92.3492 65.532C91.7252 65.964 91.1732 66.18 90.6932 66.18C90.1172 66.18 89.6372 65.976 89.2532 65.568C88.9172 65.16 88.7492 64.608 88.7492 63.912C88.7492 63 89.5772 61.284 91.2332 58.764L91.6652 58.116ZM97.9913 64.308C97.9913 64.692 98.0753 65.016 98.2433 65.28C98.4353 65.496 98.7233 65.604 99.1073 65.604C99.4673 65.604 99.9713 65.412 100.619 65.028C101.291 64.62 101.915 64.092 102.491 63.444C103.235 62.652 103.847 61.788 104.327 60.852C104.807 59.892 105.047 59.004 105.047 58.188C105.047 57.588 104.915 57.144 104.651 56.856C104.411 56.544 104.087 56.388 103.679 56.388C103.199 56.388 102.623 56.628 101.951 57.108C101.327 57.636 100.679 58.368 100.007 59.304C99.7193 59.688 99.4433 60.12 99.1793 60.6C98.9393 61.08 98.7233 61.548 98.5313 62.004C98.1713 62.868 97.9913 63.636 97.9913 64.308ZM104.039 62.724L104.219 62.76L104.615 62.832C105.071 62.832 105.563 62.7 106.091 62.436C106.619 62.148 107.123 61.752 107.603 61.248L108.071 60.708L108.179 60.636L108.359 60.6L108.467 60.672L108.503 60.816L108.467 60.996L108.071 61.464C107.591 62.04 107.027 62.508 106.379 62.868C105.947 63.06 105.575 63.192 105.263 63.264C104.975 63.312 104.687 63.336 104.399 63.336L103.895 63.3L103.571 63.264C102.803 64.128 101.963 64.848 101.051 65.424C100.259 65.928 99.5153 66.18 98.8193 66.18C98.0513 66.18 97.4513 65.856 97.0193 65.208C96.6113 64.536 96.4073 63.612 96.4073 62.436L96.4793 61.68L96.6953 60.78L96.1913 61.356C96.1433 61.404 96.0473 61.452 95.9033 61.5L95.7233 61.356L95.9753 60.888L97.1993 59.52C97.7033 58.968 98.2313 58.452 98.7833 57.972C99.3593 57.492 99.9233 57.096 100.475 56.784C101.579 56.112 102.599 55.776 103.535 55.776C104.303 55.776 104.903 56.016 105.335 56.496C105.791 56.976 106.019 57.6 106.019 58.368C106.019 58.896 105.863 59.556 105.551 60.348C105.359 60.78 105.155 61.164 104.939 61.5C104.723 61.836 104.423 62.244 104.039 62.724ZM113.007 66.036L118.191 57.756L115.311 60.852L114.807 61.356L114.483 61.536L114.339 61.5L114.267 61.392L116.751 58.584C118.431 56.688 119.955 54.564 121.323 52.212L125.931 44.328L128.271 44.004L118.083 61.392C120.147 59.16 121.599 57.696 122.439 57C123.375 56.208 124.119 55.812 124.671 55.812C125.055 55.812 125.391 55.968 125.679 56.28C125.919 56.64 126.039 57.072 126.039 57.576C126.039 58.464 125.439 59.724 124.239 61.356L123.807 61.968L122.475 63.948C122.259 64.38 122.151 64.728 122.151 64.992C122.151 65.208 122.187 65.376 122.259 65.496C122.355 65.592 122.511 65.64 122.727 65.64C123.039 65.64 123.543 65.364 124.239 64.812C124.959 64.26 125.751 63.516 126.615 62.58L127.587 61.5C127.779 61.308 127.911 61.176 127.983 61.104C128.079 61.008 128.175 60.936 128.271 60.888L128.415 60.924L128.451 61.068C128.427 61.164 128.391 61.248 128.343 61.32C128.295 61.392 128.223 61.488 128.127 61.608L126.723 63.156C125.763 64.164 124.935 64.92 124.239 65.424C123.543 65.928 123.027 66.18 122.691 66.18C122.187 66.18 121.767 65.94 121.431 65.46C121.119 64.98 120.963 64.368 120.963 63.624C120.963 63.096 121.107 62.52 121.395 61.896C121.707 61.272 122.331 60.372 123.267 59.196L123.807 58.512C124.503 57.672 124.851 57.108 124.851 56.82C124.851 56.676 124.815 56.568 124.743 56.496C124.671 56.424 124.575 56.388 124.455 56.388C123.903 56.388 122.799 57.228 121.143 58.908C119.487 60.564 117.507 62.856 115.203 65.784L113.007 66.036ZM130.358 61.968C131.966 61.608 133.346 60.912 134.498 59.88C135.65 58.848 136.226 57.888 136.226 57C136.226 56.808 136.154 56.64 136.01 56.496C135.938 56.352 135.794 56.28 135.578 56.28C134.786 56.28 133.874 56.82 132.842 57.9C131.81 58.956 130.982 60.312 130.358 61.968ZM128.414 60.78L127.91 61.356C127.862 61.404 127.766 61.452 127.622 61.5L127.442 61.356L127.802 60.78L128.846 59.592C129.398 58.992 129.95 58.464 130.502 58.008C131.054 57.528 131.618 57.132 132.194 56.82C133.322 56.172 134.402 55.848 135.434 55.848C136.058 55.848 136.538 56.004 136.874 56.316C137.234 56.604 137.414 57 137.414 57.504C137.414 58.488 136.778 59.436 135.506 60.348C134.234 61.26 132.458 61.992 130.178 62.544L130.034 63.48L129.998 63.984C129.998 64.536 130.118 64.956 130.358 65.244C130.622 65.508 130.982 65.64 131.438 65.64C132.062 65.64 132.71 65.448 133.382 65.064C133.814 64.8 134.198 64.524 134.534 64.236C134.894 63.948 135.338 63.54 135.866 63.012C136.058 62.82 136.25 62.628 136.442 62.436C136.658 62.22 136.886 61.968 137.126 61.68C137.39 61.368 137.558 61.176 137.63 61.104C137.726 61.032 137.834 60.96 137.954 60.888L138.098 60.924L138.17 61.068C138.146 61.164 138.11 61.248 138.062 61.32C138.014 61.392 137.942 61.488 137.846 61.608L136.334 63.228C135.254 64.308 134.33 65.076 133.562 65.532C132.794 65.964 132.026 66.18 131.258 66.18C130.418 66.18 129.686 65.82 129.062 65.1C128.486 64.332 128.198 63.396 128.198 62.292L128.27 61.572L128.414 60.78ZM139.367 64.416C139.367 64.776 139.427 65.04 139.547 65.208C139.691 65.376 139.919 65.484 140.231 65.532C140.615 65.532 141.107 65.34 141.707 64.956C142.307 64.548 142.931 63.984 143.579 63.264C144.491 62.28 145.223 61.26 145.775 60.204C146.351 59.124 146.639 58.224 146.639 57.504C146.639 57.192 146.519 56.928 146.279 56.712C146.063 56.496 145.787 56.388 145.451 56.388C144.875 56.388 144.239 56.64 143.543 57.144C142.871 57.648 142.187 58.368 141.491 59.304C141.203 59.712 140.927 60.156 140.663 60.636C140.399 61.092 140.159 61.572 139.943 62.076C139.559 63.084 139.367 63.864 139.367 64.416ZM147.071 58.296L148.547 56.136L150.923 55.992L146.963 62.22L145.847 64.128C145.751 64.344 145.679 64.644 145.631 65.028C145.631 65.196 145.655 65.328 145.703 65.424C145.775 65.496 145.931 65.556 146.171 65.604C146.483 65.604 146.951 65.364 147.575 64.884C148.199 64.404 149.027 63.624 150.059 62.544L151.031 61.5C151.223 61.308 151.355 61.176 151.427 61.104C151.523 61.008 151.619 60.936 151.715 60.888L151.859 60.924L151.931 61.032C151.883 61.128 151.847 61.2 151.823 61.248C151.727 61.44 151.631 61.596 151.535 61.716L150.275 63.048C148.979 64.368 148.031 65.22 147.431 65.604C146.855 65.988 146.303 66.18 145.775 66.18C145.271 66.18 144.899 66.036 144.659 65.748C144.419 65.46 144.299 65.004 144.299 64.38L144.335 63.876L144.479 63.012C143.639 64.068 142.835 64.86 142.067 65.388C141.323 65.916 140.615 66.18 139.943 66.18C139.319 66.18 138.803 65.856 138.395 65.208C138.035 64.488 137.855 63.588 137.855 62.508L137.927 61.644C137.975 61.26 138.035 60.984 138.107 60.816L137.675 61.356L137.351 61.536L137.207 61.5L137.135 61.392C137.183 61.32 137.219 61.26 137.243 61.212C137.363 61.02 137.483 60.852 137.603 60.708L138.827 59.376C139.907 58.296 141.023 57.444 142.175 56.82C143.327 56.172 144.371 55.848 145.307 55.848C145.883 55.848 146.339 56.004 146.675 56.316C147.035 56.628 147.215 57.024 147.215 57.504L147.179 57.864L147.071 58.296ZM151.699 66L156.379 59.016L156.523 58.8C157.195 57.816 157.531 57.168 157.531 56.856C157.531 56.712 157.483 56.604 157.387 56.532C157.315 56.436 157.195 56.388 157.027 56.388C156.691 56.388 156.187 56.628 155.515 57.108C155.011 57.54 154.111 58.428 152.815 59.772L151.951 60.78C151.543 61.236 151.267 61.488 151.123 61.536L151.015 61.5L150.943 61.392L151.123 60.996L151.771 60.204L152.923 58.944C154.099 57.696 154.975 56.868 155.551 56.46C156.127 56.028 156.667 55.812 157.171 55.812C157.579 55.812 157.915 55.968 158.179 56.28C158.443 56.568 158.575 56.928 158.575 57.36C158.575 57.912 158.467 58.488 158.251 59.088C158.035 59.688 157.567 60.6 156.847 61.824L159.943 58.944C160.423 57.744 160.867 56.928 161.275 56.496C161.707 56.04 162.247 55.812 162.895 55.812C163.159 55.812 163.351 55.872 163.471 55.992C163.639 56.088 163.723 56.22 163.723 56.388C163.723 56.796 163.027 57.516 161.635 58.548L161.095 58.944C160.591 59.328 160.207 59.736 159.943 60.168C159.727 60.6 159.619 61.08 159.619 61.608C159.619 61.896 159.703 62.136 159.871 62.328C160.063 62.496 160.279 62.58 160.519 62.58C161.095 62.58 161.695 62.292 162.319 61.716L163.255 60.852L163.399 60.924L163.471 61.032C163.471 61.32 163.123 61.728 162.427 62.256C161.755 62.784 161.143 63.048 160.591 63.048C160.087 63.048 159.703 62.928 159.439 62.688C159.199 62.424 159.079 62.076 159.079 61.644L159.187 60.96L159.547 59.916C159.139 60.276 158.755 60.624 158.395 60.96C158.059 61.296 157.651 61.728 157.171 62.256C156.307 63.192 155.323 64.356 154.219 65.748L151.699 66ZM165.885 58.116L163.833 60.312C163.113 61.104 162.693 61.5 162.573 61.5L162.429 61.392C162.429 61.128 163.113 60.288 164.481 58.872C165.873 57.456 166.893 56.28 167.541 55.344L169.089 53.004H167.361L167.649 52.5H169.413L171.609 49.008L173.949 48.828L171.645 52.5H175.785L175.497 53.004H171.321L165.957 61.608C165.357 62.544 164.925 63.288 164.661 63.84C164.397 64.392 164.265 64.776 164.265 64.992C164.265 65.184 164.325 65.352 164.445 65.496C164.565 65.616 164.709 65.676 164.877 65.676C165.285 65.676 165.801 65.46 166.425 65.028C167.073 64.524 167.961 63.696 169.089 62.544L169.989 61.536C170.109 61.392 170.289 61.236 170.529 61.068C170.577 61.02 170.649 60.96 170.745 60.888L170.889 60.924L170.961 61.068C170.937 61.14 170.913 61.212 170.889 61.284C170.865 61.356 170.793 61.452 170.673 61.572L169.305 63.048C168.657 63.696 168.117 64.212 167.685 64.596C167.277 64.98 166.905 65.292 166.569 65.532C165.945 65.964 165.393 66.18 164.913 66.18C164.337 66.18 163.857 65.976 163.473 65.568C163.137 65.16 162.969 64.608 162.969 63.912C162.969 63 163.797 61.284 165.453 58.764L165.885 58.116ZM171.996 65.136C171.996 64.728 172.14 64.356 172.428 64.02C172.74 63.66 173.088 63.48 173.472 63.48C173.712 63.48 173.952 63.576 174.192 63.768C174.384 64.008 174.48 64.26 174.48 64.524C174.48 64.932 174.324 65.304 174.012 65.64C173.748 66 173.424 66.18 173.04 66.18C172.776 66.18 172.524 66.084 172.284 65.892C172.092 65.652 171.996 65.4 171.996 65.136ZM177.396 65.136C177.396 64.728 177.54 64.356 177.828 64.02C178.14 63.66 178.488 63.48 178.872 63.48C179.112 63.48 179.352 63.576 179.592 63.768C179.784 64.008 179.88 64.26 179.88 64.524C179.88 64.932 179.724 65.304 179.412 65.64C179.148 66 178.824 66.18 178.44 66.18C178.176 66.18 177.924 66.084 177.684 65.892C177.492 65.652 177.396 65.4 177.396 65.136ZM182.796 65.136C182.796 64.728 182.94 64.356 183.228 64.02C183.54 63.66 183.888 63.48 184.272 63.48C184.512 63.48 184.752 63.576 184.992 63.768C185.184 64.008 185.28 64.26 185.28 64.524C185.28 64.932 185.124 65.304 184.812 65.64C184.548 66 184.224 66.18 183.84 66.18C183.576 66.18 183.324 66.084 183.084 65.892C182.892 65.652 182.796 65.4 182.796 65.136ZM202.547 40.8C202.547 41.208 202.391 41.676 202.079 42.204C201.839 42.732 201.407 43.308 200.783 43.932C200.495 44.244 200.171 44.568 199.811 44.904C199.595 45.096 199.223 45.408 198.695 45.84C198.167 46.248 197.795 46.476 197.579 46.524L197.327 46.488L197.255 46.272C197.375 46.128 197.471 46.02 197.543 45.948C197.711 45.756 198.023 45.48 198.479 45.12C199.271 44.424 199.775 43.764 199.991 43.14L200.243 41.808C200.387 40.44 200.807 39.756 201.503 39.756C201.839 39.756 202.091 39.852 202.259 40.044C202.451 40.236 202.547 40.488 202.547 40.8ZM198.479 40.8C198.479 41.184 198.323 41.664 198.011 42.24C197.699 42.792 197.267 43.356 196.715 43.932C196.499 44.148 196.079 44.544 195.455 45.12C195.023 45.504 194.783 45.72 194.735 45.768C194.135 46.224 193.727 46.476 193.511 46.524L193.259 46.488L193.151 46.272C193.271 46.128 193.367 46.02 193.439 45.948C193.631 45.732 193.931 45.456 194.339 45.12C195.155 44.448 195.671 43.788 195.887 43.14L196.139 41.808C196.283 40.44 196.703 39.756 197.399 39.756C197.735 39.756 197.999 39.852 198.191 40.044C198.383 40.236 198.479 40.488 198.479 40.8Z" fill="#181818"></path></svg> 