<?xml version="1.0" encoding="UTF-8"?> <svg xmlns="http://www.w3.org/2000/svg" width="99" height="27" viewBox="0 0 99 27" fill="none"><path d="M11.9821 14.04C13.4701 14.496 14.8141 15.204 16.0141 16.164C17.2141 17.124 18.1621 18.192 18.8581 19.368C19.5541 20.544 20.0821 21.744 20.4421 22.968C20.8261 24.168 21.0181 25.32 21.0181 26.424L18.7501 27C18.7501 26.136 18.6301 25.176 18.3901 24.12C18.1741 23.064 17.7781 21.936 17.2021 20.736C16.6501 19.536 15.9541 18.444 15.1141 17.46C14.2981 16.476 13.2181 15.66 11.8741 15.012C10.5541 14.364 9.09008 14.04 7.48208 14.04H3.55808V26.424L0.174078 27V1.08L3.55808 0.539999H11.9821C13.5181 0.539999 14.9461 0.779999 16.2661 1.26C17.6101 1.74 18.7381 2.508 19.6501 3.564C20.5621 4.62 21.0181 5.856 21.0181 7.272C21.0181 8.712 20.5741 9.96 19.6861 11.016C18.8221 12.072 17.7541 12.84 16.4821 13.32C15.2341 13.8 13.9261 14.04 12.5581 14.04H11.9821ZM3.55808 13.5H12.5581C13.4941 13.5 14.3101 13.32 15.0061 12.96C15.7021 12.576 16.2301 12.072 16.5901 11.448C16.9501 10.824 17.2141 10.176 17.3821 9.504C17.5501 8.808 17.6341 8.064 17.6341 7.272C17.6341 5.568 17.0221 4.116 15.7981 2.916C14.5981 1.692 13.1461 1.08 11.4421 1.08H3.55808V13.5ZM35.8127 12.348C36.4127 12.444 37.0247 12.564 37.6487 12.708C38.2727 12.828 39.0167 13.02 39.8807 13.284C40.7447 13.524 41.5487 13.836 42.2927 14.22C43.0367 14.58 43.7327 15.012 44.3807 15.516C45.0287 15.996 45.5447 16.584 45.9287 17.28C46.3127 17.976 46.5047 18.732 46.5047 19.548C46.5047 22.38 45.6287 24.336 43.8767 25.416C42.1487 26.472 39.3647 27 35.5247 27C33.8927 27 32.3927 26.844 31.0247 26.532C29.6807 26.22 28.6247 25.848 27.8567 25.416C27.0887 24.96 26.4287 24.516 25.8767 24.084C25.3487 23.652 25.0007 23.28 24.8327 22.968L24.5447 22.5L26.0207 20.808C26.0927 20.952 26.2007 21.156 26.3447 21.42C26.5127 21.66 26.8847 22.104 27.4607 22.752C28.0367 23.4 28.6607 23.976 29.3327 24.48C30.0047 24.984 30.8927 25.44 31.9967 25.848C33.1247 26.232 34.3007 26.424 35.5247 26.424C37.9727 26.424 39.8447 25.788 41.1407 24.516C42.4607 23.244 43.1207 21.636 43.1207 19.692C43.1207 17.916 42.4007 16.44 40.9607 15.264C39.5207 14.088 37.6127 13.308 35.2367 12.924C34.9487 12.876 34.5287 12.828 33.9767 12.78C33.4487 12.708 32.9567 12.648 32.5007 12.6C32.0687 12.528 31.5527 12.444 30.9527 12.348C30.3767 12.252 29.8487 12.144 29.3687 12.024C28.8887 11.904 28.3967 11.76 27.8927 11.592C27.3887 11.4 26.9447 11.172 26.5607 10.908C26.1767 10.644 25.8287 10.344 25.5167 10.008C25.2047 9.672 24.9647 9.276 24.7967 8.82C24.6287 8.364 24.5447 7.848 24.5447 7.272C24.5447 6.024 24.7847 4.956 25.2647 4.068C25.7687 3.18 26.4887 2.484 27.4247 1.98C28.3847 1.476 29.5007 1.116 30.7727 0.899999C32.0447 0.659999 33.5327 0.539999 35.2367 0.539999C37.1807 0.539999 39.0887 0.743999 40.9607 1.152C42.8567 1.536 44.3327 2.088 45.3887 2.808L43.6967 5.04C42.7367 3.6 41.4887 2.58 39.9527 1.98C38.4407 1.38 36.8687 1.08 35.2367 1.08C33.0527 1.08 31.2887 1.656 29.9447 2.808C28.6007 3.96 27.9287 5.448 27.9287 7.272C27.9287 7.776 27.9767 8.232 28.0727 8.64C28.1687 9.024 28.3367 9.372 28.5767 9.684C28.8167 9.972 29.0567 10.236 29.2967 10.476C29.5367 10.692 29.8727 10.896 30.3047 11.088C30.7367 11.256 31.0967 11.4 31.3847 11.52C31.6967 11.64 32.1407 11.76 32.7167 11.88C33.2927 11.976 33.7367 12.048 34.0487 12.096C34.3847 12.144 34.8767 12.216 35.5247 12.312C35.6447 12.336 35.7407 12.348 35.8127 12.348ZM74.5214 0.647998L62.9654 23.904L63.4334 24.876L60.7334 27L48.6014 2.592L51.3014 0.467998L62.6414 23.292L74.0174 0.395999L74.5214 0.647998ZM89.6071 0.539999C91.1431 0.539999 92.5711 0.779999 93.8911 1.26C95.2351 1.74 96.3631 2.508 97.2751 3.564C98.1871 4.62 98.6431 5.856 98.6431 7.272C98.6431 8.712 98.1991 9.96 97.3111 11.016C96.4471 12.072 95.3791 12.84 94.1071 13.32C92.8591 13.8 91.5511 14.04 90.1831 14.04H81.1831V26.424L77.7991 27V1.08L81.1831 0.539999H89.6071ZM90.1831 13.5C91.1191 13.5 91.9351 13.32 92.6311 12.96C93.3271 12.576 93.8551 12.072 94.2151 11.448C94.5751 10.824 94.8391 10.176 95.0071 9.504C95.1751 8.808 95.2591 8.064 95.2591 7.272C95.2591 5.568 94.6471 4.116 93.4231 2.916C92.2231 1.692 90.7711 1.08 89.0671 1.08H81.1831V13.5H90.1831Z" fill="black"></path></svg> 