<?xml version="1.0" encoding="UTF-8"?> <svg xmlns="http://www.w3.org/2000/svg" width="227" height="227" viewBox="0 0 227 227" fill="none"><path fill-rule="evenodd" clip-rule="evenodd" d="M84.6521 0.0485243C78.5826 0.136168 67.8044 0.53134 63.6821 0.817568C47.6187 1.93275 34.9783 6.15139 24.9654 13.7389C22.3637 15.7105 17.4996 20.3998 15.1425 23.209C10.4087 28.8508 6.52155 36.2929 4.10102 44.3493C2.37638 50.0887 1.28084 56.5275 0.788652 63.8134C0.105408 73.9306 0 80.5755 0 113.515C0 151.62 0.224567 160.379 1.44904 170.029C3.13973 183.355 7.9748 195.286 15.1445 203.821C17.3816 206.484 22.0571 211.038 24.516 212.949C34.5217 220.724 47.401 225.085 63.6821 226.211C73.4521 226.887 80.5786 227 113.5 227C151.766 227 160.336 226.781 170.02 225.554C183.38 223.861 195.219 219.064 203.815 211.86C206.694 209.447 211.353 204.603 213.376 201.917C219.802 193.388 223.973 182.462 225.55 170.029C226.775 160.374 227 151.616 227 113.515C227 80.5677 226.895 73.945 226.211 63.8134C225.125 47.733 220.896 35.0302 213.286 24.9896C211.314 22.3883 206.624 17.5246 203.815 15.1678C198.172 10.4344 190.73 6.54767 182.672 4.12738C175.043 1.83534 168.589 0.972664 154.33 0.339413C149.519 0.125518 95.0634 -0.10169 84.6521 0.0485243ZM92.0859 20.3518C63.5137 20.5744 56.8879 21.1557 48.0206 24.2179C41.9044 26.33 38.0018 28.7776 33.3778 33.4011C28.6896 38.0886 26.2761 41.9671 24.1172 48.2817C20.6864 58.3172 20.2568 65.5787 20.2568 113.515C20.2568 161.451 20.6864 168.713 24.1172 178.748C26.2761 185.063 28.6896 188.941 33.3778 193.629C38.0657 198.316 41.9446 200.73 48.2598 202.888C58.2717 206.31 65.4159 206.731 113.5 206.731C161.583 206.731 168.728 206.31 178.74 202.888C185.055 200.73 188.934 198.316 193.622 193.629C198.31 188.941 200.723 185.063 202.882 178.748C206.313 168.713 206.743 161.451 206.743 113.515C206.743 76.9182 206.484 66.7802 205.35 58.8211C204.223 50.9185 201.855 44.1846 198.327 38.8579C196.294 35.7875 191.235 30.729 188.164 28.6959C181.442 24.2454 172.786 21.7348 161.653 21.007C151.381 20.3356 125.484 20.0918 92.0859 20.3518ZM171.525 39.6318C166.379 40.6551 162.16 44.6503 160.878 49.715C160.486 51.2644 160.442 54.1997 160.785 55.8702C161.559 59.63 164.549 63.4065 168.088 65.0932C170.336 66.1645 171.703 66.476 174.155 66.476C182.638 66.476 189.057 58.5717 187.309 50.2786C186.453 46.2173 183.801 42.7226 180.244 40.9693C177.444 39.5897 174.223 39.0955 171.525 39.6318ZM109.588 55.3806C97.6031 56.2406 86.252 60.6804 76.8854 68.1721C74.4647 70.1082 70.0885 74.4839 68.1522 76.9044C59.7214 87.4432 55.3086 100.022 55.3086 113.515C55.3086 127.008 59.7214 139.587 68.1522 150.125C70.0885 152.546 74.4647 156.922 76.8854 158.858C87.4199 167.284 100.022 171.705 113.5 171.705C126.978 171.705 139.579 167.284 150.114 158.858C152.535 156.922 156.911 152.546 158.847 150.125C167.278 139.587 171.691 127.008 171.691 113.515C171.691 100.022 167.278 87.4432 158.847 76.9044C156.911 74.4839 152.535 70.1082 150.114 68.1721C143.027 62.5039 134.146 58.285 125.593 56.5237C120.58 55.4915 114.297 55.0426 109.588 55.3806ZM108.507 75.8123C95.7968 77.5483 84.5598 85.7897 79.1169 97.3668C77.8658 100.028 76.8848 102.989 76.184 106.219C75.7488 108.226 75.6845 109.167 75.6845 113.515C75.6845 119.005 75.9377 120.773 77.3641 125.248C79.3364 131.434 83.5958 137.902 88.4149 142.027C93.6614 146.518 99.3956 149.359 106.177 150.827C108.212 151.267 109.138 151.331 113.5 151.331C117.861 151.331 118.787 151.267 120.823 150.827C127.604 149.359 133.338 146.518 138.584 142.027C143.404 137.902 147.663 131.434 149.635 125.248C151.062 120.773 151.315 119.005 151.315 113.515C151.315 108.025 151.062 106.257 149.635 101.782C147.685 95.6645 143.574 89.3786 138.746 85.1309C133.746 80.7326 127.564 77.646 120.933 76.2364C118.377 75.693 111.179 75.4473 108.507 75.8123Z" fill="black"></path></svg> 